  0
SECTION
  2
HEADER
  9
$ACADVER
  1
AC1027
  9
$ACADMAINTVER
 70
105
  9
$DWGCODEPAGE
  3
ANSI_1252
  9
$LASTSAVEDBY
  1
ezdxf
  9
$REQUIREDVERSIONS
160
0
  9
$INSBASE
 10
0.0
 20
0.0
 30
0.0
  9
$EXTMIN
 10
1e+20
 20
1e+20
 30
1e+20
  9
$EXTMAX
 10
-1e+20
 20
-1e+20
 30
-1e+20
  9
$LIMMIN
 10
0.0
 20
0.0
  9
$LIMMAX
 10
420.0
 20
297.0
  9
$ORTHOMODE
 70
0
  9
$REGENMODE
 70
1
  9
$FILLMODE
 70
1
  9
$QTEXTMODE
 70
0
  9
$MIRRTEXT
 70
1
  9
$LTSCALE
 40
1.0
  9
$ATTMODE
 70
1
  9
$TEXTSIZE
 40
2.5
  9
$TRACEWID
 40
1.0
  9
$TEXTSTYLE
  7
OpenSans
  9
$CLAYER
  8
0
  9
$CELTYPE
  6
ByLayer
  9
$CECOLOR
 62
256
  9
$CELTSCALE
 40
1.0
  9
$DISPSILH
 70
0
  9
$DIMSCALE
 40
1.0
  9
$DIMASZ
 40
0.175
  9
$DIMEXO
 40
0.125
  9
$DIMDLI
 40
3.75
  9
$DIMRND
 40
0.0
  9
$DIMDLE
 40
0.0
  9
$DIMEXE
 40
0.375
  9
$DIMTP
 40
0.0
  9
$DIMTM
 40
0.0
  9
$DIMTXT
 40
0.25
  9
$DIMCEN
 40
2.5
  9
$DIMTSZ
 40
0.0
  9
$DIMTOL
 70
0
  9
$DIMLIM
 70
0
  9
$DIMTIH
 70
0
  9
$DIMTOH
 70
0
  9
$DIMSE1
 70
0
  9
$DIMSE2
 70
0
  9
$DIMTAD
 70
1
  9
$DIMZIN
 70
12
  9
$DIMBLK
  1
ARCHTICK
  9
$DIMASO
 70
1
  9
$DIMSHO
 70
1
  9
$DIMPOST
  1

  9
$DIMAPOST
  1

  9
$DIMALT
 70
0
  9
$DIMALTD
 70
3
  9
$DIMALTF
 40
0.03937007874
  9
$DIMLFAC
 40
100.0
  9
$DIMTOFL
 70
1
  9
$DIMTVP
 40
0.0
  9
$DIMTIX
 70
0
  9
$DIMSOXD
 70
0
  9
$DIMSAH
 70
0
  9
$DIMBLK1
  1

  9
$DIMBLK2
  1

  9
$DIMSTYLE
  2
EZDXF
  9
$DIMCLRD
 70
0
  9
$DIMCLRE
 70
0
  9
$DIMCLRT
 70
0
  9
$DIMTFAC
 40
0.5
  9
$DIMGAP
 40
0.1
  9
$DIMJUST
 70
0
  9
$DIMSD1
 70
0
  9
$DIMSD2
 70
0
  9
$DIMTOLJ
 70
0
  9
$DIMTZIN
 70
8
  9
$DIMALTZ
 70
0
  9
$DIMALTTZ
 70
0
  9
$DIMUPT
 70
1
  9
$DIMDEC
 70
2
  9
$DIMTDEC
 70
2
  9
$DIMALTU
 70
2
  9
$DIMALTTD
 70
3
  9
$DIMTXSTY
  7
OpenSansCondensed-Light
  9
$DIMAUNIT
 70
0
  9
$DIMADEC
 70
2
  9
$DIMALTRND
 40
0.0
  9
$DIMAZIN
 70
3
  9
$DIMDSEP
 70
46
  9
$DIMATFIT
 70
3
  9
$DIMFRAC
 70
0
  9
$DIMLDRBLK
  1

  9
$DIMLUNIT
 70
2
  9
$DIMLWD
 70
-2
  9
$DIMLWE
 70
-2
  9
$DIMTMOVE
 70
2
  9
$DIMFXL
 40
1.0
  9
$DIMFXLON
 70
0
  9
$DIMJOGANG
 40
0.785398163397
  9
$DIMTFILL
 70
0
  9
$DIMTFILLCLR
 70
0
  9
$DIMARCSYM
 70
0
  9
$DIMLTYPE
  6

  9
$DIMLTEX1
  6

  9
$DIMLTEX2
  6

  9
$DIMTXTDIRECTION
 70
0
  9
$LUNITS
 70
2
  9
$LUPREC
 70
4
  9
$SKETCHINC
 40
1.0
  9
$FILLETRAD
 40
10.0
  9
$AUNITS
 70
0
  9
$AUPREC
 70
2
  9
$MENU
  1
.
  9
$ELEVATION
 40
0.0
  9
$PELEVATION
 40
0.0
  9
$THICKNESS
 40
0.0
  9
$LIMCHECK
 70
0
  9
$CHAMFERA
 40
0.0
  9
$CHAMFERB
 40
0.0
  9
$CHAMFERC
 40
0.0
  9
$CHAMFERD
 40
0.0
  9
$SKPOLY
 70
0
  9
$TDCREATE
 40
2461281.7497222223
  9
$TDUCREATE
 40
2458532.153996898
  9
$TDUPDATE
 40
2461281.7497222223
  9
$TDUUPDATE
 40
2458532.1544311
  9
$TDINDWG
 40
0.0
  9
$TDUSRTIMER
 40
0.0
  9
$USRTIMER
 70
1
  9
$ANGBASE
 50
0.0
  9
$ANGDIR
 70
0
  9
$PDMODE
 70
0
  9
$PDSIZE
 40
0.0
  9
$PLINEWID
 40
0.0
  9
$SPLFRAME
 70
0
  9
$SPLINETYPE
 70
6
  9
$SPLINESEGS
 70
8
  9
$HANDSEED
  5
396
  9
$SURFTAB1
 70
6
  9
$SURFTAB2
 70
6
  9
$SURFTYPE
 70
6
  9
$SURFU
 70
6
  9
$SURFV
 70
6
  9
$UCSBASE
  2

  9
$UCSNAME
  2

  9
$UCSORG
 10
0.0
 20
0.0
 30
0.0
  9
$UCSXDIR
 10
1.0
 20
0.0
 30
0.0
  9
$UCSYDIR
 10
0.0
 20
1.0
 30
0.0
  9
$UCSORTHOREF
  2

  9
$UCSORTHOVIEW
 70
0
  9
$UCSORGTOP
 10
0.0
 20
0.0
 30
0.0
  9
$UCSORGBOTTOM
 10
0.0
 20
0.0
 30
0.0
  9
$UCSORGLEFT
 10
0.0
 20
0.0
 30
0.0
  9
$UCSORGRIGHT
 10
0.0
 20
0.0
 30
0.0
  9
$UCSORGFRONT
 10
0.0
 20
0.0
 30
0.0
  9
$UCSORGBACK
 10
0.0
 20
0.0
 30
0.0
  9
$PUCSBASE
  2

  9
$PUCSNAME
  2

  9
$PUCSORG
 10
0.0
 20
0.0
 30
0.0
  9
$PUCSXDIR
 10
1.0
 20
0.0
 30
0.0
  9
$PUCSYDIR
 10
0.0
 20
1.0
 30
0.0
  9
$PUCSORTHOREF
  2

  9
$PUCSORTHOVIEW
 70
0
  9
$PUCSORGTOP
 10
0.0
 20
0.0
 30
0.0
  9
$PUCSORGBOTTOM
 10
0.0
 20
0.0
 30
0.0
  9
$PUCSORGLEFT
 10
0.0
 20
0.0
 30
0.0
  9
$PUCSORGRIGHT
 10
0.0
 20
0.0
 30
0.0
  9
$PUCSORGFRONT
 10
0.0
 20
0.0
 30
0.0
  9
$PUCSORGBACK
 10
0.0
 20
0.0
 30
0.0
  9
$USERI1
 70
0
  9
$USERI2
 70
0
  9
$USERI3
 70
0
  9
$USERI4
 70
0
  9
$USERI5
 70
0
  9
$USERR1
 40
0.0
  9
$USERR2
 40
0.0
  9
$USERR3
 40
0.0
  9
$USERR4
 40
0.0
  9
$USERR5
 40
0.0
  9
$WORLDVIEW
 70
1
  9
$SHADEDGE
 70
3
  9
$SHADEDIF
 70
70
  9
$TILEMODE
 70
1
  9
$MAXACTVP
 70
64
  9
$PINSBASE
 10
0.0
 20
0.0
 30
0.0
  9
$PLIMCHECK
 70
0
  9
$PEXTMIN
 10
1e+20
 20
1e+20
 30
1e+20
  9
$PEXTMAX
 10
-1e+20
 20
-1e+20
 30
-1e+20
  9
$PLIMMIN
 10
-0.0
 20
-0.0
  9
$PLIMMAX
 10
594.0
 20
420.0
  9
$UNITMODE
 70
0
  9
$VISRETAIN
 70
1
  9
$PLINEGEN
 70
0
  9
$PSLTSCALE
 70
1
  9
$TREEDEPTH
 70
3020
  9
$CMLSTYLE
  2
Standard
  9
$CMLJUST
 70
0
  9
$CMLSCALE
 40
20.0
  9
$PROXYGRAPHICS
 70
1
  9
$MEASUREMENT
 70
1
  9
$CELWEIGHT
370
-1
  9
$ENDCAPS
280
0
  9
$JOINSTYLE
280
0
  9
$LWDISPLAY
290
0
  9
$INSUNITS
 70
4
  9
$HYPERLINKBASE
  1

  9
$STYLESHEET
  1

  9
$XEDIT
290
1
  9
$CEPSNTYPE
380
0
  9
$PSTYLEMODE
290
1
  9
$FINGERPRINTGUID
  2
{4F6D2690-DEE3-4EF6-B2E1-27E5BCDEC862}
  9
$VERSIONGUID
  2
{60D635EF-732D-43A7-8499-4563ED529A3A}
  9
$EXTNAMES
290
1
  9
$PSVPSCALE
 40
0.0
  9
$OLESTARTUP
290
0
  9
$SORTENTS
280
127
  9
$INDEXCTL
280
0
  9
$HIDETEXT
280
1
  9
$XCLIPFRAME
280
1
  9
$HALOGAP
280
0
  9
$OBSCOLOR
 70
257
  9
$OBSLTYPE
280
0
  9
$INTERSECTIONDISPLAY
280
0
  9
$INTERSECTIONCOLOR
 70
257
  9
$DIMASSOC
280
2
  9
$PROJECTNAME
  1

  9
$CAMERADISPLAY
290
0
  9
$LENSLENGTH
 40
50.0
  9
$CAMERAHEIGHT
 40
0.0
  9
$STEPSPERSEC
 40
24.0
  9
$STEPSIZE
 40
100.0
  9
$3DDWFPREC
 40
2.0
  9
$PSOLWIDTH
 40
0.005
  9
$PSOLHEIGHT
 40
0.08
  9
$LOFTANG1
 40
1.570796326795
  9
$LOFTANG2
 40
1.570796326795
  9
$LOFTMAG1
 40
0.0
  9
$LOFTMAG2
 40
0.0
  9
$LOFTPARAM
 70
7
  9
$LOFTNORMALS
280
1
  9
$LATITUDE
 40
37.795
  9
$LONGITUDE
 40
-122.394
  9
$NORTHDIRECTION
 40
0.0
  9
$TIMEZONE
 70
-8000
  9
$LIGHTGLYPHDISPLAY
280
1
  9
$TILEMODELIGHTSYNCH
280
1
  9
$CMATERIAL
347
20
  9
$SOLIDHIST
280
0
  9
$SHOWHIST
280
1
  9
$DWFFRAME
280
2
  9
$DGNFRAME
280
2
  9
$REALWORLDSCALE
290
1
  9
$INTERFERECOLOR
 62
256
  9
$CSHADOW
280
0
  9
$SHADOWPLANELOCATION
 40
0.0
  0
ENDSEC
  0
SECTION
  2
CLASSES
  0
CLASS
  1
ACDBDICTIONARYWDFLT
  2
AcDbDictionaryWithDefault
  3
ObjectDBX Classes
 90
0
 91
0
280
0
281
0
  0
CLASS
  1
SUN
  2
AcDbSun
  3
SCENEOE
 90
1153
 91
0
280
0
281
0
  0
CLASS
  1
VISUALSTYLE
  2
AcDbVisualStyle
  3
ObjectDBX Classes
 90
4095
 91
0
280
0
281
0
  0
CLASS
  1
MATERIAL
  2
AcDbMaterial
  3
ObjectDBX Classes
 90
1153
 91
0
280
0
281
0
  0
CLASS
  1
SCALE
  2
AcDbScale
  3
ObjectDBX Classes
 90
1153
 91
0
280
0
281
0
  0
CLASS
  1
TABLESTYLE
  2
AcDbTableStyle
  3
ObjectDBX Classes
 90
4095
 91
0
280
0
281
0
  0
CLASS
  1
MLEADERSTYLE
  2
AcDbMLeaderStyle
  3
ACDB_MLEADERSTYLE_CLASS
 90
4095
 91
0
280
0
281
0
  0
CLASS
  1
DICTIONARYVAR
  2
AcDbDictionaryVar
  3
ObjectDBX Classes
 90
0
 91
0
280
0
281
0
  0
CLASS
  1
CELLSTYLEMAP
  2
AcDbCellStyleMap
  3
ObjectDBX Classes
 90
1152
 91
0
280
0
281
0
  0
CLASS
  1
MENTALRAYRENDERSETTINGS
  2
AcDbMentalRayRenderSettings
  3
SCENEOE
 90
1024
 91
0
280
0
281
0
  0
CLASS
  1
ACDBDETAILVIEWSTYLE
  2
AcDbDetailViewStyle
  3
ObjectDBX Classes
 90
1025
 91
0
280
0
281
0
  0
CLASS
  1
ACDBSECTIONVIEWSTYLE
  2
AcDbSectionViewStyle
  3
ObjectDBX Classes
 90
1025
 91
0
280
0
281
0
  0
CLASS
  1
RASTERVARIABLES
  2
AcDbRasterVariables
  3
ISM
 90
0
 91
0
280
0
281
0
  0
CLASS
  1
ACDBPLACEHOLDER
  2
AcDbPlaceHolder
  3
ObjectDBX Classes
 90
0
 91
0
280
0
281
0
  0
CLASS
  1
LAYOUT
  2
AcDbLayout
  3
ObjectDBX Classes
 90
0
 91
0
280
0
281
0
  0
ENDSEC
  0
SECTION
  2
TABLES
  0
TABLE
  2
VPORT
  5
8
330
0
100
AcDbSymbolTable
 70
1
  0
VPORT
  5
392
330
8
100
AcDbSymbolTableRecord
100
AcDbViewportTableRecord
  2
*Active
 70
0
 10
0.0
 20
0.0
 11
1.0
 21
1.0
 12
9300.0
 22
7800.0
 13
0.0
 23
0.0
 14
0.5
 24
0.5
 15
0.5
 25
0.5
 16
0.0
 26
0.0
 36
1.0
 17
0.0
 27
0.0
 37
0.0
 40
27160.000000000004
 41
1.34
 42
50.0
 43
0.0
 44
0.0
 50
0.0
 51
0.0
 71
0
 72
1000
 73
1
 74
3
 75
0
 76
0
 77
0
 78
0
281
0
 65
1
110
0.0
120
0.0
130
0.0
111
1.0
121
0.0
131
0.0
112
0.0
122
1.0
132
0.0
 79
0
146
0.0
  0
ENDTAB
  0
TABLE
  2
LTYPE
  5
2
330
0
100
AcDbSymbolTable
 70
21
  0
LTYPE
  5
24
330
2
100
AcDbSymbolTableRecord
100
AcDbLinetypeTableRecord
  2
ByBlock
 70
0
  3

 72
65
 73
0
 40
0.0
  0
LTYPE
  5
25
330
2
100
AcDbSymbolTableRecord
100
AcDbLinetypeTableRecord
  2
ByLayer
 70
0
  3

 72
65
 73
0
 40
0.0
  0
LTYPE
  5
26
330
2
100
AcDbSymbolTableRecord
100
AcDbLinetypeTableRecord
  2
Continuous
 70
0
  3

 72
65
 73
0
 40
0.0
  0
LTYPE
  5
2F
330
2
100
AcDbSymbolTableRecord
100
AcDbLinetypeTableRecord
  2
CENTER
 70
0
  3
Center ____ _ ____ _ ____ _ ____ _ ____ _ ____
 72
65
 73
4
 40
5.08
 49
3.175
 74
0
 49
-0.635
 74
0
 49
0.635
 74
0
 49
-0.635
 74
0
  0
LTYPE
  5
30
330
2
100
AcDbSymbolTableRecord
100
AcDbLinetypeTableRecord
  2
CENTERX2
 70
0
  3
Center (2x) ________  __  ________  __  ________
 72
65
 73
4
 40
8.89
 49
6.35
 74
0
 49
-0.635
 74
0
 49
1.27
 74
0
 49
-0.635
 74
0
  0
LTYPE
  5
31
330
2
100
AcDbSymbolTableRecord
100
AcDbLinetypeTableRecord
  2
CENTER2
 70
0
  3
Center (.5x) ____ _ ____ _ ____ _ ____ _ ____
 72
65
 73
4
 40
2.54
 49
1.587
 74
0
 49
-0.318
 74
0
 49
0.318
 74
0
 49
-0.318
 74
0
  0
LTYPE
  5
32
330
2
100
AcDbSymbolTableRecord
100
AcDbLinetypeTableRecord
  2
DASHED
 70
0
  3
Dashed __ __ __ __ __ __ __ __ __ __ __ __ __ _
 72
65
 73
2
 40
1.524
 49
1.27
 74
0
 49
-0.254
 74
0
  0
LTYPE
  5
33
330
2
100
AcDbSymbolTableRecord
100
AcDbLinetypeTableRecord
  2
DASHEDX2
 70
0
  3
Dashed (2x) ____  ____  ____  ____  ____  ____
 72
65
 73
2
 40
3.048
 49
2.54
 74
0
 49
-0.508
 74
0
  0
LTYPE
  5
34
330
2
100
AcDbSymbolTableRecord
100
AcDbLinetypeTableRecord
  2
DASHED2
 70
0
  3
Dashed (.5x) _ _ _ _ _ _ _ _ _ _ _ _ _ _
 72
65
 73
2
 40
0.762
 49
0.635
 74
0
 49
-0.127
 74
0
  0
LTYPE
  5
35
330
2
100
AcDbSymbolTableRecord
100
AcDbLinetypeTableRecord
  2
PHANTOM
 70
0
  3
Phantom ______  __  __  ______  __  __  ______
 72
65
 73
6
 40
6.35
 49
3.175
 74
0
 49
-0.635
 74
0
 49
0.635
 74
0
 49
-0.635
 74
0
 49
0.635
 74
0
 49
-0.635
 74
0
  0
LTYPE
  5
36
330
2
100
AcDbSymbolTableRecord
100
AcDbLinetypeTableRecord
  2
PHANTOMX2
 70
0
  3
Phantom (2x)____________    ____    ____    ____________
 72
65
 73
6
 40
10.795
 49
6.35
 74
0
 49
-0.635
 74
0
 49
1.27
 74
0
 49
-0.635
 74
0
 49
1.27
 74
0
 49
-0.635
 74
0
  0
LTYPE
  5
37
330
2
100
AcDbSymbolTableRecord
100
AcDbLinetypeTableRecord
  2
PHANTOM2
 70
0
  3
Phantom (.5x) ___ _ _ ___ _ _ ___ _ _ ___ _ _ ___
 72
65
 73
6
 40
3.175
 49
1.587
 74
0
 49
-0.318
 74
0
 49
0.318
 74
0
 49
-0.318
 74
0
 49
0.318
 74
0
 49
-0.318
 74
0
  0
LTYPE
  5
38
330
2
100
AcDbSymbolTableRecord
100
AcDbLinetypeTableRecord
  2
DASHDOT
 70
0
  3
Dash dot __ . __ . __ . __ . __ . __ . __ . __
 72
65
 73
4
 40
3.556
 49
2.54
 74
0
 49
-0.508
 74
0
 49
0.0
 74
0
 49
-0.508
 74
0
  0
LTYPE
  5
39
330
2
100
AcDbSymbolTableRecord
100
AcDbLinetypeTableRecord
  2
DASHDOTX2
 70
0
  3
Dash dot (2x) ____  .  ____  .  ____  .  ____
 72
65
 73
4
 40
6.096
 49
5.08
 74
0
 49
-0.508
 74
0
 49
0.0
 74
0
 49
-0.508
 74
0
  0
LTYPE
  5
3A
330
2
100
AcDbSymbolTableRecord
100
AcDbLinetypeTableRecord
  2
DASHDOT2
 70
0
  3
Dash dot (.5x) _ . _ . _ . _ . _ . _ . _ . _
 72
65
 73
4
 40
1.778
 49
1.27
 74
0
 49
-0.254
 74
0
 49
0.0
 74
0
 49
-0.254
 74
0
  0
LTYPE
  5
3B
330
2
100
AcDbSymbolTableRecord
100
AcDbLinetypeTableRecord
  2
DOT
 70
0
  3
Dot .  .  .  .  .  .  .  .  .  .  .  .  .  .  .  .
 72
65
 73
2
 40
0.508
 49
0.0
 74
0
 49
-0.508
 74
0
  0
LTYPE
  5
3C
330
2
100
AcDbSymbolTableRecord
100
AcDbLinetypeTableRecord
  2
DOTX2
 70
0
  3
Dot (2x) .    .    .    .    .    .    .    . 
 72
65
 73
2
 40
1.016
 49
0.0
 74
0
 49
-1.016
 74
0
  0
LTYPE
  5
3D
330
2
100
AcDbSymbolTableRecord
100
AcDbLinetypeTableRecord
  2
DOT2
 70
0
  3
Dot (.5) . . . . . . . . . . . . . . . . . . . 
 72
65
 73
2
 40
0.254
 49
0.0
 74
0
 49
-0.254
 74
0
  0
LTYPE
  5
3E
330
2
100
AcDbSymbolTableRecord
100
AcDbLinetypeTableRecord
  2
DIVIDE
 70
0
  3
Divide __ . . __ . . __ . . __ . . __ . . __
 72
65
 73
6
 40
4.064
 49
2.54
 74
0
 49
-0.508
 74
0
 49
0.0
 74
0
 49
-0.508
 74
0
 49
0.0
 74
0
 49
-0.508
 74
0
  0
LTYPE
  5
3F
330
2
100
AcDbSymbolTableRecord
100
AcDbLinetypeTableRecord
  2
DIVIDEX2
 70
0
  3
Divide (2x) ____  . .  ____  . .  ____  . .  ____
 72
65
 73
6
 40
6.604
 49
5.08
 74
0
 49
-0.508
 74
0
 49
0.0
 74
0
 49
-0.508
 74
0
 49
0.0
 74
0
 49
-0.508
 74
0
  0
LTYPE
  5
40
330
2
100
AcDbSymbolTableRecord
100
AcDbLinetypeTableRecord
  2
DIVIDE2
 70
0
  3
Divide(.5x) _ . _ . _ . _ . _ . _ . _ . _
 72
65
 73
6
 40
2.032
 49
1.27
 74
0
 49
-0.254
 74
0
 49
0.0
 74
0
 49
-0.254
 74
0
 49
0.0
 74
0
 49
-0.254
 74
0
  0
ENDTAB
  0
TABLE
  2
LAYER
  5
1
330
0
100
AcDbSymbolTable
 70
25
  0
LAYER
  5
27
330
1
100
AcDbSymbolTableRecord
100
AcDbLayerTableRecord
  2
0
 70
0
 62
7
  6
Continuous
370
-3
390
13
347
21
  0
LAYER
  5
28
330
1
100
AcDbSymbolTableRecord
100
AcDbLayerTableRecord
  2
Defpoints
 70
0
 62
7
  6
Continuous
290
0
370
-3
390
13
347
21
  0
LAYER
  5
8C
330
1
100
AcDbSymbolTableRecord
100
AcDbLayerTableRecord
  2
A-GRID
 70
0
 62
8
  6
CENTER2
370
13
390
13
347
21
  0
LAYER
  5
8D
330
1
100
AcDbSymbolTableRecord
100
AcDbLayerTableRecord
  2
A-WALL-RC
 70
0
 62
7
  6
CONTINUOUS
370
50
390
13
347
21
  0
LAYER
  5
8E
330
1
100
AcDbSymbolTableRecord
100
AcDbLayerTableRecord
  2
A-WALL-BLOCK
 70
0
 62
9
  6
CONTINUOUS
370
50
390
13
347
21
  0
LAYER
  5
8F
330
1
100
AcDbSymbolTableRecord
100
AcDbLayerTableRecord
  2
A-WALL-GLASS
 70
0
 62
4
  6
CONTINUOUS
370
25
390
13
347
21
  0
LAYER
  5
90
330
1
100
AcDbSymbolTableRecord
100
AcDbLayerTableRecord
  2
A-GLAZ-RIBBON
 70
0
 62
5
  6
CONTINUOUS
370
25
390
13
347
21
  0
LAYER
  5
91
330
1
100
AcDbSymbolTableRecord
100
AcDbLayerTableRecord
  2
A-FACADE-PANEL
 70
0
 62
8
  6
CONTINUOUS
370
25
390
13
347
21
  0
LAYER
  5
92
330
1
100
AcDbSymbolTableRecord
100
AcDbLayerTableRecord
  2
A-OUTLINE
 70
0
 62
7
  6
CONTINUOUS
370
50
390
13
347
21
  0
LAYER
  5
93
330
1
100
AcDbSymbolTableRecord
100
AcDbLayerTableRecord
  2
A-DOOR
 70
0
 62
3
  6
CONTINUOUS
370
25
390
13
347
21
  0
LAYER
  5
94
330
1
100
AcDbSymbolTableRecord
100
AcDbLayerTableRecord
  2
A-FURN
 70
0
 62
8
  6
CONTINUOUS
370
18
390
13
347
21
  0
LAYER
  5
95
330
1
100
AcDbSymbolTableRecord
100
AcDbLayerTableRecord
  2
A-SANI
 70
0
 62
8
  6
CONTINUOUS
370
18
390
13
347
21
  0
LAYER
  5
96
330
1
100
AcDbSymbolTableRecord
100
AcDbLayerTableRecord
  2
A-STAIR
 70
0
 62
7
  6
CONTINUOUS
370
25
390
13
347
21
  0
LAYER
  5
97
330
1
100
AcDbSymbolTableRecord
100
AcDbLayerTableRecord
  2
A-ELEV
 70
0
 62
7
  6
CONTINUOUS
370
25
390
13
347
21
  0
LAYER
  5
98
330
1
100
AcDbSymbolTableRecord
100
AcDbLayerTableRecord
  2
E-SCS-RISER
 70
0
 62
1
  6
CONTINUOUS
370
50
390
13
347
21
  0
LAYER
  5
99
330
1
100
AcDbSymbolTableRecord
100
AcDbLayerTableRecord
  2
E-SERVER-ROOM
 70
0
 62
1
  6
CONTINUOUS
370
50
390
13
347
21
  0
LAYER
  5
9A
330
1
100
AcDbSymbolTableRecord
100
AcDbLayerTableRecord
  2
A-DIMS
 70
0
 62
8
  6
CONTINUOUS
370
13
390
13
347
21
  0
LAYER
  5
9B
330
1
100
AcDbSymbolTableRecord
100
AcDbLayerTableRecord
  2
A-ANNO-ROOM
 70
0
 62
7
  6
CONTINUOUS
370
18
390
13
347
21
  0
LAYER
  5
9C
330
1
100
AcDbSymbolTableRecord
100
AcDbLayerTableRecord
  2
A-HATCH
 70
0
 62
9
  6
CONTINUOUS
370
9
390
13
347
21
  0
LAYER
  5
9D
330
1
100
AcDbSymbolTableRecord
100
AcDbLayerTableRecord
  2
A-ANNO-TABLE
 70
0
 62
7
  6
CONTINUOUS
370
18
390
13
347
21
  0
LAYER
  5
9E
330
1
100
AcDbSymbolTableRecord
100
AcDbLayerTableRecord
  2
A-ANNO-LEGEND
 70
0
 62
7
  6
CONTINUOUS
370
18
390
13
347
21
  0
LAYER
  5
9F
330
1
100
AcDbSymbolTableRecord
100
AcDbLayerTableRecord
  2
A-ANNO-NOTES
 70
0
 62
8
  6
CONTINUOUS
370
13
390
13
347
21
  0
LAYER
  5
A0
330
1
100
AcDbSymbolTableRecord
100
AcDbLayerTableRecord
  2
A-TITLE
 70
0
 62
7
  6
CONTINUOUS
370
35
390
13
347
21
  0
LAYER
  5
A1
330
1
100
AcDbSymbolTableRecord
100
AcDbLayerTableRecord
  2
A-VIEWPORT
 70
0
 62
8
  6
CONTINUOUS
370
9
390
13
347
21
  0
LAYER
  5
A2
330
1
100
AcDbSymbolTableRecord
100
AcDbLayerTableRecord
  2
VIEWPORTS
 70
0
 62
8
  6
CONTINUOUS
370
9
390
13
347
21
  0
ENDTAB
  0
TABLE
  2
STYLE
  5
5
330
0
100
AcDbSymbolTable
 70
28
  0
STYLE
  5
29
330
5
100
AcDbSymbolTableRecord
100
AcDbTextStyleTableRecord
  2
Standard
 70
0
 40
0.0
 41
1.0
 50
0.0
 71
0
 42
2.5
  3
arial.ttf
  4

1001
ACAD
1000
Arial
1071
34
  0
STYLE
  5
41
330
5
100
AcDbSymbolTableRecord
100
AcDbTextStyleTableRecord
  2
OpenSans-Light
 70
0
 40
0.0
 41
1.0
 50
0.0
 71
0
 42
2.5
  3
OpenSans-Light.ttf
  4

  0
STYLE
  5
42
330
5
100
AcDbSymbolTableRecord
100
AcDbTextStyleTableRecord
  2
OpenSans-Light-Italic
 70
0
 40
0.0
 41
1.0
 50
0.0
 71
0
 42
2.5
  3
OpenSans-LightItalic.ttf
  4

  0
STYLE
  5
43
330
5
100
AcDbSymbolTableRecord
100
AcDbTextStyleTableRecord
  2
OpenSans
 70
0
 40
0.0
 41
1.0
 50
0.0
 71
0
 42
2.5
  3
OpenSans-Regular.ttf
  4

  0
STYLE
  5
44
330
5
100
AcDbSymbolTableRecord
100
AcDbTextStyleTableRecord
  2
OpenSans-Italic
 70
0
 40
0.0
 41
1.0
 50
0.0
 71
0
 42
2.5
  3
OpenSans-Italic.ttf
  4

  0
STYLE
  5
45
330
5
100
AcDbSymbolTableRecord
100
AcDbTextStyleTableRecord
  2
OpenSans-SemiBold
 70
0
 40
0.0
 41
1.0
 50
0.0
 71
0
 42
2.5
  3
OpenSans-SemiBold.ttf
  4

  0
STYLE
  5
46
330
5
100
AcDbSymbolTableRecord
100
AcDbTextStyleTableRecord
  2
OpenSans-SemiBoldItalic
 70
0
 40
0.0
 41
1.0
 50
0.0
 71
0
 42
2.5
  3
OpenSans-SemiBoldItalic.ttf
  4

  0
STYLE
  5
47
330
5
100
AcDbSymbolTableRecord
100
AcDbTextStyleTableRecord
  2
OpenSans-Bold
 70
0
 40
0.0
 41
1.0
 50
0.0
 71
0
 42
2.5
  3
OpenSans-Bold.ttf
  4

  0
STYLE
  5
48
330
5
100
AcDbSymbolTableRecord
100
AcDbTextStyleTableRecord
  2
OpenSans-BoldItalic
 70
0
 40
0.0
 41
1.0
 50
0.0
 71
0
 42
2.5
  3
OpenSans-BoldItalic.ttf
  4

  0
STYLE
  5
49
330
5
100
AcDbSymbolTableRecord
100
AcDbTextStyleTableRecord
  2
OpenSans-ExtraBold
 70
0
 40
0.0
 41
1.0
 50
0.0
 71
0
 42
2.5
  3
OpenSans-ExtraBold.ttf
  4

  0
STYLE
  5
4A
330
5
100
AcDbSymbolTableRecord
100
AcDbTextStyleTableRecord
  2
OpenSans-ExtraBoldItalic
 70
0
 40
0.0
 41
1.0
 50
0.0
 71
0
 42
2.5
  3
OpenSans-ExtraBoldItalic.ttf
  4

  0
STYLE
  5
4B
330
5
100
AcDbSymbolTableRecord
100
AcDbTextStyleTableRecord
  2
OpenSansCondensed-Bold
 70
0
 40
0.0
 41
1.0
 50
0.0
 71
0
 42
2.5
  3
OpenSansCondensed-Bold.ttf
  4

  0
STYLE
  5
4C
330
5
100
AcDbSymbolTableRecord
100
AcDbTextStyleTableRecord
  2
OpenSansCondensed-Light
 70
0
 40
0.0
 41
1.0
 50
0.0
 71
0
 42
2.5
  3
OpenSansCondensed-Light.ttf
  4

  0
STYLE
  5
4D
330
5
100
AcDbSymbolTableRecord
100
AcDbTextStyleTableRecord
  2
OpenSansCondensed-Italic
 70
0
 40
0.0
 41
1.0
 50
0.0
 71
0
 42
2.5
  3
OpenSansCondensed-LightItalic.ttf
  4

  0
STYLE
  5
4E
330
5
100
AcDbSymbolTableRecord
100
AcDbTextStyleTableRecord
  2
LiberationSans
 70
0
 40
0.0
 41
1.0
 50
0.0
 71
0
 42
2.5
  3
LiberationSans-Regular.ttf
  4

  0
STYLE
  5
4F
330
5
100
AcDbSymbolTableRecord
100
AcDbTextStyleTableRecord
  2
LiberationSans-Bold
 70
0
 40
0.0
 41
1.0
 50
0.0
 71
0
 42
2.5
  3
LiberationSans-Bold.ttf
  4

  0
STYLE
  5
50
330
5
100
AcDbSymbolTableRecord
100
AcDbTextStyleTableRecord
  2
LiberationSans-BoldItalic
 70
0
 40
0.0
 41
1.0
 50
0.0
 71
0
 42
2.5
  3
LiberationSans-BoldItalic.ttf
  4

  0
STYLE
  5
51
330
5
100
AcDbSymbolTableRecord
100
AcDbTextStyleTableRecord
  2
LiberationSans-Italic
 70
0
 40
0.0
 41
1.0
 50
0.0
 71
0
 42
2.5
  3
LiberationSans-Italic.ttf
  4

  0
STYLE
  5
52
330
5
100
AcDbSymbolTableRecord
100
AcDbTextStyleTableRecord
  2
LiberationSerif
 70
0
 40
0.0
 41
1.0
 50
0.0
 71
0
 42
2.5
  3
LiberationSerif-Regular.ttf
  4

  0
STYLE
  5
53
330
5
100
AcDbSymbolTableRecord
100
AcDbTextStyleTableRecord
  2
LiberationSerif-Bold
 70
0
 40
0.0
 41
1.0
 50
0.0
 71
0
 42
2.5
  3
LiberationSerif-Bold.ttf
  4

  0
STYLE
  5
54
330
5
100
AcDbSymbolTableRecord
100
AcDbTextStyleTableRecord
  2
LiberationSerif-BoldItalic
 70
0
 40
0.0
 41
1.0
 50
0.0
 71
0
 42
2.5
  3
LiberationSerif-BoldItalic.ttf
  4

  0
STYLE
  5
55
330
5
100
AcDbSymbolTableRecord
100
AcDbTextStyleTableRecord
  2
LiberationSerif-Italic
 70
0
 40
0.0
 41
1.0
 50
0.0
 71
0
 42
2.5
  3
LiberationSerif-Italic.ttf
  4

  0
STYLE
  5
56
330
5
100
AcDbSymbolTableRecord
100
AcDbTextStyleTableRecord
  2
LiberationMono
 70
0
 40
0.0
 41
1.0
 50
0.0
 71
0
 42
2.5
  3
LiberationMono-Regular.ttf
  4

  0
STYLE
  5
57
330
5
100
AcDbSymbolTableRecord
100
AcDbTextStyleTableRecord
  2
LiberationMono-Bold
 70
0
 40
0.0
 41
1.0
 50
0.0
 71
0
 42
2.5
  3
LiberationMono-Bold.ttf
  4

  0
STYLE
  5
58
330
5
100
AcDbSymbolTableRecord
100
AcDbTextStyleTableRecord
  2
LiberationMono-BoldItalic
 70
0
 40
0.0
 41
1.0
 50
0.0
 71
0
 42
2.5
  3
LiberationMono-BoldItalic.ttf
  4

  0
STYLE
  5
59
330
5
100
AcDbSymbolTableRecord
100
AcDbTextStyleTableRecord
  2
LiberationMono-Italic
 70
0
 40
0.0
 41
1.0
 50
0.0
 71
0
 42
2.5
  3
LiberationMono-Italic.ttf
  4

  0
STYLE
  5
8A
330
5
100
AcDbSymbolTableRecord
100
AcDbTextStyleTableRecord
  2
Arial
 70
0
 40
0.0
 41
1.0
 50
0.0
 71
0
 42
2.5
  3
arial.ttf
  4

1001
ACAD
1000
Arial
1071
34
  0
STYLE
  5
8B
330
5
100
AcDbSymbolTableRecord
100
AcDbTextStyleTableRecord
  2
Arial-Bold
 70
0
 40
0.0
 41
1.0
 50
0.0
 71
0
 42
2.5
  3
arialbd.ttf
  4

1001
ACAD
1000
Arial
1071
33554466
  0
ENDTAB
  0
TABLE
  2
VIEW
  5
7
330
0
100
AcDbSymbolTable
 70
0
  0
ENDTAB
  0
TABLE
  2
UCS
  5
6
330
0
100
AcDbSymbolTable
 70
0
  0
ENDTAB
  0
TABLE
  2
APPID
  5
3
330
0
100
AcDbSymbolTable
 70
3
  0
APPID
  5
2A
330
3
100
AcDbSymbolTableRecord
100
AcDbRegAppTableRecord
  2
ACAD
 70
0
  0
APPID
  5
393
330
3
100
AcDbSymbolTableRecord
100
AcDbRegAppTableRecord
  2
HATCHBACKGROUNDCOLOR
 70
0
  0
APPID
  5
394
330
3
100
AcDbSymbolTableRecord
100
AcDbRegAppTableRecord
  2
EZDXF
 70
0
  0
ENDTAB
  0
TABLE
  2
DIMSTYLE
  5
4
330
0
100
AcDbSymbolTable
 70
12
100
AcDbDimStyleTable
  0
DIMSTYLE
105
2B
330
4
100
AcDbSymbolTableRecord
100
AcDbDimStyleTableRecord
  2
Standard
 70
0
 40
1.0
 41
2.5
 42
0.625
 43
3.75
 44
1.25
 45
0.0
 46
0.0
 47
0.0
 48
0.0
 49
2.5
140
2.5
141
2.5
142
0.0
143
0.03937007874
144
1.0
145
0.0
146
1.0
147
0.625
148
0.0
 69
0
 70
0
 71
0
 72
0
 73
0
 74
0
 75
0
 76
0
 77
1
 78
8
 79
3
170
0
171
3
172
1
173
0
174
0
175
0
176
0
177
0
178
0
179
2
271
2
272
2
273
2
274
3
275
0
276
0
277
2
278
44
279
0
280
0
281
0
282
0
283
0
284
8
285
0
286
0
288
0
289
3
290
0
371
-2
372
-2
  0
DIMSTYLE
105
73
330
4
100
AcDbSymbolTableRecord
100
AcDbDimStyleTableRecord
  2
EZDXF
 70
0
 40
1.0
 41
0.175
 42
0.125
 43
3.75
 44
0.375
 45
0.0
 46
0.0
 47
0.0
 48
0.0
 49
2.5
140
0.25
141
2.5
142
0.0
143
0.03937007874
144
100.0
145
0.0
146
0.5
147
0.1
148
0.0
 69
0
 70
0
 71
0
 72
0
 73
0
 74
0
 75
0
 76
0
 77
1
 78
12
 79
3
170
0
171
3
172
1
173
0
174
0
175
0
176
0
177
0
178
0
179
2
271
2
272
2
273
2
274
3
275
0
276
0
277
2
278
46
279
2
280
0
281
0
282
0
283
0
284
8
285
0
286
0
288
1
289
3
290
0
340
4C
342
74
371
-2
372
-2
  0
DIMSTYLE
105
7C
330
4
100
AcDbSymbolTableRecord
100
AcDbDimStyleTableRecord
  2
EZ_M_100_H25_CM
 70
0
 40
1.0
 41
0.25
 42
0.125
 43
3.75
 44
0.375
 45
0.0
 46
0.0
 47
0.0
 48
0.0
 49
2.5
140
0.25
141
2.5
142
0.125
143
0.03937007874
144
100.0
145
0.0
146
0.5
147
0.1
148
0.0
 69
0
 70
0
 71
0
 72
0
 73
0
 74
0
 75
0
 76
0
 77
1
 78
12
 79
3
170
0
171
3
172
1
173
0
174
0
175
0
176
0
177
0
178
0
179
2
271
2
272
2
273
2
274
3
275
0
276
0
277
2
278
46
279
2
280
0
281
0
282
0
283
0
284
8
285
0
286
0
288
1
289
3
290
0
340
4C
371
-2
372
-2
  0
DIMSTYLE
105
7D
330
4
100
AcDbSymbolTableRecord
100
AcDbDimStyleTableRecord
  2
EZ_M_50_H25_CM
 70
0
 40
1.0
 41
0.125
 42
0.0625
 43
3.75
 44
0.1875
 45
0.0
 46
0.0
 47
0.0
 48
0.0
 49
2.5
140
0.125
141
2.5
142
0.0625
143
0.03937007874
144
100.0
145
0.0
146
0.5
147
0.05
148
0.0
 69
0
 70
0
 71
0
 72
0
 73
0
 74
0
 75
0
 76
0
 77
1
 78
12
 79
3
170
0
171
3
172
1
173
0
174
0
175
0
176
0
177
0
178
0
179
2
271
2
272
2
273
2
274
3
275
0
276
0
277
2
278
46
279
2
280
0
281
0
282
0
283
0
284
8
285
0
286
0
288
1
289
3
290
0
340
4C
371
-2
372
-2
  0
DIMSTYLE
105
7E
330
4
100
AcDbSymbolTableRecord
100
AcDbDimStyleTableRecord
  2
EZ_M_25_H25_CM
 70
0
 40
1.0
 41
0.0625
 42
0.03125
 43
3.75
 44
0.09375
 45
0.0
 46
0.0
 47
0.0
 48
0.0
 49
2.5
140
0.0625
141
2.5
142
0.03125
143
0.03937007874
144
100.0
145
0.0
146
0.5
147
0.025
148
0.0
 69
0
 70
0
 71
0
 72
0
 73
0
 74
0
 75
0
 76
0
 77
1
 78
12
 79
3
170
0
171
3
172
1
173
0
174
0
175
0
176
0
177
0
178
0
179
2
271
2
272
2
273
2
274
3
275
0
276
0
277
2
278
46
279
2
280
0
281
0
282
0
283
0
284
8
285
0
286
0
288
1
289
3
290
0
340
4C
371
-2
372
-2
  0
DIMSTYLE
105
7F
330
4
100
AcDbSymbolTableRecord
100
AcDbDimStyleTableRecord
  2
EZ_M_20_H25_CM
 70
0
 40
1.0
 41
0.05
 42
0.025
 43
3.75
 44
0.07500000000000001
 45
0.0
 46
0.0
 47
0.0
 48
0.0
 49
2.5
140
0.05
141
2.5
142
0.025
143
0.03937007874
144
100.0
145
0.0
146
0.5
147
0.020000000000000004
148
0.0
 69
0
 70
0
 71
0
 72
0
 73
0
 74
0
 75
0
 76
0
 77
1
 78
12
 79
3
170
0
171
3
172
1
173
0
174
0
175
0
176
0
177
0
178
0
179
2
271
2
272
2
273
2
274
3
275
0
276
0
277
2
278
46
279
2
280
0
281
0
282
0
283
0
284
8
285
0
286
0
288
1
289
3
290
0
340
4C
371
-2
372
-2
  0
DIMSTYLE
105
80
330
4
100
AcDbSymbolTableRecord
100
AcDbDimStyleTableRecord
  2
EZ_M_10_H25_CM
 70
0
 40
1.0
 41
0.025
 42
0.0125
 43
3.75
 44
0.037500000000000006
 45
0.0
 46
0.0
 47
0.0
 48
0.0
 49
2.5
140
0.025
141
2.5
142
0.0125
143
0.03937007874
144
100.0
145
0.0
146
0.5
147
0.010000000000000002
148
0.0
 69
0
 70
0
 71
0
 72
0
 73
0
 74
0
 75
0
 76
0
 77
1
 78
12
 79
3
170
0
171
3
172
1
173
0
174
0
175
0
176
0
177
0
178
0
179
2
271
2
272
2
273
2
274
3
275
0
276
0
277
2
278
46
279
2
280
0
281
0
282
0
283
0
284
8
285
0
286
0
288
1
289
3
290
0
340
4C
371
-2
372
-2
  0
DIMSTYLE
105
81
330
4
100
AcDbSymbolTableRecord
100
AcDbDimStyleTableRecord
  2
EZ_M_5_H25_CM
 70
0
 40
1.0
 41
0.0125
 42
0.00625
 43
3.75
 44
0.018750000000000003
 45
0.0
 46
0.0
 47
0.0
 48
0.0
 49
2.5
140
0.0125
141
2.5
142
0.00625
143
0.03937007874
144
100.0
145
0.0
146
0.5
147
0.005000000000000001
148
0.0
 69
0
 70
0
 71
0
 72
0
 73
0
 74
0
 75
0
 76
0
 77
1
 78
12
 79
3
170
0
171
3
172
1
173
0
174
0
175
0
176
0
177
0
178
0
179
2
271
2
272
2
273
2
274
3
275
0
276
0
277
2
278
46
279
2
280
0
281
0
282
0
283
0
284
8
285
0
286
0
288
1
289
3
290
0
340
4C
371
-2
372
-2
  0
DIMSTYLE
105
82
330
4
100
AcDbSymbolTableRecord
100
AcDbDimStyleTableRecord
  2
EZ_M_1_H25_CM
 70
0
 40
1.0
 41
0.0025
 42
0.00125
 43
3.75
 44
0.00375
 45
0.0
 46
0.0
 47
0.0
 48
0.0
 49
2.5
140
0.0025
141
2.5
142
0.00125
143
0.03937007874
144
100.0
145
0.0
146
0.5
147
0.001
148
0.0
 69
0
 70
0
 71
0
 72
0
 73
0
 74
0
 75
0
 76
0
 77
1
 78
12
 79
3
170
0
171
3
172
1
173
0
174
0
175
0
176
0
177
0
178
0
179
2
271
2
272
2
273
2
274
3
275
0
276
0
277
2
278
46
279
2
280
0
281
0
282
0
283
0
284
8
285
0
286
0
288
1
289
3
290
0
340
4C
371
-2
372
-2
  0
DIMSTYLE
105
83
330
4
100
AcDbSymbolTableRecord
100
AcDbDimStyleTableRecord
  2
EZ_RADIUS
 70
0
 40
1.0
 41
0.25
 42
0.125
 43
3.75
 44
0.375
 45
0.0
 46
0.0
 47
0.0
 48
0.0
 49
2.5
140
0.25
141
0.0
142
0.0
143
0.03937007874
144
100.0
145
0.0
146
0.5
147
0.1
148
0.0
 69
0
 70
0
 71
0
 72
0
 73
0
 74
0
 75
0
 76
0
 77
1
 78
12
 79
3
170
0
171
3
172
0
173
0
174
0
175
0
176
0
177
0
178
0
179
2
271
2
272
2
273
2
274
3
275
0
276
0
277
2
278
46
279
1
280
0
281
0
282
0
283
0
284
8
285
0
286
0
288
1
289
3
290
0
340
4C
342
84
371
-2
372
-2
  0
DIMSTYLE
105
88
330
4
100
AcDbSymbolTableRecord
100
AcDbDimStyleTableRecord
  2
EZ_RADIUS_INSIDE
 70
0
 40
1.0
 41
0.25
 42
0.125
 43
3.75
 44
0.375
 45
0.0
 46
0.0
 47
0.0
 48
0.0
 49
2.5
140
0.25
141
0.0
142
0.0
143
0.03937007874
144
100.0
145
0.0
146
0.5
147
0.1
148
0.0
 69
0
 70
0
 71
0
 72
0
 73
0
 74
0
 75
0
 76
0
 77
0
 78
12
 79
3
170
0
171
3
172
0
173
0
174
1
175
0
176
0
177
0
178
0
179
2
271
2
272
2
273
2
274
3
275
0
276
0
277
2
278
46
279
0
280
0
281
0
282
0
283
0
284
8
285
0
286
0
288
1
289
0
290
0
340
4C
342
84
371
-2
372
-2
  0
DIMSTYLE
105
89
330
4
100
AcDbSymbolTableRecord
100
AcDbDimStyleTableRecord
  2
EZ_CURVED
 70
0
 40
1.0
 41
0.25
 42
0.125
 43
3.75
 44
0.375
 45
0.0
 46
0.0
 47
0.0
 48
0.0
 49
2.5
140
0.25
141
2.5
142
0.0
143
0.03937007874
144
100.0
145
0.0
146
0.5
147
0.1
148
0.0
 69
0
 70
0
 71
0
 72
0
 73
0
 74
0
 75
0
 76
0
 77
1
 78
12
 79
2
 90
2
170
0
171
3
172
1
173
0
174
0
175
0
176
0
177
0
178
0
179
2
271
2
272
2
273
2
274
3
275
0
276
0
277
2
278
46
279
2
280
0
281
0
282
0
283
0
284
8
285
0
286
0
288
1
289
3
290
0
340
4C
371
-2
372
-2
  0
ENDTAB
  0
TABLE
  2
BLOCK_RECORD
  5
9
330
0
100
AcDbSymbolTable
 70
5
  0
BLOCK_RECORD
  5
17
330
9
100
AcDbSymbolTableRecord
100
AcDbBlockTableRecord
  2
*Model_Space
340
1A
 70
0
280
1
281
0
  0
BLOCK_RECORD
  5
74
330
9
100
AcDbSymbolTableRecord
100
AcDbBlockTableRecord
  2
_ARCHTICK
340
0
 70
0
280
1
281
0
  0
BLOCK_RECORD
  5
78
330
9
100
AcDbSymbolTableRecord
100
AcDbBlockTableRecord
  2
_CLOSEDFILLED
340
0
 70
0
280
1
281
0
  0
BLOCK_RECORD
  5
84
330
9
100
AcDbSymbolTableRecord
100
AcDbBlockTableRecord
  2
_CLOSEDBLANK
340
0
 70
0
280
1
281
0
  0
BLOCK_RECORD
  5
2E1
330
9
100
AcDbSymbolTableRecord
100
AcDbBlockTableRecord
  2
*Paper_Space
340
2E4
 70
0
280
1
281
0
  0
ENDTAB
  0
ENDSEC
  0
SECTION
  2
BLOCKS
  0
BLOCK
  5
18
330
17
100
AcDbEntity
  8
0
100
AcDbBlockBegin
  2
*Model_Space
 70
0
 10
0.0
 20
0.0
 30
0.0
  3
*Model_Space
  1

  0
ENDBLK
  5
19
330
17
100
AcDbEntity
  8
0
100
AcDbBlockEnd
  0
BLOCK
  5
75
330
74
100
AcDbEntity
  8
0
100
AcDbBlockBegin
  2
_ARCHTICK
 70
0
 10
0.0
 20
0.0
 30
0.0
  3
_ARCHTICK
  1

  0
LWPOLYLINE
  5
77
330
74
100
AcDbEntity
  8
0
  6
BYBLOCK
 62
0
100
AcDbPolyline
 90
2
 70
0
 43
0.15
 10
-0.5
 20
-0.5
 10
0.5
 20
0.5
  0
ENDBLK
  5
76
330
74
100
AcDbEntity
  8
0
100
AcDbBlockEnd
  0
BLOCK
  5
79
330
78
100
AcDbEntity
  8
0
100
AcDbBlockBegin
  2
_CLOSEDFILLED
 70
0
 10
0.0
 20
0.0
 30
0.0
  3
_CLOSEDFILLED
  1

  0
SOLID
  5
7B
330
78
100
AcDbEntity
  8
0
  6
BYBLOCK
 62
0
100
AcDbTrace
 10
-1.0
 20
0.16439898372402537
 30
0.0
 11
0.0
 21
0.0
 31
0.0
 12
-1.0
 22
-0.16439898372402537
 32
0.0
 13
-1.0
 23
-0.16439898372402537
 33
0.0
  0
ENDBLK
  5
7A
330
78
100
AcDbEntity
  8
0
100
AcDbBlockEnd
  0
BLOCK
  5
85
330
84
100
AcDbEntity
  8
0
100
AcDbBlockBegin
  2
_CLOSEDBLANK
 70
0
 10
0.0
 20
0.0
 30
0.0
  3
_CLOSEDBLANK
  1

  0
LWPOLYLINE
  5
87
330
84
100
AcDbEntity
  8
0
  6
BYBLOCK
 62
0
100
AcDbPolyline
 90
3
 70
1
 10
-1.0
 20
0.16439898372402537
 10
0.0
 20
0.0
 10
-1.0
 20
-0.16439898372402537
  0
ENDBLK
  5
86
330
84
100
AcDbEntity
  8
0
100
AcDbBlockEnd
  0
BLOCK
  5
2E2
330
2E1
100
AcDbEntity
  8
0
100
AcDbBlockBegin
  2
*Paper_Space
 70
0
 10
0.0
 20
0.0
 30
0.0
  3
*Paper_Space
  1

  0
ENDBLK
  5
2E3
330
2E1
100
AcDbEntity
  8
0
100
AcDbBlockEnd
  0
ENDSEC
  0
SECTION
  2
ENTITIES
  0
LWPOLYLINE
  5
A3
330
17
100
AcDbEntity
  8
A-OUTLINE
100
AcDbPolyline
 90
5
 70
1
 10
-125.0
 20
-125.0
 10
19851.776695296634
 20
-125.0
 10
22325.0
 20
2348.2233047033646
 10
22325.0
 20
19325.0
 10
-125.0
 20
19325.0
  0
LWPOLYLINE
  5
A4
330
17
100
AcDbEntity
  8
A-OUTLINE
100
AcDbPolyline
 90
5
 70
1
 10
125.0
 20
125.0
 10
19748.223304703366
 20
125.0
 10
22075.0
 20
2451.7766952966354
 10
22075.0
 20
19075.0
 10
125.0
 20
19075.0
  0
LWPOLYLINE
  5
A5
330
17
100
AcDbEntity
  8
A-FACADE-PANEL
100
AcDbPolyline
 90
5
 70
1
 10
-205.0
 20
-205.0
 10
19884.913780286483
 20
-205.0
 10
22405.0
 20
2315.0862197135148
 10
22405.0
 20
19405.0
 10
-205.0
 20
19405.0
  0
LWPOLYLINE
  5
A6
330
17
100
AcDbEntity
  8
A-FACADE-PANEL
100
AcDbPolyline
 90
5
 70
1
 10
-325.0
 20
-325.0
 10
19934.619407771257
 20
-325.0
 10
22525.0
 20
2265.3805922287434
 10
22525.0
 20
19525.0
 10
-325.0
 20
19525.0
  0
LINE
  5
A7
330
17
100
AcDbEntity
  8
A-GLAZ-RIBBON
100
AcDbLine
 10
0.0
 20
40.0
 30
0.0
 11
19800.0
 21
40.0
 31
0.0
  0
LINE
  5
A8
330
17
100
AcDbEntity
  8
A-GLAZ-RIBBON
100
AcDbLine
 10
0.0
 20
-40.0
 30
0.0
 11
19800.0
 21
-40.0
 31
0.0
  0
LINE
  5
A9
330
17
100
AcDbEntity
  8
A-GLAZ-RIBBON
100
AcDbLine
 10
0.0
 20
125.0
 30
0.0
 11
0.0
 21
-125.0
 31
0.0
  0
LINE
  5
AA
330
17
100
AcDbEntity
  8
A-GLAZ-RIBBON
100
AcDbLine
 10
1500.0
 20
125.0
 30
0.0
 11
1500.0
 21
-125.0
 31
0.0
  0
LINE
  5
AB
330
17
100
AcDbEntity
  8
A-GLAZ-RIBBON
100
AcDbLine
 10
3000.0
 20
125.0
 30
0.0
 11
3000.0
 21
-125.0
 31
0.0
  0
LINE
  5
AC
330
17
100
AcDbEntity
  8
A-GLAZ-RIBBON
100
AcDbLine
 10
4500.0
 20
125.0
 30
0.0
 11
4500.0
 21
-125.0
 31
0.0
  0
LINE
  5
AD
330
17
100
AcDbEntity
  8
A-GLAZ-RIBBON
100
AcDbLine
 10
6000.0
 20
125.0
 30
0.0
 11
6000.0
 21
-125.0
 31
0.0
  0
LINE
  5
AE
330
17
100
AcDbEntity
  8
A-GLAZ-RIBBON
100
AcDbLine
 10
7500.0
 20
125.0
 30
0.0
 11
7500.0
 21
-125.0
 31
0.0
  0
LINE
  5
AF
330
17
100
AcDbEntity
  8
A-GLAZ-RIBBON
100
AcDbLine
 10
9000.0
 20
125.0
 30
0.0
 11
9000.0
 21
-125.0
 31
0.0
  0
LINE
  5
B0
330
17
100
AcDbEntity
  8
A-GLAZ-RIBBON
100
AcDbLine
 10
10500.0
 20
125.0
 30
0.0
 11
10500.0
 21
-125.0
 31
0.0
  0
LINE
  5
B1
330
17
100
AcDbEntity
  8
A-GLAZ-RIBBON
100
AcDbLine
 10
12000.0
 20
125.0
 30
0.0
 11
12000.0
 21
-125.0
 31
0.0
  0
LINE
  5
B2
330
17
100
AcDbEntity
  8
A-GLAZ-RIBBON
100
AcDbLine
 10
13500.0
 20
125.0
 30
0.0
 11
13500.0
 21
-125.0
 31
0.0
  0
LINE
  5
B3
330
17
100
AcDbEntity
  8
A-GLAZ-RIBBON
100
AcDbLine
 10
15000.0
 20
125.0
 30
0.0
 11
15000.0
 21
-125.0
 31
0.0
  0
LINE
  5
B4
330
17
100
AcDbEntity
  8
A-GLAZ-RIBBON
100
AcDbLine
 10
16500.0
 20
125.0
 30
0.0
 11
16500.0
 21
-125.0
 31
0.0
  0
LINE
  5
B5
330
17
100
AcDbEntity
  8
A-GLAZ-RIBBON
100
AcDbLine
 10
18000.0
 20
125.0
 30
0.0
 11
18000.0
 21
-125.0
 31
0.0
  0
LINE
  5
B6
330
17
100
AcDbEntity
  8
A-GLAZ-RIBBON
100
AcDbLine
 10
19500.0
 20
125.0
 30
0.0
 11
19500.0
 21
-125.0
 31
0.0
  0
LINE
  5
B7
330
17
100
AcDbEntity
  8
A-GLAZ-RIBBON
100
AcDbLine
 10
19771.715728752537
 20
28.2842712474619
 30
0.0
 11
22171.715728752537
 21
2428.2842712474617
 31
0.0
  0
LINE
  5
B8
330
17
100
AcDbEntity
  8
A-GLAZ-RIBBON
100
AcDbLine
 10
19828.284271247463
 20
-28.2842712474619
 30
0.0
 11
22228.284271247463
 21
2371.7157287525383
 31
0.0
  0
LINE
  5
B9
330
17
100
AcDbEntity
  8
A-GLAZ-RIBBON
100
AcDbLine
 10
19711.611652351683
 20
88.38834764831843
 30
0.0
 11
19888.388347648317
 21
-88.38834764831843
 31
0.0
  0
LINE
  5
BA
330
17
100
AcDbEntity
  8
A-GLAZ-RIBBON
100
AcDbLine
 10
20772.271824131505
 20
1149.0485194281396
 30
0.0
 11
20949.04851942814
 21
972.2718241315027
 31
0.0
  0
LINE
  5
BB
330
17
100
AcDbEntity
  8
A-GLAZ-RIBBON
100
AcDbLine
 10
21832.931995911327
 20
2209.708691207961
 30
0.0
 11
22009.70869120796
 21
2032.931995911324
 31
0.0
  0
LINE
  5
BC
330
17
100
AcDbEntity
  8
A-GLAZ-RIBBON
100
AcDbLine
 10
22160.0
 20
2400.0
 30
0.0
 11
22160.0
 21
19200.0
 31
0.0
  0
LINE
  5
BD
330
17
100
AcDbEntity
  8
A-GLAZ-RIBBON
100
AcDbLine
 10
22240.0
 20
2400.0
 30
0.0
 11
22240.0
 21
19200.0
 31
0.0
  0
LINE
  5
BE
330
17
100
AcDbEntity
  8
A-GLAZ-RIBBON
100
AcDbLine
 10
22075.0
 20
2400.0
 30
0.0
 11
22325.0
 21
2400.0
 31
0.0
  0
LINE
  5
BF
330
17
100
AcDbEntity
  8
A-GLAZ-RIBBON
100
AcDbLine
 10
22075.0
 20
3900.0
 30
0.0
 11
22325.0
 21
3900.0
 31
0.0
  0
LINE
  5
C0
330
17
100
AcDbEntity
  8
A-GLAZ-RIBBON
100
AcDbLine
 10
22075.0
 20
5400.0
 30
0.0
 11
22325.0
 21
5400.0
 31
0.0
  0
LINE
  5
C1
330
17
100
AcDbEntity
  8
A-GLAZ-RIBBON
100
AcDbLine
 10
22075.0
 20
6900.0
 30
0.0
 11
22325.0
 21
6900.0
 31
0.0
  0
LINE
  5
C2
330
17
100
AcDbEntity
  8
A-GLAZ-RIBBON
100
AcDbLine
 10
22075.0
 20
8400.0
 30
0.0
 11
22325.0
 21
8400.0
 31
0.0
  0
LINE
  5
C3
330
17
100
AcDbEntity
  8
A-GLAZ-RIBBON
100
AcDbLine
 10
22075.0
 20
9900.0
 30
0.0
 11
22325.0
 21
9900.0
 31
0.0
  0
LINE
  5
C4
330
17
100
AcDbEntity
  8
A-GLAZ-RIBBON
100
AcDbLine
 10
22075.0
 20
11400.0
 30
0.0
 11
22325.0
 21
11400.0
 31
0.0
  0
LINE
  5
C5
330
17
100
AcDbEntity
  8
A-GLAZ-RIBBON
100
AcDbLine
 10
22075.0
 20
12900.0
 30
0.0
 11
22325.0
 21
12900.0
 31
0.0
  0
LINE
  5
C6
330
17
100
AcDbEntity
  8
A-GLAZ-RIBBON
100
AcDbLine
 10
22075.0
 20
14400.0
 30
0.0
 11
22325.0
 21
14400.0
 31
0.0
  0
LINE
  5
C7
330
17
100
AcDbEntity
  8
A-GLAZ-RIBBON
100
AcDbLine
 10
22075.0
 20
15900.0
 30
0.0
 11
22325.0
 21
15900.0
 31
0.0
  0
LINE
  5
C8
330
17
100
AcDbEntity
  8
A-GLAZ-RIBBON
100
AcDbLine
 10
22075.0
 20
17400.0
 30
0.0
 11
22325.0
 21
17400.0
 31
0.0
  0
LINE
  5
C9
330
17
100
AcDbEntity
  8
A-GLAZ-RIBBON
100
AcDbLine
 10
22075.0
 20
18900.0
 30
0.0
 11
22325.0
 21
18900.0
 31
0.0
  0
LINE
  5
CA
330
17
100
AcDbEntity
  8
A-GLAZ-RIBBON
100
AcDbLine
 10
22200.0
 20
19160.0
 30
0.0
 11
0.0
 21
19160.0
 31
0.0
  0
LINE
  5
CB
330
17
100
AcDbEntity
  8
A-GLAZ-RIBBON
100
AcDbLine
 10
22200.0
 20
19240.0
 30
0.0
 11
0.0
 21
19240.0
 31
0.0
  0
LINE
  5
CC
330
17
100
AcDbEntity
  8
A-GLAZ-RIBBON
100
AcDbLine
 10
22200.0
 20
19075.0
 30
0.0
 11
22200.0
 21
19325.0
 31
0.0
  0
LINE
  5
CD
330
17
100
AcDbEntity
  8
A-GLAZ-RIBBON
100
AcDbLine
 10
20700.0
 20
19075.0
 30
0.0
 11
20700.0
 21
19325.0
 31
0.0
  0
LINE
  5
CE
330
17
100
AcDbEntity
  8
A-GLAZ-RIBBON
100
AcDbLine
 10
19200.0
 20
19075.0
 30
0.0
 11
19200.0
 21
19325.0
 31
0.0
  0
LINE
  5
CF
330
17
100
AcDbEntity
  8
A-GLAZ-RIBBON
100
AcDbLine
 10
17700.0
 20
19075.0
 30
0.0
 11
17700.0
 21
19325.0
 31
0.0
  0
LINE
  5
D0
330
17
100
AcDbEntity
  8
A-GLAZ-RIBBON
100
AcDbLine
 10
16200.0
 20
19075.0
 30
0.0
 11
16200.0
 21
19325.0
 31
0.0
  0
LINE
  5
D1
330
17
100
AcDbEntity
  8
A-GLAZ-RIBBON
100
AcDbLine
 10
14700.0
 20
19075.0
 30
0.0
 11
14700.0
 21
19325.0
 31
0.0
  0
LINE
  5
D2
330
17
100
AcDbEntity
  8
A-GLAZ-RIBBON
100
AcDbLine
 10
13200.0
 20
19075.0
 30
0.0
 11
13200.0
 21
19325.0
 31
0.0
  0
LINE
  5
D3
330
17
100
AcDbEntity
  8
A-GLAZ-RIBBON
100
AcDbLine
 10
11700.0
 20
19075.0
 30
0.0
 11
11700.0
 21
19325.0
 31
0.0
  0
LINE
  5
D4
330
17
100
AcDbEntity
  8
A-GLAZ-RIBBON
100
AcDbLine
 10
10200.0
 20
19075.0
 30
0.0
 11
10200.0
 21
19325.0
 31
0.0
  0
LINE
  5
D5
330
17
100
AcDbEntity
  8
A-GLAZ-RIBBON
100
AcDbLine
 10
8700.0
 20
19075.0
 30
0.0
 11
8700.0
 21
19325.0
 31
0.0
  0
LINE
  5
D6
330
17
100
AcDbEntity
  8
A-GLAZ-RIBBON
100
AcDbLine
 10
7200.0
 20
19075.0
 30
0.0
 11
7200.0
 21
19325.0
 31
0.0
  0
LINE
  5
D7
330
17
100
AcDbEntity
  8
A-GLAZ-RIBBON
100
AcDbLine
 10
5700.0
 20
19075.0
 30
0.0
 11
5700.0
 21
19325.0
 31
0.0
  0
LINE
  5
D8
330
17
100
AcDbEntity
  8
A-GLAZ-RIBBON
100
AcDbLine
 10
4200.0
 20
19075.0
 30
0.0
 11
4200.0
 21
19325.0
 31
0.0
  0
LINE
  5
D9
330
17
100
AcDbEntity
  8
A-GLAZ-RIBBON
100
AcDbLine
 10
2700.0
 20
19075.0
 30
0.0
 11
2700.0
 21
19325.0
 31
0.0
  0
LINE
  5
DA
330
17
100
AcDbEntity
  8
A-GLAZ-RIBBON
100
AcDbLine
 10
1200.0
 20
19075.0
 30
0.0
 11
1200.0
 21
19325.0
 31
0.0
  0
LINE
  5
DB
330
17
100
AcDbEntity
  8
A-GLAZ-RIBBON
100
AcDbLine
 10
40.0
 20
19200.0
 30
0.0
 11
40.0
 21
0.0
 31
0.0
  0
LINE
  5
DC
330
17
100
AcDbEntity
  8
A-GLAZ-RIBBON
100
AcDbLine
 10
-40.0
 20
19200.0
 30
0.0
 11
-40.0
 21
0.0
 31
0.0
  0
LINE
  5
DD
330
17
100
AcDbEntity
  8
A-GLAZ-RIBBON
100
AcDbLine
 10
125.0
 20
19200.0
 30
0.0
 11
-125.0
 21
19200.0
 31
0.0
  0
LINE
  5
DE
330
17
100
AcDbEntity
  8
A-GLAZ-RIBBON
100
AcDbLine
 10
125.0
 20
17700.0
 30
0.0
 11
-125.0
 21
17700.0
 31
0.0
  0
LINE
  5
DF
330
17
100
AcDbEntity
  8
A-GLAZ-RIBBON
100
AcDbLine
 10
125.0
 20
16200.0
 30
0.0
 11
-125.0
 21
16200.0
 31
0.0
  0
LINE
  5
E0
330
17
100
AcDbEntity
  8
A-GLAZ-RIBBON
100
AcDbLine
 10
125.0
 20
14700.0
 30
0.0
 11
-125.0
 21
14700.0
 31
0.0
  0
LINE
  5
E1
330
17
100
AcDbEntity
  8
A-GLAZ-RIBBON
100
AcDbLine
 10
125.0
 20
13200.0
 30
0.0
 11
-125.0
 21
13200.0
 31
0.0
  0
LINE
  5
E2
330
17
100
AcDbEntity
  8
A-GLAZ-RIBBON
100
AcDbLine
 10
125.0
 20
11700.0
 30
0.0
 11
-125.0
 21
11700.0
 31
0.0
  0
LINE
  5
E3
330
17
100
AcDbEntity
  8
A-GLAZ-RIBBON
100
AcDbLine
 10
125.0
 20
10200.0
 30
0.0
 11
-125.0
 21
10200.0
 31
0.0
  0
LINE
  5
E4
330
17
100
AcDbEntity
  8
A-GLAZ-RIBBON
100
AcDbLine
 10
125.0
 20
8700.0
 30
0.0
 11
-125.0
 21
8700.0
 31
0.0
  0
LINE
  5
E5
330
17
100
AcDbEntity
  8
A-GLAZ-RIBBON
100
AcDbLine
 10
125.0
 20
7200.0
 30
0.0
 11
-125.0
 21
7200.0
 31
0.0
  0
LINE
  5
E6
330
17
100
AcDbEntity
  8
A-GLAZ-RIBBON
100
AcDbLine
 10
125.0
 20
5700.0
 30
0.0
 11
-125.0
 21
5700.0
 31
0.0
  0
LINE
  5
E7
330
17
100
AcDbEntity
  8
A-GLAZ-RIBBON
100
AcDbLine
 10
125.0
 20
4200.0
 30
0.0
 11
-125.0
 21
4200.0
 31
0.0
  0
LINE
  5
E8
330
17
100
AcDbEntity
  8
A-GLAZ-RIBBON
100
AcDbLine
 10
125.0
 20
2700.0
 30
0.0
 11
-125.0
 21
2700.0
 31
0.0
  0
LINE
  5
E9
330
17
100
AcDbEntity
  8
A-GLAZ-RIBBON
100
AcDbLine
 10
125.0
 20
1200.0
 30
0.0
 11
-125.0
 21
1200.0
 31
0.0
  0
LWPOLYLINE
  5
EA
330
17
100
AcDbEntity
  8
A-WALL-RC
100
AcDbPolyline
 90
4
 70
1
 10
6200.0
 20
-125.0
 10
7000.0
 20
-125.0
 10
7000.0
 20
125.0
 10
6200.0
 20
125.0
  0
HATCH
  5
EB
330
17
100
AcDbEntity
  8
A-WALL-RC
 62
7
100
AcDbHatch
 10
0.0
 20
0.0
 30
0.0
210
0.0
220
0.0
230
1.0
  2
SOLID
 70
1
 71
0
 91
1
 92
3
 72
0
 73
1
 93
4
 10
6200.0
 20
-125.0
 10
7000.0
 20
-125.0
 10
7000.0
 20
125.0
 10
6200.0
 20
125.0
 97
0
 75
1
 76
1
 98
0
  0
LWPOLYLINE
  5
EC
330
17
100
AcDbEntity
  8
A-WALL-RC
100
AcDbPolyline
 90
4
 70
1
 10
6200.0
 20
19075.0
 10
7000.0
 20
19075.0
 10
7000.0
 20
19325.0
 10
6200.0
 20
19325.0
  0
HATCH
  5
ED
330
17
100
AcDbEntity
  8
A-WALL-RC
 62
7
100
AcDbHatch
 10
0.0
 20
0.0
 30
0.0
210
0.0
220
0.0
230
1.0
  2
SOLID
 70
1
 71
0
 91
1
 92
3
 72
0
 73
1
 93
4
 10
6200.0
 20
19075.0
 10
7000.0
 20
19075.0
 10
7000.0
 20
19325.0
 10
6200.0
 20
19325.0
 97
0
 75
1
 76
1
 98
0
  0
LWPOLYLINE
  5
EE
330
17
100
AcDbEntity
  8
A-WALL-RC
100
AcDbPolyline
 90
4
 70
1
 10
13400.0
 20
-125.0
 10
14200.0
 20
-125.0
 10
14200.0
 20
125.0
 10
13400.0
 20
125.0
  0
HATCH
  5
EF
330
17
100
AcDbEntity
  8
A-WALL-RC
 62
7
100
AcDbHatch
 10
0.0
 20
0.0
 30
0.0
210
0.0
220
0.0
230
1.0
  2
SOLID
 70
1
 71
0
 91
1
 92
3
 72
0
 73
1
 93
4
 10
13400.0
 20
-125.0
 10
14200.0
 20
-125.0
 10
14200.0
 20
125.0
 10
13400.0
 20
125.0
 97
0
 75
1
 76
1
 98
0
  0
LWPOLYLINE
  5
F0
330
17
100
AcDbEntity
  8
A-WALL-RC
100
AcDbPolyline
 90
4
 70
1
 10
13400.0
 20
19075.0
 10
14200.0
 20
19075.0
 10
14200.0
 20
19325.0
 10
13400.0
 20
19325.0
  0
HATCH
  5
F1
330
17
100
AcDbEntity
  8
A-WALL-RC
 62
7
100
AcDbHatch
 10
0.0
 20
0.0
 30
0.0
210
0.0
220
0.0
230
1.0
  2
SOLID
 70
1
 71
0
 91
1
 92
3
 72
0
 73
1
 93
4
 10
13400.0
 20
19075.0
 10
14200.0
 20
19075.0
 10
14200.0
 20
19325.0
 10
13400.0
 20
19325.0
 97
0
 75
1
 76
1
 98
0
  0
LWPOLYLINE
  5
F2
330
17
100
AcDbEntity
  8
A-WALL-RC
100
AcDbPolyline
 90
4
 70
1
 10
-125.0
 20
6800.0
 10
125.0
 20
6800.0
 10
125.0
 20
7600.0
 10
-125.0
 20
7600.0
  0
HATCH
  5
F3
330
17
100
AcDbEntity
  8
A-WALL-RC
 62
7
100
AcDbHatch
 10
0.0
 20
0.0
 30
0.0
210
0.0
220
0.0
230
1.0
  2
SOLID
 70
1
 71
0
 91
1
 92
3
 72
0
 73
1
 93
4
 10
-125.0
 20
6800.0
 10
125.0
 20
6800.0
 10
125.0
 20
7600.0
 10
-125.0
 20
7600.0
 97
0
 75
1
 76
1
 98
0
  0
LWPOLYLINE
  5
F4
330
17
100
AcDbEntity
  8
A-WALL-RC
100
AcDbPolyline
 90
4
 70
1
 10
22075.0
 20
6800.0
 10
22325.0
 20
6800.0
 10
22325.0
 20
7600.0
 10
22075.0
 20
7600.0
  0
HATCH
  5
F5
330
17
100
AcDbEntity
  8
A-WALL-RC
 62
7
100
AcDbHatch
 10
0.0
 20
0.0
 30
0.0
210
0.0
220
0.0
230
1.0
  2
SOLID
 70
1
 71
0
 91
1
 92
3
 72
0
 73
1
 93
4
 10
22075.0
 20
6800.0
 10
22325.0
 20
6800.0
 10
22325.0
 20
7600.0
 10
22075.0
 20
7600.0
 97
0
 75
1
 76
1
 98
0
  0
LWPOLYLINE
  5
F6
330
17
100
AcDbEntity
  8
A-WALL-RC
100
AcDbPolyline
 90
4
 70
1
 10
-125.0
 20
12800.0
 10
125.0
 20
12800.0
 10
125.0
 20
13600.0
 10
-125.0
 20
13600.0
  0
HATCH
  5
F7
330
17
100
AcDbEntity
  8
A-WALL-RC
 62
7
100
AcDbHatch
 10
0.0
 20
0.0
 30
0.0
210
0.0
220
0.0
230
1.0
  2
SOLID
 70
1
 71
0
 91
1
 92
3
 72
0
 73
1
 93
4
 10
-125.0
 20
12800.0
 10
125.0
 20
12800.0
 10
125.0
 20
13600.0
 10
-125.0
 20
13600.0
 97
0
 75
1
 76
1
 98
0
  0
LWPOLYLINE
  5
F8
330
17
100
AcDbEntity
  8
A-WALL-RC
100
AcDbPolyline
 90
4
 70
1
 10
22075.0
 20
12800.0
 10
22325.0
 20
12800.0
 10
22325.0
 20
13600.0
 10
22075.0
 20
13600.0
  0
HATCH
  5
F9
330
17
100
AcDbEntity
  8
A-WALL-RC
 62
7
100
AcDbHatch
 10
0.0
 20
0.0
 30
0.0
210
0.0
220
0.0
230
1.0
  2
SOLID
 70
1
 71
0
 91
1
 92
3
 72
0
 73
1
 93
4
 10
22075.0
 20
12800.0
 10
22325.0
 20
12800.0
 10
22325.0
 20
13600.0
 10
22075.0
 20
13600.0
 97
0
 75
1
 76
1
 98
0
  0
LWPOLYLINE
  5
FA
330
17
100
AcDbEntity
  8
A-WALL-RC
100
AcDbPolyline
 90
4
 70
1
 10
-125.0
 20
-125.0
 10
675.0
 20
-125.0
 10
675.0
 20
675.0
 10
-125.0
 20
675.0
  0
HATCH
  5
FB
330
17
100
AcDbEntity
  8
A-WALL-RC
 62
7
100
AcDbHatch
 10
0.0
 20
0.0
 30
0.0
210
0.0
220
0.0
230
1.0
  2
SOLID
 70
1
 71
0
 91
1
 92
3
 72
0
 73
1
 93
4
 10
-125.0
 20
-125.0
 10
675.0
 20
-125.0
 10
675.0
 20
675.0
 10
-125.0
 20
675.0
 97
0
 75
1
 76
1
 98
0
  0
LWPOLYLINE
  5
FC
330
17
100
AcDbEntity
  8
A-WALL-RC
100
AcDbPolyline
 90
4
 70
1
 10
19000.0
 20
-125.0
 10
19800.0
 20
-125.0
 10
19800.0
 20
675.0
 10
19000.0
 20
675.0
  0
HATCH
  5
FD
330
17
100
AcDbEntity
  8
A-WALL-RC
 62
7
100
AcDbHatch
 10
0.0
 20
0.0
 30
0.0
210
0.0
220
0.0
230
1.0
  2
SOLID
 70
1
 71
0
 91
1
 92
3
 72
0
 73
1
 93
4
 10
19000.0
 20
-125.0
 10
19800.0
 20
-125.0
 10
19800.0
 20
675.0
 10
19000.0
 20
675.0
 97
0
 75
1
 76
1
 98
0
  0
LWPOLYLINE
  5
FE
330
17
100
AcDbEntity
  8
A-WALL-RC
100
AcDbPolyline
 90
4
 70
1
 10
21525.0
 20
1600.0
 10
22325.0
 20
1600.0
 10
22325.0
 20
2400.0
 10
21525.0
 20
2400.0
  0
HATCH
  5
FF
330
17
100
AcDbEntity
  8
A-WALL-RC
 62
7
100
AcDbHatch
 10
0.0
 20
0.0
 30
0.0
210
0.0
220
0.0
230
1.0
  2
SOLID
 70
1
 71
0
 91
1
 92
3
 72
0
 73
1
 93
4
 10
21525.0
 20
1600.0
 10
22325.0
 20
1600.0
 10
22325.0
 20
2400.0
 10
21525.0
 20
2400.0
 97
0
 75
1
 76
1
 98
0
  0
LWPOLYLINE
  5
100
330
17
100
AcDbEntity
  8
A-WALL-RC
100
AcDbPolyline
 90
4
 70
1
 10
21525.0
 20
18525.0
 10
22325.0
 20
18525.0
 10
22325.0
 20
19325.0
 10
21525.0
 20
19325.0
  0
HATCH
  5
101
330
17
100
AcDbEntity
  8
A-WALL-RC
 62
7
100
AcDbHatch
 10
0.0
 20
0.0
 30
0.0
210
0.0
220
0.0
230
1.0
  2
SOLID
 70
1
 71
0
 91
1
 92
3
 72
0
 73
1
 93
4
 10
21525.0
 20
18525.0
 10
22325.0
 20
18525.0
 10
22325.0
 20
19325.0
 10
21525.0
 20
19325.0
 97
0
 75
1
 76
1
 98
0
  0
LWPOLYLINE
  5
102
330
17
100
AcDbEntity
  8
A-WALL-RC
100
AcDbPolyline
 90
4
 70
1
 10
-125.0
 20
18525.0
 10
675.0
 20
18525.0
 10
675.0
 20
19325.0
 10
-125.0
 20
19325.0
  0
HATCH
  5
103
330
17
100
AcDbEntity
  8
A-WALL-RC
 62
7
100
AcDbHatch
 10
0.0
 20
0.0
 30
0.0
210
0.0
220
0.0
230
1.0
  2
SOLID
 70
1
 71
0
 91
1
 92
3
 72
0
 73
1
 93
4
 10
-125.0
 20
18525.0
 10
675.0
 20
18525.0
 10
675.0
 20
19325.0
 10
-125.0
 20
19325.0
 97
0
 75
1
 76
1
 98
0
  0
LWPOLYLINE
  5
104
330
17
100
AcDbEntity
  8
A-WALL-RC
100
AcDbPolyline
 90
4
 70
1
 10
5525.0
 20
12176.0
 10
5925.0
 20
12176.0
 10
5925.0
 20
12576.0
 10
5525.0
 20
12576.0
  0
HATCH
  5
105
330
17
100
AcDbEntity
  8
A-WALL-RC
 62
7
100
AcDbHatch
 10
0.0
 20
0.0
 30
0.0
210
0.0
220
0.0
230
1.0
  2
SOLID
 70
1
 71
0
 91
1
 92
3
 72
0
 73
1
 93
4
 10
5525.0
 20
12176.0
 10
5925.0
 20
12176.0
 10
5925.0
 20
12576.0
 10
5525.0
 20
12576.0
 97
0
 75
1
 76
1
 98
0
  0
LWPOLYLINE
  5
106
330
17
100
AcDbEntity
  8
A-WALL-RC
100
AcDbPolyline
 90
4
 70
1
 10
16275.0
 20
12176.0
 10
16675.0
 20
12176.0
 10
16675.0
 20
12576.0
 10
16275.0
 20
12576.0
  0
HATCH
  5
107
330
17
100
AcDbEntity
  8
A-WALL-RC
 62
7
100
AcDbHatch
 10
0.0
 20
0.0
 30
0.0
210
0.0
220
0.0
230
1.0
  2
SOLID
 70
1
 71
0
 91
1
 92
3
 72
0
 73
1
 93
4
 10
16275.0
 20
12176.0
 10
16675.0
 20
12176.0
 10
16675.0
 20
12576.0
 10
16275.0
 20
12576.0
 97
0
 75
1
 76
1
 98
0
  0
LWPOLYLINE
  5
108
330
17
100
AcDbEntity
  8
A-WALL-RC
100
AcDbPolyline
 90
4
 70
1
 10
5525.0
 20
5761.0
 10
5925.0
 20
5761.0
 10
5925.0
 20
6161.0
 10
5525.0
 20
6161.0
  0
HATCH
  5
109
330
17
100
AcDbEntity
  8
A-WALL-RC
 62
7
100
AcDbHatch
 10
0.0
 20
0.0
 30
0.0
210
0.0
220
0.0
230
1.0
  2
SOLID
 70
1
 71
0
 91
1
 92
3
 72
0
 73
1
 93
4
 10
5525.0
 20
5761.0
 10
5925.0
 20
5761.0
 10
5925.0
 20
6161.0
 10
5525.0
 20
6161.0
 97
0
 75
1
 76
1
 98
0
  0
LWPOLYLINE
  5
10A
330
17
100
AcDbEntity
  8
A-WALL-RC
100
AcDbPolyline
 90
4
 70
1
 10
16275.0
 20
5761.0
 10
16675.0
 20
5761.0
 10
16675.0
 20
6161.0
 10
16275.0
 20
6161.0
  0
HATCH
  5
10B
330
17
100
AcDbEntity
  8
A-WALL-RC
 62
7
100
AcDbHatch
 10
0.0
 20
0.0
 30
0.0
210
0.0
220
0.0
230
1.0
  2
SOLID
 70
1
 71
0
 91
1
 92
3
 72
0
 73
1
 93
4
 10
16275.0
 20
5761.0
 10
16675.0
 20
5761.0
 10
16675.0
 20
6161.0
 10
16275.0
 20
6161.0
 97
0
 75
1
 76
1
 98
0
  0
LWPOLYLINE
  5
10C
330
17
100
AcDbEntity
  8
A-WALL-RC
100
AcDbPolyline
 90
4
 70
1
 10
5425.0
 20
12076.0
 10
5825.0
 20
12076.0
 10
5825.0
 20
12476.0
 10
5425.0
 20
12476.0
  0
HATCH
  5
10D
330
17
100
AcDbEntity
  8
A-WALL-RC
 62
7
100
AcDbHatch
 10
0.0
 20
0.0
 30
0.0
210
0.0
220
0.0
230
1.0
  2
SOLID
 70
1
 71
0
 91
1
 92
3
 72
0
 73
1
 93
4
 10
5425.0
 20
12076.0
 10
5825.0
 20
12076.0
 10
5825.0
 20
12476.0
 10
5425.0
 20
12476.0
 97
0
 75
1
 76
1
 98
0
  0
LWPOLYLINE
  5
10E
330
17
100
AcDbEntity
  8
A-WALL-RC
100
AcDbPolyline
 90
4
 70
1
 10
5425.0
 20
5861.0
 10
5825.0
 20
5861.0
 10
5825.0
 20
6261.0
 10
5425.0
 20
6261.0
  0
HATCH
  5
10F
330
17
100
AcDbEntity
  8
A-WALL-RC
 62
7
100
AcDbHatch
 10
0.0
 20
0.0
 30
0.0
210
0.0
220
0.0
230
1.0
  2
SOLID
 70
1
 71
0
 91
1
 92
3
 72
0
 73
1
 93
4
 10
5425.0
 20
5861.0
 10
5825.0
 20
5861.0
 10
5825.0
 20
6261.0
 10
5425.0
 20
6261.0
 97
0
 75
1
 76
1
 98
0
  0
LWPOLYLINE
  5
110
330
17
100
AcDbEntity
  8
A-WALL-RC
100
AcDbPolyline
 90
4
 70
1
 10
16375.0
 20
5861.0
 10
16775.0
 20
5861.0
 10
16775.0
 20
6261.0
 10
16375.0
 20
6261.0
  0
HATCH
  5
111
330
17
100
AcDbEntity
  8
A-WALL-RC
 62
7
100
AcDbHatch
 10
0.0
 20
0.0
 30
0.0
210
0.0
220
0.0
230
1.0
  2
SOLID
 70
1
 71
0
 91
1
 92
3
 72
0
 73
1
 93
4
 10
16375.0
 20
5861.0
 10
16775.0
 20
5861.0
 10
16775.0
 20
6261.0
 10
16375.0
 20
6261.0
 97
0
 75
1
 76
1
 98
0
  0
LWPOLYLINE
  5
112
330
17
100
AcDbEntity
  8
A-WALL-RC
100
AcDbPolyline
 90
4
 70
1
 10
16375.0
 20
12076.0
 10
16775.0
 20
12076.0
 10
16775.0
 20
12476.0
 10
16375.0
 20
12476.0
  0
HATCH
  5
113
330
17
100
AcDbEntity
  8
A-WALL-RC
 62
7
100
AcDbHatch
 10
0.0
 20
0.0
 30
0.0
210
0.0
220
0.0
230
1.0
  2
SOLID
 70
1
 71
0
 91
1
 92
3
 72
0
 73
1
 93
4
 10
16375.0
 20
12076.0
 10
16775.0
 20
12076.0
 10
16775.0
 20
12476.0
 10
16375.0
 20
12476.0
 97
0
 75
1
 76
1
 98
0
  0
LWPOLYLINE
  5
114
330
17
100
AcDbEntity
  8
A-WALL-RC
100
AcDbPolyline
 90
4
 70
1
 10
3775.0
 20
5661.0
 10
4175.0
 20
5661.0
 10
4175.0
 20
6061.0
 10
3775.0
 20
6061.0
  0
HATCH
  5
115
330
17
100
AcDbEntity
  8
A-WALL-RC
 62
7
100
AcDbHatch
 10
0.0
 20
0.0
 30
0.0
210
0.0
220
0.0
230
1.0
  2
SOLID
 70
1
 71
0
 91
1
 92
3
 72
0
 73
1
 93
4
 10
3775.0
 20
5661.0
 10
4175.0
 20
5661.0
 10
4175.0
 20
6061.0
 10
3775.0
 20
6061.0
 97
0
 75
1
 76
1
 98
0
  0
LWPOLYLINE
  5
116
330
17
100
AcDbEntity
  8
A-WALL-RC
100
AcDbPolyline
 90
4
 70
1
 10
3775.0
 20
12276.0
 10
4175.0
 20
12276.0
 10
4175.0
 20
12676.0
 10
3775.0
 20
12676.0
  0
HATCH
  5
117
330
17
100
AcDbEntity
  8
A-WALL-RC
 62
7
100
AcDbHatch
 10
0.0
 20
0.0
 30
0.0
210
0.0
220
0.0
230
1.0
  2
SOLID
 70
1
 71
0
 91
1
 92
3
 72
0
 73
1
 93
4
 10
3775.0
 20
12276.0
 10
4175.0
 20
12276.0
 10
4175.0
 20
12676.0
 10
3775.0
 20
12676.0
 97
0
 75
1
 76
1
 98
0
  0
LWPOLYLINE
  5
118
330
17
100
AcDbEntity
  8
A-WALL-RC
100
AcDbPolyline
 90
4
 70
1
 10
18025.0
 20
5661.0
 10
18425.0
 20
5661.0
 10
18425.0
 20
6061.0
 10
18025.0
 20
6061.0
  0
HATCH
  5
119
330
17
100
AcDbEntity
  8
A-WALL-RC
 62
7
100
AcDbHatch
 10
0.0
 20
0.0
 30
0.0
210
0.0
220
0.0
230
1.0
  2
SOLID
 70
1
 71
0
 91
1
 92
3
 72
0
 73
1
 93
4
 10
18025.0
 20
5661.0
 10
18425.0
 20
5661.0
 10
18425.0
 20
6061.0
 10
18025.0
 20
6061.0
 97
0
 75
1
 76
1
 98
0
  0
LWPOLYLINE
  5
11A
330
17
100
AcDbEntity
  8
A-WALL-RC
100
AcDbPolyline
 90
4
 70
1
 10
17975.0
 20
12276.0
 10
18375.0
 20
12276.0
 10
18375.0
 20
12676.0
 10
17975.0
 20
12676.0
  0
HATCH
  5
11B
330
17
100
AcDbEntity
  8
A-WALL-RC
 62
7
100
AcDbHatch
 10
0.0
 20
0.0
 30
0.0
210
0.0
220
0.0
230
1.0
  2
SOLID
 70
1
 71
0
 91
1
 92
3
 72
0
 73
1
 93
4
 10
17975.0
 20
12276.0
 10
18375.0
 20
12276.0
 10
18375.0
 20
12676.0
 10
17975.0
 20
12676.0
 97
0
 75
1
 76
1
 98
0
  0
LWPOLYLINE
  5
11C
330
17
100
AcDbEntity
  8
A-WALL-RC
100
AcDbPolyline
 90
4
 70
1
 10
3518.0
 20
13876.0
 10
3918.0
 20
13876.0
 10
3918.0
 20
14276.0
 10
3518.0
 20
14276.0
  0
HATCH
  5
11D
330
17
100
AcDbEntity
  8
A-WALL-RC
 62
7
100
AcDbHatch
 10
0.0
 20
0.0
 30
0.0
210
0.0
220
0.0
230
1.0
  2
SOLID
 70
1
 71
0
 91
1
 92
3
 72
0
 73
1
 93
4
 10
3518.0
 20
13876.0
 10
3918.0
 20
13876.0
 10
3918.0
 20
14276.0
 10
3518.0
 20
14276.0
 97
0
 75
1
 76
1
 98
0
  0
LWPOLYLINE
  5
11E
330
17
100
AcDbEntity
  8
A-WALL-RC
100
AcDbPolyline
 90
4
 70
1
 10
7211.0
 20
13876.0
 10
7611.0
 20
13876.0
 10
7611.0
 20
14276.0
 10
7211.0
 20
14276.0
  0
HATCH
  5
11F
330
17
100
AcDbEntity
  8
A-WALL-RC
 62
7
100
AcDbHatch
 10
0.0
 20
0.0
 30
0.0
210
0.0
220
0.0
230
1.0
  2
SOLID
 70
1
 71
0
 91
1
 92
3
 72
0
 73
1
 93
4
 10
7211.0
 20
13876.0
 10
7611.0
 20
13876.0
 10
7611.0
 20
14276.0
 10
7211.0
 20
14276.0
 97
0
 75
1
 76
1
 98
0
  0
LWPOLYLINE
  5
120
330
17
100
AcDbEntity
  8
A-WALL-RC
100
AcDbPolyline
 90
4
 70
1
 10
10904.0
 20
13876.0
 10
11304.0
 20
13876.0
 10
11304.0
 20
14276.0
 10
10904.0
 20
14276.0
  0
HATCH
  5
121
330
17
100
AcDbEntity
  8
A-WALL-RC
 62
7
100
AcDbHatch
 10
0.0
 20
0.0
 30
0.0
210
0.0
220
0.0
230
1.0
  2
SOLID
 70
1
 71
0
 91
1
 92
3
 72
0
 73
1
 93
4
 10
10904.0
 20
13876.0
 10
11304.0
 20
13876.0
 10
11304.0
 20
14276.0
 10
10904.0
 20
14276.0
 97
0
 75
1
 76
1
 98
0
  0
LWPOLYLINE
  5
122
330
17
100
AcDbEntity
  8
A-WALL-RC
100
AcDbPolyline
 90
4
 70
1
 10
14597.0
 20
13876.0
 10
14997.0
 20
13876.0
 10
14997.0
 20
14276.0
 10
14597.0
 20
14276.0
  0
HATCH
  5
123
330
17
100
AcDbEntity
  8
A-WALL-RC
 62
7
100
AcDbHatch
 10
0.0
 20
0.0
 30
0.0
210
0.0
220
0.0
230
1.0
  2
SOLID
 70
1
 71
0
 91
1
 92
3
 72
0
 73
1
 93
4
 10
14597.0
 20
13876.0
 10
14997.0
 20
13876.0
 10
14997.0
 20
14276.0
 10
14597.0
 20
14276.0
 97
0
 75
1
 76
1
 98
0
  0
LWPOLYLINE
  5
124
330
17
100
AcDbEntity
  8
A-WALL-RC
100
AcDbPolyline
 90
4
 70
1
 10
18290.0
 20
13876.0
 10
18690.0
 20
13876.0
 10
18690.0
 20
14276.0
 10
18290.0
 20
14276.0
  0
HATCH
  5
125
330
17
100
AcDbEntity
  8
A-WALL-RC
 62
7
100
AcDbHatch
 10
0.0
 20
0.0
 30
0.0
210
0.0
220
0.0
230
1.0
  2
SOLID
 70
1
 71
0
 91
1
 92
3
 72
0
 73
1
 93
4
 10
18290.0
 20
13876.0
 10
18690.0
 20
13876.0
 10
18690.0
 20
14276.0
 10
18290.0
 20
14276.0
 97
0
 75
1
 76
1
 98
0
  0
LWPOLYLINE
  5
126
330
17
100
AcDbEntity
  8
A-WALL-RC
100
AcDbPolyline
 90
4
 70
1
 10
3447.0
 20
4061.0
 10
3847.0
 20
4061.0
 10
3847.0
 20
4461.0
 10
3447.0
 20
4461.0
  0
HATCH
  5
127
330
17
100
AcDbEntity
  8
A-WALL-RC
 62
7
100
AcDbHatch
 10
0.0
 20
0.0
 30
0.0
210
0.0
220
0.0
230
1.0
  2
SOLID
 70
1
 71
0
 91
1
 92
3
 72
0
 73
1
 93
4
 10
3447.0
 20
4061.0
 10
3847.0
 20
4061.0
 10
3847.0
 20
4461.0
 10
3447.0
 20
4461.0
 97
0
 75
1
 76
1
 98
0
  0
LWPOLYLINE
  5
128
330
17
100
AcDbEntity
  8
A-WALL-RC
100
AcDbPolyline
 90
4
 70
1
 10
7670.0
 20
4061.0
 10
8070.0
 20
4061.0
 10
8070.0
 20
4461.0
 10
7670.0
 20
4461.0
  0
HATCH
  5
129
330
17
100
AcDbEntity
  8
A-WALL-RC
 62
7
100
AcDbHatch
 10
0.0
 20
0.0
 30
0.0
210
0.0
220
0.0
230
1.0
  2
SOLID
 70
1
 71
0
 91
1
 92
3
 72
0
 73
1
 93
4
 10
7670.0
 20
4061.0
 10
8070.0
 20
4061.0
 10
8070.0
 20
4461.0
 10
7670.0
 20
4461.0
 97
0
 75
1
 76
1
 98
0
  0
LWPOLYLINE
  5
12A
330
17
100
AcDbEntity
  8
A-WALL-RC
100
AcDbPolyline
 90
4
 70
1
 10
11893.0
 20
4061.0
 10
12293.0
 20
4061.0
 10
12293.0
 20
4461.0
 10
11893.0
 20
4461.0
  0
HATCH
  5
12B
330
17
100
AcDbEntity
  8
A-WALL-RC
 62
7
100
AcDbHatch
 10
0.0
 20
0.0
 30
0.0
210
0.0
220
0.0
230
1.0
  2
SOLID
 70
1
 71
0
 91
1
 92
3
 72
0
 73
1
 93
4
 10
11893.0
 20
4061.0
 10
12293.0
 20
4061.0
 10
12293.0
 20
4461.0
 10
11893.0
 20
4461.0
 97
0
 75
1
 76
1
 98
0
  0
LWPOLYLINE
  5
12C
330
17
100
AcDbEntity
  8
A-WALL-RC
100
AcDbPolyline
 90
4
 70
1
 10
16116.0
 20
4061.0
 10
16516.0
 20
4061.0
 10
16516.0
 20
4461.0
 10
16116.0
 20
4461.0
  0
HATCH
  5
12D
330
17
100
AcDbEntity
  8
A-WALL-RC
 62
7
100
AcDbHatch
 10
0.0
 20
0.0
 30
0.0
210
0.0
220
0.0
230
1.0
  2
SOLID
 70
1
 71
0
 91
1
 92
3
 72
0
 73
1
 93
4
 10
16116.0
 20
4061.0
 10
16516.0
 20
4061.0
 10
16516.0
 20
4461.0
 10
16116.0
 20
4461.0
 97
0
 75
1
 76
1
 98
0
  0
LWPOLYLINE
  5
12E
330
17
100
AcDbEntity
  8
A-WALL-RC
100
AcDbPolyline
 90
4
 70
1
 10
20339.0
 20
4061.0
 10
20739.0
 20
4061.0
 10
20739.0
 20
4461.0
 10
20339.0
 20
4461.0
  0
HATCH
  5
12F
330
17
100
AcDbEntity
  8
A-WALL-RC
 62
7
100
AcDbHatch
 10
0.0
 20
0.0
 30
0.0
210
0.0
220
0.0
230
1.0
  2
SOLID
 70
1
 71
0
 91
1
 92
3
 72
0
 73
1
 93
4
 10
20339.0
 20
4061.0
 10
20739.0
 20
4061.0
 10
20739.0
 20
4461.0
 10
20339.0
 20
4461.0
 97
0
 75
1
 76
1
 98
0
  0
LWPOLYLINE
  5
130
330
17
100
AcDbEntity
  8
A-WALL-RC
100
AcDbPolyline
 90
4
 70
1
 10
8491.0
 20
9572.0
 10
8691.0
 20
9572.0
 10
8691.0
 20
12276.0
 10
8491.0
 20
12276.0
  0
HATCH
  5
131
330
17
100
AcDbEntity
  8
A-WALL-RC
 62
7
100
AcDbHatch
 10
0.0
 20
0.0
 30
0.0
210
0.0
220
0.0
230
1.0
  2
SOLID
 70
1
 71
0
 91
1
 92
3
 72
0
 73
1
 93
4
 10
8491.0
 20
9572.0
 10
8691.0
 20
9572.0
 10
8691.0
 20
12276.0
 10
8491.0
 20
12276.0
 97
0
 75
1
 76
1
 98
0
  0
LWPOLYLINE
  5
132
330
17
100
AcDbEntity
  8
A-WALL-RC
100
AcDbPolyline
 90
4
 70
1
 10
11458.0
 20
9572.0
 10
11658.0
 20
9572.0
 10
11658.0
 20
12276.0
 10
11458.0
 20
12276.0
  0
HATCH
  5
133
330
17
100
AcDbEntity
  8
A-WALL-RC
 62
7
100
AcDbHatch
 10
0.0
 20
0.0
 30
0.0
210
0.0
220
0.0
230
1.0
  2
SOLID
 70
1
 71
0
 91
1
 92
3
 72
0
 73
1
 93
4
 10
11458.0
 20
9572.0
 10
11658.0
 20
9572.0
 10
11658.0
 20
12276.0
 10
11458.0
 20
12276.0
 97
0
 75
1
 76
1
 98
0
  0
LWPOLYLINE
  5
134
330
17
100
AcDbEntity
  8
A-WALL-RC
100
AcDbPolyline
 90
4
 70
1
 10
5725.0
 20
9372.0
 10
11458.0
 20
9372.0
 10
11458.0
 20
9572.0
 10
5725.0
 20
9572.0
  0
HATCH
  5
135
330
17
100
AcDbEntity
  8
A-WALL-RC
 62
7
100
AcDbHatch
 10
0.0
 20
0.0
 30
0.0
210
0.0
220
0.0
230
1.0
  2
SOLID
 70
1
 71
0
 91
1
 92
3
 72
0
 73
1
 93
4
 10
5725.0
 20
9372.0
 10
11458.0
 20
9372.0
 10
11458.0
 20
9572.0
 10
5725.0
 20
9572.0
 97
0
 75
1
 76
1
 98
0
  0
LWPOLYLINE
  5
136
330
17
100
AcDbEntity
  8
A-WALL-BLOCK
100
AcDbPolyline
 90
4
 70
1
 10
11458.0
 20
9372.0
 10
16475.0
 20
9372.0
 10
16475.0
 20
9572.0
 10
11458.0
 20
9572.0
  0
HATCH
  5
137
330
17
100
AcDbEntity
  8
A-HATCH
 62
7
100
AcDbHatch
 10
0.0
 20
0.0
 30
0.0
210
0.0
220
0.0
230
1.0
  2
ANSI31
 70
0
 71
0
 91
1
 92
3
 72
0
 73
1
 93
4
 10
11458.0
 20
9372.0
 10
16475.0
 20
9372.0
 10
16475.0
 20
9572.0
 10
11458.0
 20
9572.0
 97
0
 75
1
 76
1
 52
0.0
 41
40.0
 77
0
 78
1
 53
45.0
 43
0.0
 44
0.0
 45
-89.802561212
 46
89.802561212
 79
0
 98
0
  0
LWPOLYLINE
  5
138
330
17
100
AcDbEntity
  8
A-WALL-BLOCK
100
AcDbPolyline
 90
4
 70
1
 10
11458.0
 20
6061.0
 10
11658.0
 20
6061.0
 10
11658.0
 20
9372.0
 10
11458.0
 20
9372.0
  0
HATCH
  5
139
330
17
100
AcDbEntity
  8
A-HATCH
 62
7
100
AcDbHatch
 10
0.0
 20
0.0
 30
0.0
210
0.0
220
0.0
230
1.0
  2
ANSI31
 70
0
 71
0
 91
1
 92
3
 72
0
 73
1
 93
4
 10
11458.0
 20
6061.0
 10
11658.0
 20
6061.0
 10
11658.0
 20
9372.0
 10
11458.0
 20
9372.0
 97
0
 75
1
 76
1
 52
0.0
 41
40.0
 77
0
 78
1
 53
45.0
 43
0.0
 44
0.0
 45
-89.802561212
 46
89.802561212
 79
0
 98
0
  0
LWPOLYLINE
  5
13A
330
17
100
AcDbEntity
  8
A-WALL-BLOCK
100
AcDbPolyline
 90
4
 70
1
 10
13966.0
 20
6061.0
 10
14166.0
 20
6061.0
 10
14166.0
 20
9372.0
 10
13966.0
 20
9372.0
  0
HATCH
  5
13B
330
17
100
AcDbEntity
  8
A-HATCH
 62
7
100
AcDbHatch
 10
0.0
 20
0.0
 30
0.0
210
0.0
220
0.0
230
1.0
  2
ANSI31
 70
0
 71
0
 91
1
 92
3
 72
0
 73
1
 93
4
 10
13966.0
 20
6061.0
 10
14166.0
 20
6061.0
 10
14166.0
 20
9372.0
 10
13966.0
 20
9372.0
 97
0
 75
1
 76
1
 52
0.0
 41
40.0
 77
0
 78
1
 53
45.0
 43
0.0
 44
0.0
 45
-89.802561212
 46
89.802561212
 79
0
 98
0
  0
LWPOLYLINE
  5
13C
330
17
100
AcDbEntity
  8
A-WALL-RC
100
AcDbPolyline
 90
4
 70
1
 10
5725.0
 20
12276.0
 10
11458.0
 20
12276.0
 10
11458.0
 20
12476.0
 10
5725.0
 20
12476.0
  0
HATCH
  5
13D
330
17
100
AcDbEntity
  8
A-WALL-RC
 62
7
100
AcDbHatch
 10
0.0
 20
0.0
 30
0.0
210
0.0
220
0.0
230
1.0
  2
SOLID
 70
1
 71
0
 91
1
 92
3
 72
0
 73
1
 93
4
 10
5725.0
 20
12276.0
 10
11458.0
 20
12276.0
 10
11458.0
 20
12476.0
 10
5725.0
 20
12476.0
 97
0
 75
1
 76
1
 98
0
  0
LWPOLYLINE
  5
13E
330
17
100
AcDbEntity
  8
A-WALL-BLOCK
100
AcDbPolyline
 90
4
 70
1
 10
11458.0
 20
12276.0
 10
13616.5
 20
12276.0
 10
13616.5
 20
12476.0
 10
11458.0
 20
12476.0
  0
HATCH
  5
13F
330
17
100
AcDbEntity
  8
A-HATCH
 62
7
100
AcDbHatch
 10
0.0
 20
0.0
 30
0.0
210
0.0
220
0.0
230
1.0
  2
ANSI31
 70
0
 71
0
 91
1
 92
3
 72
0
 73
1
 93
4
 10
11458.0
 20
12276.0
 10
13616.5
 20
12276.0
 10
13616.5
 20
12476.0
 10
11458.0
 20
12476.0
 97
0
 75
1
 76
1
 52
0.0
 41
40.0
 77
0
 78
1
 53
45.0
 43
0.0
 44
0.0
 45
-89.802561212
 46
89.802561212
 79
0
 98
0
  0
LWPOLYLINE
  5
140
330
17
100
AcDbEntity
  8
A-WALL-BLOCK
100
AcDbPolyline
 90
4
 70
1
 10
14516.5
 20
12276.0
 10
16475.0
 20
12276.0
 10
16475.0
 20
12476.0
 10
14516.5
 20
12476.0
  0
HATCH
  5
141
330
17
100
AcDbEntity
  8
A-HATCH
 62
7
100
AcDbHatch
 10
0.0
 20
0.0
 30
0.0
210
0.0
220
0.0
230
1.0
  2
ANSI31
 70
0
 71
0
 91
1
 92
3
 72
0
 73
1
 93
4
 10
14516.5
 20
12276.0
 10
16475.0
 20
12276.0
 10
16475.0
 20
12476.0
 10
14516.5
 20
12476.0
 97
0
 75
1
 76
1
 52
0.0
 41
40.0
 77
0
 78
1
 53
45.0
 43
0.0
 44
0.0
 45
-89.802561212
 46
89.802561212
 79
0
 98
0
  0
LWPOLYLINE
  5
142
330
17
100
AcDbEntity
  8
A-WALL-BLOCK
100
AcDbPolyline
 90
4
 70
1
 10
5725.0
 20
5861.0
 10
8141.5
 20
5861.0
 10
8141.5
 20
6061.0
 10
5725.0
 20
6061.0
  0
HATCH
  5
143
330
17
100
AcDbEntity
  8
A-HATCH
 62
7
100
AcDbHatch
 10
0.0
 20
0.0
 30
0.0
210
0.0
220
0.0
230
1.0
  2
ANSI31
 70
0
 71
0
 91
1
 92
3
 72
0
 73
1
 93
4
 10
5725.0
 20
5861.0
 10
8141.5
 20
5861.0
 10
8141.5
 20
6061.0
 10
5725.0
 20
6061.0
 97
0
 75
1
 76
1
 52
0.0
 41
40.0
 77
0
 78
1
 53
45.0
 43
0.0
 44
0.0
 45
-89.802561212
 46
89.802561212
 79
0
 98
0
  0
LWPOLYLINE
  5
144
330
17
100
AcDbEntity
  8
A-WALL-BLOCK
100
AcDbPolyline
 90
4
 70
1
 10
9041.5
 20
5861.0
 10
12362.0
 20
5861.0
 10
12362.0
 20
6061.0
 10
9041.5
 20
6061.0
  0
HATCH
  5
145
330
17
100
AcDbEntity
  8
A-HATCH
 62
7
100
AcDbHatch
 10
0.0
 20
0.0
 30
0.0
210
0.0
220
0.0
230
1.0
  2
ANSI31
 70
0
 71
0
 91
1
 92
3
 72
0
 73
1
 93
4
 10
9041.5
 20
5861.0
 10
12362.0
 20
5861.0
 10
12362.0
 20
6061.0
 10
9041.5
 20
6061.0
 97
0
 75
1
 76
1
 52
0.0
 41
40.0
 77
0
 78
1
 53
45.0
 43
0.0
 44
0.0
 45
-89.802561212
 46
89.802561212
 79
0
 98
0
  0
LWPOLYLINE
  5
146
330
17
100
AcDbEntity
  8
A-WALL-BLOCK
100
AcDbPolyline
 90
4
 70
1
 10
13262.0
 20
5861.0
 10
16475.0
 20
5861.0
 10
16475.0
 20
6061.0
 10
13262.0
 20
6061.0
  0
HATCH
  5
147
330
17
100
AcDbEntity
  8
A-HATCH
 62
7
100
AcDbHatch
 10
0.0
 20
0.0
 30
0.0
210
0.0
220
0.0
230
1.0
  2
ANSI31
 70
0
 71
0
 91
1
 92
3
 72
0
 73
1
 93
4
 10
13262.0
 20
5861.0
 10
16475.0
 20
5861.0
 10
16475.0
 20
6061.0
 10
13262.0
 20
6061.0
 97
0
 75
1
 76
1
 52
0.0
 41
40.0
 77
0
 78
1
 53
45.0
 43
0.0
 44
0.0
 45
-89.802561212
 46
89.802561212
 79
0
 98
0
  0
LWPOLYLINE
  5
148
330
17
100
AcDbEntity
  8
A-WALL-RC
100
AcDbPolyline
 90
4
 70
1
 10
5525.0
 20
9572.0
 10
5725.0
 20
9572.0
 10
5725.0
 20
12276.0
 10
5525.0
 20
12276.0
  0
HATCH
  5
149
330
17
100
AcDbEntity
  8
A-WALL-RC
 62
7
100
AcDbHatch
 10
0.0
 20
0.0
 30
0.0
210
0.0
220
0.0
230
1.0
  2
SOLID
 70
1
 71
0
 91
1
 92
3
 72
0
 73
1
 93
4
 10
5525.0
 20
9572.0
 10
5725.0
 20
9572.0
 10
5725.0
 20
12276.0
 10
5525.0
 20
12276.0
 97
0
 75
1
 76
1
 98
0
  0
LWPOLYLINE
  5
14A
330
17
100
AcDbEntity
  8
A-WALL-BLOCK
100
AcDbPolyline
 90
4
 70
1
 10
5525.0
 20
6061.0
 10
5725.0
 20
6061.0
 10
5725.0
 20
9572.0
 10
5525.0
 20
9572.0
  0
HATCH
  5
14B
330
17
100
AcDbEntity
  8
A-HATCH
 62
7
100
AcDbHatch
 10
0.0
 20
0.0
 30
0.0
210
0.0
220
0.0
230
1.0
  2
ANSI31
 70
0
 71
0
 91
1
 92
3
 72
0
 73
1
 93
4
 10
5525.0
 20
6061.0
 10
5725.0
 20
6061.0
 10
5725.0
 20
9572.0
 10
5525.0
 20
9572.0
 97
0
 75
1
 76
1
 52
0.0
 41
40.0
 77
0
 78
1
 53
45.0
 43
0.0
 44
0.0
 45
-89.802561212
 46
89.802561212
 79
0
 98
0
  0
LWPOLYLINE
  5
14C
330
17
100
AcDbEntity
  8
A-WALL-BLOCK
100
AcDbPolyline
 90
4
 70
1
 10
16475.0
 20
6061.0
 10
16675.0
 20
6061.0
 10
16675.0
 20
7266.5
 10
16475.0
 20
7266.5
  0
HATCH
  5
14D
330
17
100
AcDbEntity
  8
A-HATCH
 62
7
100
AcDbHatch
 10
0.0
 20
0.0
 30
0.0
210
0.0
220
0.0
230
1.0
  2
ANSI31
 70
0
 71
0
 91
1
 92
3
 72
0
 73
1
 93
4
 10
16475.0
 20
6061.0
 10
16675.0
 20
6061.0
 10
16675.0
 20
7266.5
 10
16475.0
 20
7266.5
 97
0
 75
1
 76
1
 52
0.0
 41
40.0
 77
0
 78
1
 53
45.0
 43
0.0
 44
0.0
 45
-89.802561212
 46
89.802561212
 79
0
 98
0
  0
LWPOLYLINE
  5
14E
330
17
100
AcDbEntity
  8
A-WALL-BLOCK
100
AcDbPolyline
 90
4
 70
1
 10
16475.0
 20
8166.5
 10
16675.0
 20
8166.5
 10
16675.0
 20
12276.0
 10
16475.0
 20
12276.0
  0
HATCH
  5
14F
330
17
100
AcDbEntity
  8
A-HATCH
 62
7
100
AcDbHatch
 10
0.0
 20
0.0
 30
0.0
210
0.0
220
0.0
230
1.0
  2
ANSI31
 70
0
 71
0
 91
1
 92
3
 72
0
 73
1
 93
4
 10
16475.0
 20
8166.5
 10
16675.0
 20
8166.5
 10
16675.0
 20
12276.0
 10
16475.0
 20
12276.0
 97
0
 75
1
 76
1
 52
0.0
 41
40.0
 77
0
 78
1
 53
45.0
 43
0.0
 44
0.0
 45
-89.802561212
 46
89.802561212
 79
0
 98
0
  0
LWPOLYLINE
  5
150
330
17
100
AcDbEntity
  8
A-WALL-GLASS
100
AcDbPolyline
 90
4
 70
1
 10
3925.0
 20
5861.0
 10
4025.0
 20
5861.0
 10
4025.0
 20
8968.5
 10
3925.0
 20
8968.5
  0
LWPOLYLINE
  5
151
330
17
100
AcDbEntity
  8
A-WALL-GLASS
100
AcDbPolyline
 90
4
 70
1
 10
3925.0
 20
10768.5
 10
4025.0
 20
10768.5
 10
4025.0
 20
12476.0
 10
3925.0
 20
12476.0
  0
LWPOLYLINE
  5
152
330
17
100
AcDbEntity
  8
A-WALL-BLOCK
100
AcDbPolyline
 90
6
 70
1
 10
18275.0
 20
9024.0
 10
22075.0
 20
9024.0
 10
22075.0
 20
9024.0
 10
22075.0
 20
9224.0
 10
22075.0
 20
9224.0
 10
18275.0
 20
9224.0
  0
HATCH
  5
153
330
17
100
AcDbEntity
  8
A-HATCH
 62
7
100
AcDbHatch
 10
0.0
 20
0.0
 30
0.0
210
0.0
220
0.0
230
1.0
  2
ANSI31
 70
0
 71
0
 91
1
 92
3
 72
0
 73
1
 93
6
 10
18275.0
 20
9024.0
 10
22075.0
 20
9024.0
 10
22075.0
 20
9024.0
 10
22075.0
 20
9224.0
 10
22075.0
 20
9224.0
 10
18275.0
 20
9224.0
 97
0
 75
1
 76
1
 52
0.0
 41
40.0
 77
0
 78
1
 53
45.0
 43
0.0
 44
0.0
 45
-89.802561212
 46
89.802561212
 79
0
 98
0
  0
LWPOLYLINE
  5
154
330
17
100
AcDbEntity
  8
A-WALL-GLASS
100
AcDbPolyline
 90
4
 70
1
 10
18175.0
 20
5861.0
 10
18275.0
 20
5861.0
 10
18275.0
 20
9224.0
 10
18175.0
 20
9224.0
  0
LWPOLYLINE
  5
155
330
17
100
AcDbEntity
  8
A-WALL-BLOCK
100
AcDbPolyline
 90
4
 70
1
 10
18075.0
 20
9224.0
 10
18275.0
 20
9224.0
 10
18275.0
 20
12476.0
 10
18075.0
 20
12476.0
  0
HATCH
  5
156
330
17
100
AcDbEntity
  8
A-HATCH
 62
7
100
AcDbHatch
 10
0.0
 20
0.0
 30
0.0
210
0.0
220
0.0
230
1.0
  2
ANSI31
 70
0
 71
0
 91
1
 92
3
 72
0
 73
1
 93
4
 10
18075.0
 20
9224.0
 10
18275.0
 20
9224.0
 10
18275.0
 20
12476.0
 10
18075.0
 20
12476.0
 97
0
 75
1
 76
1
 52
0.0
 41
40.0
 77
0
 78
1
 53
45.0
 43
0.0
 44
0.0
 45
-89.802561212
 46
89.802561212
 79
0
 98
0
  0
LWPOLYLINE
  5
157
330
17
100
AcDbEntity
  8
A-WALL-BLOCK
100
AcDbPolyline
 90
6
 70
1
 10
3618.0
 20
14076.0
 10
3818.0
 20
14076.0
 10
3818.0
 20
19075.0
 10
3818.0
 20
19075.0
 10
3618.0
 20
19075.0
 10
3618.0
 20
19075.0
  0
HATCH
  5
158
330
17
100
AcDbEntity
  8
A-HATCH
 62
7
100
AcDbHatch
 10
0.0
 20
0.0
 30
0.0
210
0.0
220
0.0
230
1.0
  2
ANSI31
 70
0
 71
0
 91
1
 92
3
 72
0
 73
1
 93
6
 10
3618.0
 20
14076.0
 10
3818.0
 20
14076.0
 10
3818.0
 20
19075.0
 10
3818.0
 20
19075.0
 10
3618.0
 20
19075.0
 10
3618.0
 20
19075.0
 97
0
 75
1
 76
1
 52
0.0
 41
40.0
 77
0
 78
1
 53
45.0
 43
0.0
 44
0.0
 45
-89.802561212
 46
89.802561212
 79
0
 98
0
  0
LWPOLYLINE
  5
159
330
17
100
AcDbEntity
  8
A-WALL-BLOCK
100
AcDbPolyline
 90
6
 70
1
 10
7311.0
 20
14076.0
 10
7511.0
 20
14076.0
 10
7511.0
 20
19075.0
 10
7511.0
 20
19075.0
 10
7311.0
 20
19075.0
 10
7311.0
 20
19075.0
  0
HATCH
  5
15A
330
17
100
AcDbEntity
  8
A-HATCH
 62
7
100
AcDbHatch
 10
0.0
 20
0.0
 30
0.0
210
0.0
220
0.0
230
1.0
  2
ANSI31
 70
0
 71
0
 91
1
 92
3
 72
0
 73
1
 93
6
 10
7311.0
 20
14076.0
 10
7511.0
 20
14076.0
 10
7511.0
 20
19075.0
 10
7511.0
 20
19075.0
 10
7311.0
 20
19075.0
 10
7311.0
 20
19075.0
 97
0
 75
1
 76
1
 52
0.0
 41
40.0
 77
0
 78
1
 53
45.0
 43
0.0
 44
0.0
 45
-89.802561212
 46
89.802561212
 79
0
 98
0
  0
LWPOLYLINE
  5
15B
330
17
100
AcDbEntity
  8
A-WALL-BLOCK
100
AcDbPolyline
 90
6
 70
1
 10
11004.0
 20
14076.0
 10
11204.0
 20
14076.0
 10
11204.0
 20
19075.0
 10
11204.0
 20
19075.0
 10
11004.0
 20
19075.0
 10
11004.0
 20
19075.0
  0
HATCH
  5
15C
330
17
100
AcDbEntity
  8
A-HATCH
 62
7
100
AcDbHatch
 10
0.0
 20
0.0
 30
0.0
210
0.0
220
0.0
230
1.0
  2
ANSI31
 70
0
 71
0
 91
1
 92
3
 72
0
 73
1
 93
6
 10
11004.0
 20
14076.0
 10
11204.0
 20
14076.0
 10
11204.0
 20
19075.0
 10
11204.0
 20
19075.0
 10
11004.0
 20
19075.0
 10
11004.0
 20
19075.0
 97
0
 75
1
 76
1
 52
0.0
 41
40.0
 77
0
 78
1
 53
45.0
 43
0.0
 44
0.0
 45
-89.802561212
 46
89.802561212
 79
0
 98
0
  0
LWPOLYLINE
  5
15D
330
17
100
AcDbEntity
  8
A-WALL-BLOCK
100
AcDbPolyline
 90
6
 70
1
 10
14697.0
 20
14076.0
 10
14897.0
 20
14076.0
 10
14897.0
 20
19075.0
 10
14897.0
 20
19075.0
 10
14697.0
 20
19075.0
 10
14697.0
 20
19075.0
  0
HATCH
  5
15E
330
17
100
AcDbEntity
  8
A-HATCH
 62
7
100
AcDbHatch
 10
0.0
 20
0.0
 30
0.0
210
0.0
220
0.0
230
1.0
  2
ANSI31
 70
0
 71
0
 91
1
 92
3
 72
0
 73
1
 93
6
 10
14697.0
 20
14076.0
 10
14897.0
 20
14076.0
 10
14897.0
 20
19075.0
 10
14897.0
 20
19075.0
 10
14697.0
 20
19075.0
 10
14697.0
 20
19075.0
 97
0
 75
1
 76
1
 52
0.0
 41
40.0
 77
0
 78
1
 53
45.0
 43
0.0
 44
0.0
 45
-89.802561212
 46
89.802561212
 79
0
 98
0
  0
LWPOLYLINE
  5
15F
330
17
100
AcDbEntity
  8
A-WALL-BLOCK
100
AcDbPolyline
 90
6
 70
1
 10
18390.0
 20
14076.0
 10
18590.0
 20
14076.0
 10
18590.0
 20
19075.0
 10
18590.0
 20
19075.0
 10
18390.0
 20
19075.0
 10
18390.0
 20
19075.0
  0
HATCH
  5
160
330
17
100
AcDbEntity
  8
A-HATCH
 62
7
100
AcDbHatch
 10
0.0
 20
0.0
 30
0.0
210
0.0
220
0.0
230
1.0
  2
ANSI31
 70
0
 71
0
 91
1
 92
3
 72
0
 73
1
 93
6
 10
18390.0
 20
14076.0
 10
18590.0
 20
14076.0
 10
18590.0
 20
19075.0
 10
18590.0
 20
19075.0
 10
18390.0
 20
19075.0
 10
18390.0
 20
19075.0
 97
0
 75
1
 76
1
 52
0.0
 41
40.0
 77
0
 78
1
 53
45.0
 43
0.0
 44
0.0
 45
-89.802561212
 46
89.802561212
 79
0
 98
0
  0
LWPOLYLINE
  5
161
330
17
100
AcDbEntity
  8
A-WALL-BLOCK
100
AcDbPolyline
 90
6
 70
1
 10
3547.0
 20
125.0
 10
3747.0
 20
125.0
 10
3747.0
 20
125.0
 10
3747.0
 20
4261.0
 10
3547.0
 20
4261.0
 10
3547.0
 20
125.0
  0
HATCH
  5
162
330
17
100
AcDbEntity
  8
A-HATCH
 62
7
100
AcDbHatch
 10
0.0
 20
0.0
 30
0.0
210
0.0
220
0.0
230
1.0
  2
ANSI31
 70
0
 71
0
 91
1
 92
3
 72
0
 73
1
 93
6
 10
3547.0
 20
125.0
 10
3747.0
 20
125.0
 10
3747.0
 20
125.0
 10
3747.0
 20
4261.0
 10
3547.0
 20
4261.0
 10
3547.0
 20
125.0
 97
0
 75
1
 76
1
 52
0.0
 41
40.0
 77
0
 78
1
 53
45.0
 43
0.0
 44
0.0
 45
-89.802561212
 46
89.802561212
 79
0
 98
0
  0
LWPOLYLINE
  5
163
330
17
100
AcDbEntity
  8
A-WALL-BLOCK
100
AcDbPolyline
 90
6
 70
1
 10
7770.0
 20
125.0
 10
7970.0
 20
125.0
 10
7970.0
 20
125.0
 10
7970.0
 20
4261.0
 10
7770.0
 20
4261.0
 10
7770.0
 20
125.0
  0
HATCH
  5
164
330
17
100
AcDbEntity
  8
A-HATCH
 62
7
100
AcDbHatch
 10
0.0
 20
0.0
 30
0.0
210
0.0
220
0.0
230
1.0
  2
ANSI31
 70
0
 71
0
 91
1
 92
3
 72
0
 73
1
 93
6
 10
7770.0
 20
125.0
 10
7970.0
 20
125.0
 10
7970.0
 20
125.0
 10
7970.0
 20
4261.0
 10
7770.0
 20
4261.0
 10
7770.0
 20
125.0
 97
0
 75
1
 76
1
 52
0.0
 41
40.0
 77
0
 78
1
 53
45.0
 43
0.0
 44
0.0
 45
-89.802561212
 46
89.802561212
 79
0
 98
0
  0
LWPOLYLINE
  5
165
330
17
100
AcDbEntity
  8
A-WALL-BLOCK
100
AcDbPolyline
 90
6
 70
1
 10
11993.0
 20
125.0
 10
12193.0
 20
125.0
 10
12193.0
 20
125.0
 10
12193.0
 20
4261.0
 10
11993.0
 20
4261.0
 10
11993.0
 20
125.0
  0
HATCH
  5
166
330
17
100
AcDbEntity
  8
A-HATCH
 62
7
100
AcDbHatch
 10
0.0
 20
0.0
 30
0.0
210
0.0
220
0.0
230
1.0
  2
ANSI31
 70
0
 71
0
 91
1
 92
3
 72
0
 73
1
 93
6
 10
11993.0
 20
125.0
 10
12193.0
 20
125.0
 10
12193.0
 20
125.0
 10
12193.0
 20
4261.0
 10
11993.0
 20
4261.0
 10
11993.0
 20
125.0
 97
0
 75
1
 76
1
 52
0.0
 41
40.0
 77
0
 78
1
 53
45.0
 43
0.0
 44
0.0
 45
-89.802561212
 46
89.802561212
 79
0
 98
0
  0
LWPOLYLINE
  5
167
330
17
100
AcDbEntity
  8
A-WALL-BLOCK
100
AcDbPolyline
 90
6
 70
1
 10
16216.0
 20
125.0
 10
16416.0
 20
125.0
 10
16416.0
 20
125.0
 10
16416.0
 20
4261.0
 10
16216.0
 20
4261.0
 10
16216.0
 20
125.0
  0
HATCH
  5
168
330
17
100
AcDbEntity
  8
A-HATCH
 62
7
100
AcDbHatch
 10
0.0
 20
0.0
 30
0.0
210
0.0
220
0.0
230
1.0
  2
ANSI31
 70
0
 71
0
 91
1
 92
3
 72
0
 73
1
 93
6
 10
16216.0
 20
125.0
 10
16416.0
 20
125.0
 10
16416.0
 20
125.0
 10
16416.0
 20
4261.0
 10
16216.0
 20
4261.0
 10
16216.0
 20
125.0
 97
0
 75
1
 76
1
 52
0.0
 41
40.0
 77
0
 78
1
 53
45.0
 43
0.0
 44
0.0
 45
-89.802561212
 46
89.802561212
 79
0
 98
0
  0
LWPOLYLINE
  5
169
330
17
100
AcDbEntity
  8
A-WALL-BLOCK
100
AcDbPolyline
 90
4
 70
1
 10
20639.0
 20
1015.7766952966344
 10
20639.0
 20
4261.0
 10
20439.0
 20
4261.0
 10
20439.0
 20
815.7766952966344
  0
HATCH
  5
16A
330
17
100
AcDbEntity
  8
A-HATCH
 62
7
100
AcDbHatch
 10
0.0
 20
0.0
 30
0.0
210
0.0
220
0.0
230
1.0
  2
ANSI31
 70
0
 71
0
 91
1
 92
3
 72
0
 73
1
 93
4
 10
20639.0
 20
1015.7766952966344
 10
20639.0
 20
4261.0
 10
20439.0
 20
4261.0
 10
20439.0
 20
815.7766952966344
 97
0
 75
1
 76
1
 52
0.0
 41
40.0
 77
0
 78
1
 53
45.0
 43
0.0
 44
0.0
 45
-89.802561212
 46
89.802561212
 79
0
 98
0
  0
LWPOLYLINE
  5
16B
330
17
100
AcDbEntity
  8
A-WALL-GLASS
100
AcDbPolyline
 90
6
 70
1
 10
125.0
 20
12376.0
 10
125.0
 20
12376.0
 10
3925.0
 20
12376.0
 10
3925.0
 20
12476.0
 10
125.0
 20
12476.0
 10
125.0
 20
12476.0
  0
LWPOLYLINE
  5
16C
330
17
100
AcDbEntity
  8
A-WALL-BLOCK
100
AcDbPolyline
 90
4
 70
1
 10
18275.0
 20
12376.0
 10
20425.0
 20
12376.0
 10
20425.0
 20
12476.0
 10
18275.0
 20
12476.0
  0
HATCH
  5
16D
330
17
100
AcDbEntity
  8
A-HATCH
 62
7
100
AcDbHatch
 10
0.0
 20
0.0
 30
0.0
210
0.0
220
0.0
230
1.0
  2
ANSI31
 70
0
 71
0
 91
1
 92
3
 72
0
 73
1
 93
4
 10
18275.0
 20
12376.0
 10
20425.0
 20
12376.0
 10
20425.0
 20
12476.0
 10
18275.0
 20
12476.0
 97
0
 75
1
 76
1
 52
0.0
 41
40.0
 77
0
 78
1
 53
45.0
 43
0.0
 44
0.0
 45
-89.802561212
 46
89.802561212
 79
0
 98
0
  0
LWPOLYLINE
  5
16E
330
17
100
AcDbEntity
  8
A-WALL-BLOCK
100
AcDbPolyline
 90
6
 70
1
 10
21325.0
 20
12376.0
 10
22075.0
 20
12376.0
 10
22075.0
 20
12376.0
 10
22075.0
 20
12476.0
 10
22075.0
 20
12476.0
 10
21325.0
 20
12476.0
  0
HATCH
  5
16F
330
17
100
AcDbEntity
  8
A-HATCH
 62
7
100
AcDbHatch
 10
0.0
 20
0.0
 30
0.0
210
0.0
220
0.0
230
1.0
  2
ANSI31
 70
0
 71
0
 91
1
 92
3
 72
0
 73
1
 93
6
 10
21325.0
 20
12376.0
 10
22075.0
 20
12376.0
 10
22075.0
 20
12376.0
 10
22075.0
 20
12476.0
 10
22075.0
 20
12476.0
 10
21325.0
 20
12476.0
 97
0
 75
1
 76
1
 52
0.0
 41
40.0
 77
0
 78
1
 53
45.0
 43
0.0
 44
0.0
 45
-89.802561212
 46
89.802561212
 79
0
 98
0
  0
LWPOLYLINE
  5
170
330
17
100
AcDbEntity
  8
A-WALL-BLOCK
100
AcDbPolyline
 90
6
 70
1
 10
125.0
 20
14076.0
 10
125.0
 20
14076.0
 10
1421.5
 20
14076.0
 10
1421.5
 20
14176.0
 10
125.0
 20
14176.0
 10
125.0
 20
14176.0
  0
HATCH
  5
171
330
17
100
AcDbEntity
  8
A-HATCH
 62
7
100
AcDbHatch
 10
0.0
 20
0.0
 30
0.0
210
0.0
220
0.0
230
1.0
  2
ANSI31
 70
0
 71
0
 91
1
 92
3
 72
0
 73
1
 93
6
 10
125.0
 20
14076.0
 10
125.0
 20
14076.0
 10
1421.5
 20
14076.0
 10
1421.5
 20
14176.0
 10
125.0
 20
14176.0
 10
125.0
 20
14176.0
 97
0
 75
1
 76
1
 52
0.0
 41
40.0
 77
0
 78
1
 53
45.0
 43
0.0
 44
0.0
 45
-89.802561212
 46
89.802561212
 79
0
 98
0
  0
LWPOLYLINE
  5
172
330
17
100
AcDbEntity
  8
A-WALL-BLOCK
100
AcDbPolyline
 90
4
 70
1
 10
2321.5
 20
14076.0
 10
3618.0
 20
14076.0
 10
3618.0
 20
14176.0
 10
2321.5
 20
14176.0
  0
HATCH
  5
173
330
17
100
AcDbEntity
  8
A-HATCH
 62
7
100
AcDbHatch
 10
0.0
 20
0.0
 30
0.0
210
0.0
220
0.0
230
1.0
  2
ANSI31
 70
0
 71
0
 91
1
 92
3
 72
0
 73
1
 93
4
 10
2321.5
 20
14076.0
 10
3618.0
 20
14076.0
 10
3618.0
 20
14176.0
 10
2321.5
 20
14176.0
 97
0
 75
1
 76
1
 52
0.0
 41
40.0
 77
0
 78
1
 53
45.0
 43
0.0
 44
0.0
 45
-89.802561212
 46
89.802561212
 79
0
 98
0
  0
LWPOLYLINE
  5
174
330
17
100
AcDbEntity
  8
A-WALL-BLOCK
100
AcDbPolyline
 90
4
 70
1
 10
3818.0
 20
14076.0
 10
5114.5
 20
14076.0
 10
5114.5
 20
14176.0
 10
3818.0
 20
14176.0
  0
HATCH
  5
175
330
17
100
AcDbEntity
  8
A-HATCH
 62
7
100
AcDbHatch
 10
0.0
 20
0.0
 30
0.0
210
0.0
220
0.0
230
1.0
  2
ANSI31
 70
0
 71
0
 91
1
 92
3
 72
0
 73
1
 93
4
 10
3818.0
 20
14076.0
 10
5114.5
 20
14076.0
 10
5114.5
 20
14176.0
 10
3818.0
 20
14176.0
 97
0
 75
1
 76
1
 52
0.0
 41
40.0
 77
0
 78
1
 53
45.0
 43
0.0
 44
0.0
 45
-89.802561212
 46
89.802561212
 79
0
 98
0
  0
LWPOLYLINE
  5
176
330
17
100
AcDbEntity
  8
A-WALL-BLOCK
100
AcDbPolyline
 90
4
 70
1
 10
6014.5
 20
14076.0
 10
7311.0
 20
14076.0
 10
7311.0
 20
14176.0
 10
6014.5
 20
14176.0
  0
HATCH
  5
177
330
17
100
AcDbEntity
  8
A-HATCH
 62
7
100
AcDbHatch
 10
0.0
 20
0.0
 30
0.0
210
0.0
220
0.0
230
1.0
  2
ANSI31
 70
0
 71
0
 91
1
 92
3
 72
0
 73
1
 93
4
 10
6014.5
 20
14076.0
 10
7311.0
 20
14076.0
 10
7311.0
 20
14176.0
 10
6014.5
 20
14176.0
 97
0
 75
1
 76
1
 52
0.0
 41
40.0
 77
0
 78
1
 53
45.0
 43
0.0
 44
0.0
 45
-89.802561212
 46
89.802561212
 79
0
 98
0
  0
LWPOLYLINE
  5
178
330
17
100
AcDbEntity
  8
A-WALL-BLOCK
100
AcDbPolyline
 90
4
 70
1
 10
7511.0
 20
14076.0
 10
8807.5
 20
14076.0
 10
8807.5
 20
14176.0
 10
7511.0
 20
14176.0
  0
HATCH
  5
179
330
17
100
AcDbEntity
  8
A-HATCH
 62
7
100
AcDbHatch
 10
0.0
 20
0.0
 30
0.0
210
0.0
220
0.0
230
1.0
  2
ANSI31
 70
0
 71
0
 91
1
 92
3
 72
0
 73
1
 93
4
 10
7511.0
 20
14076.0
 10
8807.5
 20
14076.0
 10
8807.5
 20
14176.0
 10
7511.0
 20
14176.0
 97
0
 75
1
 76
1
 52
0.0
 41
40.0
 77
0
 78
1
 53
45.0
 43
0.0
 44
0.0
 45
-89.802561212
 46
89.802561212
 79
0
 98
0
  0
LWPOLYLINE
  5
17A
330
17
100
AcDbEntity
  8
A-WALL-BLOCK
100
AcDbPolyline
 90
4
 70
1
 10
9707.5
 20
14076.0
 10
11004.0
 20
14076.0
 10
11004.0
 20
14176.0
 10
9707.5
 20
14176.0
  0
HATCH
  5
17B
330
17
100
AcDbEntity
  8
A-HATCH
 62
7
100
AcDbHatch
 10
0.0
 20
0.0
 30
0.0
210
0.0
220
0.0
230
1.0
  2
ANSI31
 70
0
 71
0
 91
1
 92
3
 72
0
 73
1
 93
4
 10
9707.5
 20
14076.0
 10
11004.0
 20
14076.0
 10
11004.0
 20
14176.0
 10
9707.5
 20
14176.0
 97
0
 75
1
 76
1
 52
0.0
 41
40.0
 77
0
 78
1
 53
45.0
 43
0.0
 44
0.0
 45
-89.802561212
 46
89.802561212
 79
0
 98
0
  0
LWPOLYLINE
  5
17C
330
17
100
AcDbEntity
  8
A-WALL-BLOCK
100
AcDbPolyline
 90
4
 70
1
 10
11204.0
 20
14076.0
 10
13200.5
 20
14076.0
 10
13200.5
 20
14176.0
 10
11204.0
 20
14176.0
  0
HATCH
  5
17D
330
17
100
AcDbEntity
  8
A-HATCH
 62
7
100
AcDbHatch
 10
0.0
 20
0.0
 30
0.0
210
0.0
220
0.0
230
1.0
  2
ANSI31
 70
0
 71
0
 91
1
 92
3
 72
0
 73
1
 93
4
 10
11204.0
 20
14076.0
 10
13200.5
 20
14076.0
 10
13200.5
 20
14176.0
 10
11204.0
 20
14176.0
 97
0
 75
1
 76
1
 52
0.0
 41
40.0
 77
0
 78
1
 53
45.0
 43
0.0
 44
0.0
 45
-89.802561212
 46
89.802561212
 79
0
 98
0
  0
LWPOLYLINE
  5
17E
330
17
100
AcDbEntity
  8
A-WALL-BLOCK
100
AcDbPolyline
 90
4
 70
1
 10
14100.5
 20
14076.0
 10
14697.0
 20
14076.0
 10
14697.0
 20
14176.0
 10
14100.5
 20
14176.0
  0
HATCH
  5
17F
330
17
100
AcDbEntity
  8
A-HATCH
 62
7
100
AcDbHatch
 10
0.0
 20
0.0
 30
0.0
210
0.0
220
0.0
230
1.0
  2
ANSI31
 70
0
 71
0
 91
1
 92
3
 72
0
 73
1
 93
4
 10
14100.5
 20
14076.0
 10
14697.0
 20
14076.0
 10
14697.0
 20
14176.0
 10
14100.5
 20
14176.0
 97
0
 75
1
 76
1
 52
0.0
 41
40.0
 77
0
 78
1
 53
45.0
 43
0.0
 44
0.0
 45
-89.802561212
 46
89.802561212
 79
0
 98
0
  0
LWPOLYLINE
  5
180
330
17
100
AcDbEntity
  8
A-WALL-BLOCK
100
AcDbPolyline
 90
4
 70
1
 10
14897.0
 20
14076.0
 10
16193.5
 20
14076.0
 10
16193.5
 20
14176.0
 10
14897.0
 20
14176.0
  0
HATCH
  5
181
330
17
100
AcDbEntity
  8
A-HATCH
 62
7
100
AcDbHatch
 10
0.0
 20
0.0
 30
0.0
210
0.0
220
0.0
230
1.0
  2
ANSI31
 70
0
 71
0
 91
1
 92
3
 72
0
 73
1
 93
4
 10
14897.0
 20
14076.0
 10
16193.5
 20
14076.0
 10
16193.5
 20
14176.0
 10
14897.0
 20
14176.0
 97
0
 75
1
 76
1
 52
0.0
 41
40.0
 77
0
 78
1
 53
45.0
 43
0.0
 44
0.0
 45
-89.802561212
 46
89.802561212
 79
0
 98
0
  0
LWPOLYLINE
  5
182
330
17
100
AcDbEntity
  8
A-WALL-BLOCK
100
AcDbPolyline
 90
4
 70
1
 10
17093.5
 20
14076.0
 10
18390.0
 20
14076.0
 10
18390.0
 20
14176.0
 10
17093.5
 20
14176.0
  0
HATCH
  5
183
330
17
100
AcDbEntity
  8
A-HATCH
 62
7
100
AcDbHatch
 10
0.0
 20
0.0
 30
0.0
210
0.0
220
0.0
230
1.0
  2
ANSI31
 70
0
 71
0
 91
1
 92
3
 72
0
 73
1
 93
4
 10
17093.5
 20
14076.0
 10
18390.0
 20
14076.0
 10
18390.0
 20
14176.0
 10
17093.5
 20
14176.0
 97
0
 75
1
 76
1
 52
0.0
 41
40.0
 77
0
 78
1
 53
45.0
 43
0.0
 44
0.0
 45
-89.802561212
 46
89.802561212
 79
0
 98
0
  0
LWPOLYLINE
  5
184
330
17
100
AcDbEntity
  8
A-WALL-RC
100
AcDbPolyline
 90
4
 70
1
 10
18590.0
 20
14076.0
 10
20975.0
 20
14076.0
 10
20975.0
 20
14176.0
 10
18590.0
 20
14176.0
  0
HATCH
  5
185
330
17
100
AcDbEntity
  8
A-WALL-RC
 62
7
100
AcDbHatch
 10
0.0
 20
0.0
 30
0.0
210
0.0
220
0.0
230
1.0
  2
SOLID
 70
1
 71
0
 91
1
 92
3
 72
0
 73
1
 93
4
 10
18590.0
 20
14076.0
 10
20975.0
 20
14076.0
 10
20975.0
 20
14176.0
 10
18590.0
 20
14176.0
 97
0
 75
1
 76
1
 98
0
  0
LWPOLYLINE
  5
186
330
17
100
AcDbEntity
  8
A-WALL-RC
100
AcDbPolyline
 90
6
 70
1
 10
125.0
 20
4161.0
 10
125.0
 20
4161.0
 10
2036.0
 20
4161.0
 10
2036.0
 20
4261.0
 10
125.0
 20
4261.0
 10
125.0
 20
4261.0
  0
HATCH
  5
187
330
17
100
AcDbEntity
  8
A-WALL-RC
 62
7
100
AcDbHatch
 10
0.0
 20
0.0
 30
0.0
210
0.0
220
0.0
230
1.0
  2
SOLID
 70
1
 71
0
 91
1
 92
3
 72
0
 73
1
 93
6
 10
125.0
 20
4161.0
 10
125.0
 20
4161.0
 10
2036.0
 20
4161.0
 10
2036.0
 20
4261.0
 10
125.0
 20
4261.0
 10
125.0
 20
4261.0
 97
0
 75
1
 76
1
 98
0
  0
LWPOLYLINE
  5
188
330
17
100
AcDbEntity
  8
A-WALL-RC
100
AcDbPolyline
 90
4
 70
1
 10
3036.0
 20
4161.0
 10
3547.0
 20
4161.0
 10
3547.0
 20
4261.0
 10
3036.0
 20
4261.0
  0
HATCH
  5
189
330
17
100
AcDbEntity
  8
A-WALL-RC
 62
7
100
AcDbHatch
 10
0.0
 20
0.0
 30
0.0
210
0.0
220
0.0
230
1.0
  2
SOLID
 70
1
 71
0
 91
1
 92
3
 72
0
 73
1
 93
4
 10
3036.0
 20
4161.0
 10
3547.0
 20
4161.0
 10
3547.0
 20
4261.0
 10
3036.0
 20
4261.0
 97
0
 75
1
 76
1
 98
0
  0
LWPOLYLINE
  5
18A
330
17
100
AcDbEntity
  8
A-WALL-BLOCK
100
AcDbPolyline
 90
4
 70
1
 10
3747.0
 20
4161.0
 10
6008.5
 20
4161.0
 10
6008.5
 20
4261.0
 10
3747.0
 20
4261.0
  0
HATCH
  5
18B
330
17
100
AcDbEntity
  8
A-HATCH
 62
7
100
AcDbHatch
 10
0.0
 20
0.0
 30
0.0
210
0.0
220
0.0
230
1.0
  2
ANSI31
 70
0
 71
0
 91
1
 92
3
 72
0
 73
1
 93
4
 10
3747.0
 20
4161.0
 10
6008.5
 20
4161.0
 10
6008.5
 20
4261.0
 10
3747.0
 20
4261.0
 97
0
 75
1
 76
1
 52
0.0
 41
40.0
 77
0
 78
1
 53
45.0
 43
0.0
 44
0.0
 45
-89.802561212
 46
89.802561212
 79
0
 98
0
  0
LWPOLYLINE
  5
18C
330
17
100
AcDbEntity
  8
A-WALL-BLOCK
100
AcDbPolyline
 90
4
 70
1
 10
6908.5
 20
4161.0
 10
7770.0
 20
4161.0
 10
7770.0
 20
4261.0
 10
6908.5
 20
4261.0
  0
HATCH
  5
18D
330
17
100
AcDbEntity
  8
A-HATCH
 62
7
100
AcDbHatch
 10
0.0
 20
0.0
 30
0.0
210
0.0
220
0.0
230
1.0
  2
ANSI31
 70
0
 71
0
 91
1
 92
3
 72
0
 73
1
 93
4
 10
6908.5
 20
4161.0
 10
7770.0
 20
4161.0
 10
7770.0
 20
4261.0
 10
6908.5
 20
4261.0
 97
0
 75
1
 76
1
 52
0.0
 41
40.0
 77
0
 78
1
 53
45.0
 43
0.0
 44
0.0
 45
-89.802561212
 46
89.802561212
 79
0
 98
0
  0
LWPOLYLINE
  5
18E
330
17
100
AcDbEntity
  8
A-WALL-BLOCK
100
AcDbPolyline
 90
4
 70
1
 10
7970.0
 20
4161.0
 10
10231.5
 20
4161.0
 10
10231.5
 20
4261.0
 10
7970.0
 20
4261.0
  0
HATCH
  5
18F
330
17
100
AcDbEntity
  8
A-HATCH
 62
7
100
AcDbHatch
 10
0.0
 20
0.0
 30
0.0
210
0.0
220
0.0
230
1.0
  2
ANSI31
 70
0
 71
0
 91
1
 92
3
 72
0
 73
1
 93
4
 10
7970.0
 20
4161.0
 10
10231.5
 20
4161.0
 10
10231.5
 20
4261.0
 10
7970.0
 20
4261.0
 97
0
 75
1
 76
1
 52
0.0
 41
40.0
 77
0
 78
1
 53
45.0
 43
0.0
 44
0.0
 45
-89.802561212
 46
89.802561212
 79
0
 98
0
  0
LWPOLYLINE
  5
190
330
17
100
AcDbEntity
  8
A-WALL-BLOCK
100
AcDbPolyline
 90
4
 70
1
 10
11131.5
 20
4161.0
 10
11993.0
 20
4161.0
 10
11993.0
 20
4261.0
 10
11131.5
 20
4261.0
  0
HATCH
  5
191
330
17
100
AcDbEntity
  8
A-HATCH
 62
7
100
AcDbHatch
 10
0.0
 20
0.0
 30
0.0
210
0.0
220
0.0
230
1.0
  2
ANSI31
 70
0
 71
0
 91
1
 92
3
 72
0
 73
1
 93
4
 10
11131.5
 20
4161.0
 10
11993.0
 20
4161.0
 10
11993.0
 20
4261.0
 10
11131.5
 20
4261.0
 97
0
 75
1
 76
1
 52
0.0
 41
40.0
 77
0
 78
1
 53
45.0
 43
0.0
 44
0.0
 45
-89.802561212
 46
89.802561212
 79
0
 98
0
  0
LWPOLYLINE
  5
192
330
17
100
AcDbEntity
  8
A-WALL-BLOCK
100
AcDbPolyline
 90
4
 70
1
 10
12193.0
 20
4161.0
 10
14454.5
 20
4161.0
 10
14454.5
 20
4261.0
 10
12193.0
 20
4261.0
  0
HATCH
  5
193
330
17
100
AcDbEntity
  8
A-HATCH
 62
7
100
AcDbHatch
 10
0.0
 20
0.0
 30
0.0
210
0.0
220
0.0
230
1.0
  2
ANSI31
 70
0
 71
0
 91
1
 92
3
 72
0
 73
1
 93
4
 10
12193.0
 20
4161.0
 10
14454.5
 20
4161.0
 10
14454.5
 20
4261.0
 10
12193.0
 20
4261.0
 97
0
 75
1
 76
1
 52
0.0
 41
40.0
 77
0
 78
1
 53
45.0
 43
0.0
 44
0.0
 45
-89.802561212
 46
89.802561212
 79
0
 98
0
  0
LWPOLYLINE
  5
194
330
17
100
AcDbEntity
  8
A-WALL-BLOCK
100
AcDbPolyline
 90
4
 70
1
 10
15354.5
 20
4161.0
 10
16216.0
 20
4161.0
 10
16216.0
 20
4261.0
 10
15354.5
 20
4261.0
  0
HATCH
  5
195
330
17
100
AcDbEntity
  8
A-HATCH
 62
7
100
AcDbHatch
 10
0.0
 20
0.0
 30
0.0
210
0.0
220
0.0
230
1.0
  2
ANSI31
 70
0
 71
0
 91
1
 92
3
 72
0
 73
1
 93
4
 10
15354.5
 20
4161.0
 10
16216.0
 20
4161.0
 10
16216.0
 20
4261.0
 10
15354.5
 20
4261.0
 97
0
 75
1
 76
1
 52
0.0
 41
40.0
 77
0
 78
1
 53
45.0
 43
0.0
 44
0.0
 45
-89.802561212
 46
89.802561212
 79
0
 98
0
  0
LWPOLYLINE
  5
196
330
17
100
AcDbEntity
  8
A-WALL-BLOCK
100
AcDbPolyline
 90
4
 70
1
 10
16416.0
 20
4161.0
 10
17977.5
 20
4161.0
 10
17977.5
 20
4261.0
 10
16416.0
 20
4261.0
  0
HATCH
  5
197
330
17
100
AcDbEntity
  8
A-HATCH
 62
7
100
AcDbHatch
 10
0.0
 20
0.0
 30
0.0
210
0.0
220
0.0
230
1.0
  2
ANSI31
 70
0
 71
0
 91
1
 92
3
 72
0
 73
1
 93
4
 10
16416.0
 20
4161.0
 10
17977.5
 20
4161.0
 10
17977.5
 20
4261.0
 10
16416.0
 20
4261.0
 97
0
 75
1
 76
1
 52
0.0
 41
40.0
 77
0
 78
1
 53
45.0
 43
0.0
 44
0.0
 45
-89.802561212
 46
89.802561212
 79
0
 98
0
  0
LWPOLYLINE
  5
198
330
17
100
AcDbEntity
  8
A-WALL-BLOCK
100
AcDbPolyline
 90
4
 70
1
 10
18877.5
 20
4161.0
 10
20439.0
 20
4161.0
 10
20439.0
 20
4261.0
 10
18877.5
 20
4261.0
  0
HATCH
  5
199
330
17
100
AcDbEntity
  8
A-HATCH
 62
7
100
AcDbHatch
 10
0.0
 20
0.0
 30
0.0
210
0.0
220
0.0
230
1.0
  2
ANSI31
 70
0
 71
0
 91
1
 92
3
 72
0
 73
1
 93
4
 10
18877.5
 20
4161.0
 10
20439.0
 20
4161.0
 10
20439.0
 20
4261.0
 10
18877.5
 20
4261.0
 97
0
 75
1
 76
1
 52
0.0
 41
40.0
 77
0
 78
1
 53
45.0
 43
0.0
 44
0.0
 45
-89.802561212
 46
89.802561212
 79
0
 98
0
  0
LWPOLYLINE
  5
19A
330
17
100
AcDbEntity
  8
A-WALL-BLOCK
100
AcDbPolyline
 90
4
 70
1
 10
20639.0
 20
4161.0
 10
21075.0
 20
4161.0
 10
21075.0
 20
4261.0
 10
20639.0
 20
4261.0
  0
HATCH
  5
19B
330
17
100
AcDbEntity
  8
A-HATCH
 62
7
100
AcDbHatch
 10
0.0
 20
0.0
 30
0.0
210
0.0
220
0.0
230
1.0
  2
ANSI31
 70
0
 71
0
 91
1
 92
3
 72
0
 73
1
 93
4
 10
20639.0
 20
4161.0
 10
21075.0
 20
4161.0
 10
21075.0
 20
4261.0
 10
20639.0
 20
4261.0
 97
0
 75
1
 76
1
 52
0.0
 41
40.0
 77
0
 78
1
 53
45.0
 43
0.0
 44
0.0
 45
-89.802561212
 46
89.802561212
 79
0
 98
0
  0
LWPOLYLINE
  5
19C
330
17
100
AcDbEntity
  8
A-WALL-GLASS
100
AcDbPolyline
 90
6
 70
1
 10
125.0
 20
5861.0
 10
125.0
 20
5861.0
 10
3925.0
 20
5861.0
 10
3925.0
 20
5961.0
 10
125.0
 20
5961.0
 10
125.0
 20
5961.0
  0
LWPOLYLINE
  5
19D
330
17
100
AcDbEntity
  8
A-WALL-GLASS
100
AcDbPolyline
 90
4
 70
1
 10
18275.0
 20
5861.0
 10
19725.0
 20
5861.0
 10
19725.0
 20
5961.0
 10
18275.0
 20
5961.0
  0
LWPOLYLINE
  5
19E
330
17
100
AcDbEntity
  8
A-WALL-GLASS
100
AcDbPolyline
 90
6
 70
1
 10
20625.0
 20
5861.0
 10
22075.0
 20
5861.0
 10
22075.0
 20
5861.0
 10
22075.0
 20
5961.0
 10
22075.0
 20
5961.0
 10
20625.0
 20
5961.0
  0
LWPOLYLINE
  5
19F
330
17
100
AcDbEntity
  8
A-WALL-BLOCK
100
AcDbPolyline
 90
6
 70
1
 10
21975.0
 20
14026.0
 10
22075.0
 20
14026.0
 10
22075.0
 20
14026.0
 10
22075.0
 20
14126.0
 10
22075.0
 20
14126.0
 10
21975.0
 20
14126.0
  0
HATCH
  5
1A0
330
17
100
AcDbEntity
  8
A-HATCH
 62
7
100
AcDbHatch
 10
0.0
 20
0.0
 30
0.0
210
0.0
220
0.0
230
1.0
  2
ANSI31
 70
0
 71
0
 91
1
 92
3
 72
0
 73
1
 93
6
 10
21975.0
 20
14026.0
 10
22075.0
 20
14026.0
 10
22075.0
 20
14026.0
 10
22075.0
 20
14126.0
 10
22075.0
 20
14126.0
 10
21975.0
 20
14126.0
 97
0
 75
1
 76
1
 52
0.0
 41
40.0
 77
0
 78
1
 53
45.0
 43
0.0
 44
0.0
 45
-89.802561212
 46
89.802561212
 79
0
 98
0
  0
LWPOLYLINE
  5
1A1
330
17
100
AcDbEntity
  8
A-WALL-BLOCK
100
AcDbPolyline
 90
4
 70
1
 10
20639.0
 20
4211.0
 10
21075.0
 20
4211.0
 10
21075.0
 20
4311.0
 10
20639.0
 20
4311.0
  0
HATCH
  5
1A2
330
17
100
AcDbEntity
  8
A-HATCH
 62
7
100
AcDbHatch
 10
0.0
 20
0.0
 30
0.0
210
0.0
220
0.0
230
1.0
  2
ANSI31
 70
0
 71
0
 91
1
 92
3
 72
0
 73
1
 93
4
 10
20639.0
 20
4211.0
 10
21075.0
 20
4211.0
 10
21075.0
 20
4311.0
 10
20639.0
 20
4311.0
 97
0
 75
1
 76
1
 52
0.0
 41
40.0
 77
0
 78
1
 53
45.0
 43
0.0
 44
0.0
 45
-89.802561212
 46
89.802561212
 79
0
 98
0
  0
HATCH
  5
1A3
330
17
100
AcDbEntity
  8
E-SERVER-ROOM
 62
7
100
AcDbHatch
 10
0.0
 20
0.0
 30
0.0
210
0.0
220
0.0
230
1.0
  2
ANSI31
 70
0
 71
0
 91
1
 92
3
 72
0
 73
1
 93
4
 10
14897.0
 20
14076.0
 10
18390.0
 20
14076.0
 10
18390.0
 20
19075.0
 10
14897.0
 20
19075.0
 97
0
 75
1
 76
1
 52
0.0
 41
260.0
 77
0
 78
1
 53
45.0
 43
0.0
 44
0.0
 45
-583.716647878
 46
583.716647878
 79
0
 98
0
  0
LWPOLYLINE
  5
1A4
330
17
100
AcDbEntity
  8
E-SCS-RISER
100
AcDbPolyline
 90
4
 70
1
 10
15047.0
 20
18025.0
 10
15947.0
 20
18025.0
 10
15947.0
 20
18925.0
 10
15047.0
 20
18925.0
  0
HATCH
  5
1A5
330
17
100
AcDbEntity
  8
E-SCS-RISER
 62
7
100
AcDbHatch
 10
0.0
 20
0.0
 30
0.0
210
0.0
220
0.0
230
1.0
  2
SOLID
 70
1
 71
0
 91
1
 92
3
 72
0
 73
1
 93
4
 10
15047.0
 20
18025.0
 10
15947.0
 20
18025.0
 10
15947.0
 20
18925.0
 10
15047.0
 20
18925.0
 97
0
 75
1
 76
1
 98
0
  0
TEXT
  5
1A6
330
17
100
AcDbEntity
  8
E-SCS-RISER
100
AcDbText
 10
16567.0
 20
18475.0
 30
0.0
 40
220.0
  1
СКС
  7
Arial-Bold
 72
1
 11
16567.0
 21
18475.0
 31
0.0
100
AcDbText
 73
2
  0
LWPOLYLINE
  5
1A7
330
17
100
AcDbEntity
  8
E-SCS-RISER
100
AcDbPolyline
 90
4
 70
1
 10
21025.0
 20
6011.0
 10
21925.0
 20
6011.0
 10
21925.0
 20
6911.0
 10
21025.0
 20
6911.0
  0
HATCH
  5
1A8
330
17
100
AcDbEntity
  8
E-SCS-RISER
 62
7
100
AcDbHatch
 10
0.0
 20
0.0
 30
0.0
210
0.0
220
0.0
230
1.0
  2
SOLID
 70
1
 71
0
 91
1
 92
3
 72
0
 73
1
 93
4
 10
21025.0
 20
6011.0
 10
21925.0
 20
6011.0
 10
21925.0
 20
6911.0
 10
21025.0
 20
6911.0
 97
0
 75
1
 76
1
 98
0
  0
TEXT
  5
1A9
330
17
100
AcDbEntity
  8
E-SCS-RISER
100
AcDbText
 10
20405.0
 20
6461.0
 30
0.0
 40
220.0
  1
СКС
  7
Arial-Bold
 72
1
 11
20405.0
 21
6461.0
 31
0.0
100
AcDbText
 73
2
  0
LINE
  5
1AA
330
17
100
AcDbEntity
  8
A-DOOR
100
AcDbLine
 10
6608.25
 20
9372.0
 30
0.0
 11
6608.25
 21
9572.0
 31
0.0
  0
LINE
  5
1AB
330
17
100
AcDbEntity
  8
A-DOOR
100
AcDbLine
 10
7708.25
 20
9372.0
 30
0.0
 11
7708.25
 21
9572.0
 31
0.0
  0
LINE
  5
1AC
330
17
100
AcDbEntity
  8
A-DOOR
100
AcDbLine
 10
9474.75
 20
9372.0
 30
0.0
 11
9474.75
 21
9572.0
 31
0.0
  0
LINE
  5
1AD
330
17
100
AcDbEntity
  8
A-DOOR
100
AcDbLine
 10
10574.75
 20
9372.0
 30
0.0
 11
10574.75
 21
9572.0
 31
0.0
  0
LINE
  5
1AE
330
17
100
AcDbEntity
  8
A-DOOR
100
AcDbLine
 10
13616.5
 20
12276.0
 30
0.0
 11
13616.5
 21
12476.0
 31
0.0
  0
LINE
  5
1AF
330
17
100
AcDbEntity
  8
A-DOOR
100
AcDbLine
 10
14516.5
 20
12276.0
 30
0.0
 11
14516.5
 21
12476.0
 31
0.0
  0
LINE
  5
1B0
330
17
100
AcDbEntity
  8
A-DOOR
100
AcDbLine
 10
13616.5
 20
12376.0
 30
0.0
 11
13616.5
 21
11476.0
 31
0.0
  0
ARC
  5
1B1
330
17
100
AcDbEntity
  8
A-DOOR
100
AcDbCircle
 10
13616.5
 20
12376.0
 30
0.0
 40
900.0
100
AcDbArc
 50
-90.0
 51
0.0
  0
LINE
  5
1B2
330
17
100
AcDbEntity
  8
A-DOOR
100
AcDbLine
 10
8141.5
 20
5861.0
 30
0.0
 11
8141.5
 21
6061.0
 31
0.0
  0
LINE
  5
1B3
330
17
100
AcDbEntity
  8
A-DOOR
100
AcDbLine
 10
9041.5
 20
5861.0
 30
0.0
 11
9041.5
 21
6061.0
 31
0.0
  0
LINE
  5
1B4
330
17
100
AcDbEntity
  8
A-DOOR
100
AcDbLine
 10
8141.5
 20
5961.0
 30
0.0
 11
8141.5
 21
6861.0
 31
0.0
  0
ARC
  5
1B5
330
17
100
AcDbEntity
  8
A-DOOR
100
AcDbCircle
 10
8141.5
 20
5961.0
 30
0.0
 40
900.0
100
AcDbArc
 50
0.0
 51
90.0
  0
LINE
  5
1B6
330
17
100
AcDbEntity
  8
A-DOOR
100
AcDbLine
 10
12362.0
 20
5861.0
 30
0.0
 11
12362.0
 21
6061.0
 31
0.0
  0
LINE
  5
1B7
330
17
100
AcDbEntity
  8
A-DOOR
100
AcDbLine
 10
13262.0
 20
5861.0
 30
0.0
 11
13262.0
 21
6061.0
 31
0.0
  0
LINE
  5
1B8
330
17
100
AcDbEntity
  8
A-DOOR
100
AcDbLine
 10
12362.0
 20
5961.0
 30
0.0
 11
12362.0
 21
6861.0
 31
0.0
  0
ARC
  5
1B9
330
17
100
AcDbEntity
  8
A-DOOR
100
AcDbCircle
 10
12362.0
 20
5961.0
 30
0.0
 40
900.0
100
AcDbArc
 50
0.0
 51
90.0
  0
LINE
  5
1BA
330
17
100
AcDbEntity
  8
A-DOOR
100
AcDbLine
 10
16475.0
 20
7266.5
 30
0.0
 11
16675.0
 21
7266.5
 31
0.0
  0
LINE
  5
1BB
330
17
100
AcDbEntity
  8
A-DOOR
100
AcDbLine
 10
16475.0
 20
8166.5
 30
0.0
 11
16675.0
 21
8166.5
 31
0.0
  0
LINE
  5
1BC
330
17
100
AcDbEntity
  8
A-DOOR
100
AcDbLine
 10
16575.0
 20
7266.5
 30
0.0
 11
15675.0
 21
7266.5
 31
0.0
  0
ARC
  5
1BD
330
17
100
AcDbEntity
  8
A-DOOR
100
AcDbCircle
 10
16575.0
 20
7266.5
 30
0.0
 40
900.0
100
AcDbArc
 50
90.0
 51
180.0
  0
LINE
  5
1BE
330
17
100
AcDbEntity
  8
A-DOOR
100
AcDbLine
 10
3875.0
 20
8968.5
 30
0.0
 11
3975.0
 21
8968.5
 31
0.0
  0
LINE
  5
1BF
330
17
100
AcDbEntity
  8
A-DOOR
100
AcDbLine
 10
3875.0
 20
10768.5
 30
0.0
 11
3975.0
 21
10768.5
 31
0.0
  0
LINE
  5
1C0
330
17
100
AcDbEntity
  8
A-DOOR
100
AcDbLine
 10
19725.0
 20
5811.0
 30
0.0
 11
19725.0
 21
5911.0
 31
0.0
  0
LINE
  5
1C1
330
17
100
AcDbEntity
  8
A-DOOR
100
AcDbLine
 10
20625.0
 20
5811.0
 30
0.0
 11
20625.0
 21
5911.0
 31
0.0
  0
LINE
  5
1C2
330
17
100
AcDbEntity
  8
A-DOOR
100
AcDbLine
 10
19725.0
 20
5861.0
 30
0.0
 11
19725.0
 21
6761.0
 31
0.0
  0
ARC
  5
1C3
330
17
100
AcDbEntity
  8
A-DOOR
100
AcDbCircle
 10
19725.0
 20
5861.0
 30
0.0
 40
900.0
100
AcDbArc
 50
0.0
 51
90.0
  0
LINE
  5
1C4
330
17
100
AcDbEntity
  8
A-DOOR
100
AcDbLine
 10
20425.0
 20
12426.0
 30
0.0
 11
20425.0
 21
12526.0
 31
0.0
  0
LINE
  5
1C5
330
17
100
AcDbEntity
  8
A-DOOR
100
AcDbLine
 10
21325.0
 20
12426.0
 30
0.0
 11
21325.0
 21
12526.0
 31
0.0
  0
LINE
  5
1C6
330
17
100
AcDbEntity
  8
A-DOOR
100
AcDbLine
 10
20425.0
 20
12476.0
 30
0.0
 11
20425.0
 21
11576.0
 31
0.0
  0
ARC
  5
1C7
330
17
100
AcDbEntity
  8
A-DOOR
100
AcDbCircle
 10
20425.0
 20
12476.0
 30
0.0
 40
900.0
100
AcDbArc
 50
-90.0
 51
0.0
  0
LINE
  5
1C8
330
17
100
AcDbEntity
  8
A-DOOR
100
AcDbLine
 10
1421.5
 20
14026.0
 30
0.0
 11
1421.5
 21
14126.0
 31
0.0
  0
LINE
  5
1C9
330
17
100
AcDbEntity
  8
A-DOOR
100
AcDbLine
 10
2321.5
 20
14026.0
 30
0.0
 11
2321.5
 21
14126.0
 31
0.0
  0
LINE
  5
1CA
330
17
100
AcDbEntity
  8
A-DOOR
100
AcDbLine
 10
1421.5
 20
14076.0
 30
0.0
 11
1421.5
 21
14976.0
 31
0.0
  0
ARC
  5
1CB
330
17
100
AcDbEntity
  8
A-DOOR
100
AcDbCircle
 10
1421.5
 20
14076.0
 30
0.0
 40
900.0
100
AcDbArc
 50
0.0
 51
90.0
  0
LINE
  5
1CC
330
17
100
AcDbEntity
  8
A-DOOR
100
AcDbLine
 10
5114.5
 20
14026.0
 30
0.0
 11
5114.5
 21
14126.0
 31
0.0
  0
LINE
  5
1CD
330
17
100
AcDbEntity
  8
A-DOOR
100
AcDbLine
 10
6014.5
 20
14026.0
 30
0.0
 11
6014.5
 21
14126.0
 31
0.0
  0
LINE
  5
1CE
330
17
100
AcDbEntity
  8
A-DOOR
100
AcDbLine
 10
5114.5
 20
14076.0
 30
0.0
 11
5114.5
 21
14976.0
 31
0.0
  0
ARC
  5
1CF
330
17
100
AcDbEntity
  8
A-DOOR
100
AcDbCircle
 10
5114.5
 20
14076.0
 30
0.0
 40
900.0
100
AcDbArc
 50
0.0
 51
90.0
  0
LINE
  5
1D0
330
17
100
AcDbEntity
  8
A-DOOR
100
AcDbLine
 10
8807.5
 20
14026.0
 30
0.0
 11
8807.5
 21
14126.0
 31
0.0
  0
LINE
  5
1D1
330
17
100
AcDbEntity
  8
A-DOOR
100
AcDbLine
 10
9707.5
 20
14026.0
 30
0.0
 11
9707.5
 21
14126.0
 31
0.0
  0
LINE
  5
1D2
330
17
100
AcDbEntity
  8
A-DOOR
100
AcDbLine
 10
8807.5
 20
14076.0
 30
0.0
 11
8807.5
 21
14976.0
 31
0.0
  0
ARC
  5
1D3
330
17
100
AcDbEntity
  8
A-DOOR
100
AcDbCircle
 10
8807.5
 20
14076.0
 30
0.0
 40
900.0
100
AcDbArc
 50
0.0
 51
90.0
  0
LINE
  5
1D4
330
17
100
AcDbEntity
  8
A-DOOR
100
AcDbLine
 10
13200.5
 20
14026.0
 30
0.0
 11
13200.5
 21
14126.0
 31
0.0
  0
LINE
  5
1D5
330
17
100
AcDbEntity
  8
A-DOOR
100
AcDbLine
 10
14100.5
 20
14026.0
 30
0.0
 11
14100.5
 21
14126.0
 31
0.0
  0
LINE
  5
1D6
330
17
100
AcDbEntity
  8
A-DOOR
100
AcDbLine
 10
13200.5
 20
14076.0
 30
0.0
 11
13200.5
 21
14976.0
 31
0.0
  0
ARC
  5
1D7
330
17
100
AcDbEntity
  8
A-DOOR
100
AcDbCircle
 10
13200.5
 20
14076.0
 30
0.0
 40
900.0
100
AcDbArc
 50
0.0
 51
90.0
  0
LINE
  5
1D8
330
17
100
AcDbEntity
  8
A-DOOR
100
AcDbLine
 10
16193.5
 20
14026.0
 30
0.0
 11
16193.5
 21
14126.0
 31
0.0
  0
LINE
  5
1D9
330
17
100
AcDbEntity
  8
A-DOOR
100
AcDbLine
 10
17093.5
 20
14026.0
 30
0.0
 11
17093.5
 21
14126.0
 31
0.0
  0
LINE
  5
1DA
330
17
100
AcDbEntity
  8
A-DOOR
100
AcDbLine
 10
16193.5
 20
14076.0
 30
0.0
 11
16193.5
 21
14976.0
 31
0.0
  0
ARC
  5
1DB
330
17
100
AcDbEntity
  8
A-DOOR
100
AcDbCircle
 10
16193.5
 20
14076.0
 30
0.0
 40
900.0
100
AcDbArc
 50
0.0
 51
90.0
  0
LINE
  5
1DC
330
17
100
AcDbEntity
  8
A-DOOR
100
AcDbLine
 10
20975.0
 20
14026.0
 30
0.0
 11
20975.0
 21
14126.0
 31
0.0
  0
LINE
  5
1DD
330
17
100
AcDbEntity
  8
A-DOOR
100
AcDbLine
 10
21975.0
 20
14026.0
 30
0.0
 11
21975.0
 21
14126.0
 31
0.0
  0
LINE
  5
1DE
330
17
100
AcDbEntity
  8
A-DOOR
100
AcDbLine
 10
20975.0
 20
14076.0
 30
0.0
 11
20975.0
 21
13076.0
 31
0.0
  0
ARC
  5
1DF
330
17
100
AcDbEntity
  8
A-DOOR
100
AcDbCircle
 10
20975.0
 20
14076.0
 30
0.0
 40
1000.0
100
AcDbArc
 50
-90.0
 51
0.0
  0
LINE
  5
1E0
330
17
100
AcDbEntity
  8
A-DOOR
100
AcDbLine
 10
2036.0
 20
4211.0
 30
0.0
 11
2036.0
 21
4311.0
 31
0.0
  0
LINE
  5
1E1
330
17
100
AcDbEntity
  8
A-DOOR
100
AcDbLine
 10
3036.0
 20
4211.0
 30
0.0
 11
3036.0
 21
4311.0
 31
0.0
  0
LINE
  5
1E2
330
17
100
AcDbEntity
  8
A-DOOR
100
AcDbLine
 10
2036.0
 20
4261.0
 30
0.0
 11
2036.0
 21
5261.0
 31
0.0
  0
ARC
  5
1E3
330
17
100
AcDbEntity
  8
A-DOOR
100
AcDbCircle
 10
2036.0
 20
4261.0
 30
0.0
 40
1000.0
100
AcDbArc
 50
0.0
 51
90.0
  0
LINE
  5
1E4
330
17
100
AcDbEntity
  8
A-DOOR
100
AcDbLine
 10
6008.5
 20
4211.0
 30
0.0
 11
6008.5
 21
4311.0
 31
0.0
  0
LINE
  5
1E5
330
17
100
AcDbEntity
  8
A-DOOR
100
AcDbLine
 10
6908.5
 20
4211.0
 30
0.0
 11
6908.5
 21
4311.0
 31
0.0
  0
LINE
  5
1E6
330
17
100
AcDbEntity
  8
A-DOOR
100
AcDbLine
 10
6008.5
 20
4261.0
 30
0.0
 11
6008.5
 21
3361.0
 31
0.0
  0
ARC
  5
1E7
330
17
100
AcDbEntity
  8
A-DOOR
100
AcDbCircle
 10
6008.5
 20
4261.0
 30
0.0
 40
900.0
100
AcDbArc
 50
-90.0
 51
0.0
  0
LINE
  5
1E8
330
17
100
AcDbEntity
  8
A-DOOR
100
AcDbLine
 10
10231.5
 20
4211.0
 30
0.0
 11
10231.5
 21
4311.0
 31
0.0
  0
LINE
  5
1E9
330
17
100
AcDbEntity
  8
A-DOOR
100
AcDbLine
 10
11131.5
 20
4211.0
 30
0.0
 11
11131.5
 21
4311.0
 31
0.0
  0
LINE
  5
1EA
330
17
100
AcDbEntity
  8
A-DOOR
100
AcDbLine
 10
10231.5
 20
4261.0
 30
0.0
 11
10231.5
 21
3361.0
 31
0.0
  0
ARC
  5
1EB
330
17
100
AcDbEntity
  8
A-DOOR
100
AcDbCircle
 10
10231.5
 20
4261.0
 30
0.0
 40
900.0
100
AcDbArc
 50
-90.0
 51
0.0
  0
LINE
  5
1EC
330
17
100
AcDbEntity
  8
A-DOOR
100
AcDbLine
 10
14454.5
 20
4211.0
 30
0.0
 11
14454.5
 21
4311.0
 31
0.0
  0
LINE
  5
1ED
330
17
100
AcDbEntity
  8
A-DOOR
100
AcDbLine
 10
15354.5
 20
4211.0
 30
0.0
 11
15354.5
 21
4311.0
 31
0.0
  0
LINE
  5
1EE
330
17
100
AcDbEntity
  8
A-DOOR
100
AcDbLine
 10
14454.5
 20
4261.0
 30
0.0
 11
14454.5
 21
3361.0
 31
0.0
  0
ARC
  5
1EF
330
17
100
AcDbEntity
  8
A-DOOR
100
AcDbCircle
 10
14454.5
 20
4261.0
 30
0.0
 40
900.0
100
AcDbArc
 50
-90.0
 51
0.0
  0
LINE
  5
1F0
330
17
100
AcDbEntity
  8
A-DOOR
100
AcDbLine
 10
17977.5
 20
4211.0
 30
0.0
 11
17977.5
 21
4311.0
 31
0.0
  0
LINE
  5
1F1
330
17
100
AcDbEntity
  8
A-DOOR
100
AcDbLine
 10
18877.5
 20
4211.0
 30
0.0
 11
18877.5
 21
4311.0
 31
0.0
  0
LINE
  5
1F2
330
17
100
AcDbEntity
  8
A-DOOR
100
AcDbLine
 10
17977.5
 20
4261.0
 30
0.0
 11
17977.5
 21
3361.0
 31
0.0
  0
ARC
  5
1F3
330
17
100
AcDbEntity
  8
A-DOOR
100
AcDbCircle
 10
17977.5
 20
4261.0
 30
0.0
 40
900.0
100
AcDbArc
 50
-90.0
 51
0.0
  0
LINE
  5
1F4
330
17
100
AcDbEntity
  8
A-DOOR
100
AcDbLine
 10
21075.0
 20
4211.0
 30
0.0
 11
21075.0
 21
4311.0
 31
0.0
  0
LINE
  5
1F5
330
17
100
AcDbEntity
  8
A-DOOR
100
AcDbLine
 10
21975.0
 20
4211.0
 30
0.0
 11
21975.0
 21
4311.0
 31
0.0
  0
LINE
  5
1F6
330
17
100
AcDbEntity
  8
A-DOOR
100
AcDbLine
 10
21075.0
 20
4261.0
 30
0.0
 11
21075.0
 21
3361.0
 31
0.0
  0
ARC
  5
1F7
330
17
100
AcDbEntity
  8
A-DOOR
100
AcDbCircle
 10
21075.0
 20
4261.0
 30
0.0
 40
900.0
100
AcDbArc
 50
-90.0
 51
0.0
  0
LWPOLYLINE
  5
1F8
330
17
100
AcDbEntity
  8
A-ELEV
100
AcDbPolyline
 90
4
 70
1
 10
5958.25
 20
9722.0
 10
8358.25
 20
9722.0
 10
8358.25
 20
12126.0
 10
5958.25
 20
12126.0
  0
LINE
  5
1F9
330
17
100
AcDbEntity
  8
A-ELEV
100
AcDbLine
 10
5958.25
 20
9722.0
 30
0.0
 11
8358.25
 21
12126.0
 31
0.0
  0
LINE
  5
1FA
330
17
100
AcDbEntity
  8
A-ELEV
100
AcDbLine
 10
5958.25
 20
12126.0
 30
0.0
 11
8358.25
 21
9722.0
 31
0.0
  0
LWPOLYLINE
  5
1FB
330
17
100
AcDbEntity
  8
A-ELEV
100
AcDbPolyline
 90
4
 70
1
 10
8824.75
 20
9722.0
 10
11224.75
 20
9722.0
 10
11224.75
 20
12126.0
 10
8824.75
 20
12126.0
  0
LINE
  5
1FC
330
17
100
AcDbEntity
  8
A-ELEV
100
AcDbLine
 10
8824.75
 20
9722.0
 30
0.0
 11
11224.75
 21
12126.0
 31
0.0
  0
LINE
  5
1FD
330
17
100
AcDbEntity
  8
A-ELEV
100
AcDbLine
 10
8824.75
 20
12126.0
 30
0.0
 11
11224.75
 21
9722.0
 31
0.0
  0
LINE
  5
1FE
330
17
100
AcDbEntity
  8
A-ELEV
100
AcDbLine
 10
8591.5
 20
9572.0
 30
0.0
 11
8591.5
 21
12276.0
 31
0.0
  0
LWPOLYLINE
  5
1FF
330
17
100
AcDbEntity
  8
A-FURN
100
AcDbPolyline
 90
4
 70
1
 10
11858.0
 20
9572.0
 10
13458.0
 20
9572.0
 10
13458.0
 20
10372.0
 10
11858.0
 20
10372.0
  0
CIRCLE
  5
200
330
17
100
AcDbEntity
  8
A-FURN
100
AcDbCircle
 10
12658.0
 20
10872.0
 30
0.0
 40
240.0
  0
LWPOLYLINE
  5
201
330
17
100
AcDbEntity
  8
A-FURN
100
AcDbPolyline
 90
4
 70
1
 10
13858.0
 20
9572.0
 10
15458.0
 20
9572.0
 10
15458.0
 20
10372.0
 10
13858.0
 20
10372.0
  0
CIRCLE
  5
202
330
17
100
AcDbEntity
  8
A-FURN
100
AcDbCircle
 10
14658.0
 20
10872.0
 30
0.0
 40
240.0
  0
LWPOLYLINE
  5
203
330
17
100
AcDbEntity
  8
A-FURN
100
AcDbPolyline
 90
4
 70
1
 10
16025.0
 20
9772.0
 10
16475.0
 20
9772.0
 10
16475.0
 20
10972.0
 10
16025.0
 20
10972.0
  0
LWPOLYLINE
  5
204
330
17
100
AcDbEntity
  8
A-SANI
100
AcDbPolyline
 90
4
 70
1
 10
11658.0
 20
7872.0
 10
12812.0
 20
7872.0
 10
12812.0
 20
9372.0
 10
11658.0
 20
9372.0
  0
LWPOLYLINE
  5
205
330
17
100
AcDbEntity
  8
A-SANI
100
AcDbPolyline
 90
4
 70
1
 10
12055.0
 20
8572.0
 10
12415.0
 20
8572.0
 10
12415.0
 20
9172.0
 10
12055.0
 20
9172.0
  0
LWPOLYLINE
  5
206
330
17
100
AcDbEntity
  8
A-SANI
100
AcDbPolyline
 90
4
 70
1
 10
12812.0
 20
7872.0
 10
13966.0
 20
7872.0
 10
13966.0
 20
9372.0
 10
12812.0
 20
9372.0
  0
LWPOLYLINE
  5
207
330
17
100
AcDbEntity
  8
A-SANI
100
AcDbPolyline
 90
4
 70
1
 10
13209.0
 20
8572.0
 10
13569.0
 20
8572.0
 10
13569.0
 20
9172.0
 10
13209.0
 20
9172.0
  0
LWPOLYLINE
  5
208
330
17
100
AcDbEntity
  8
A-SANI
100
AcDbPolyline
 90
4
 70
1
 10
13466.0
 20
6461.0
 10
13926.0
 20
6461.0
 10
13926.0
 20
7011.0
 10
13466.0
 20
7011.0
  0
LWPOLYLINE
  5
209
330
17
100
AcDbEntity
  8
A-SANI
100
AcDbPolyline
 90
4
 70
1
 10
13466.0
 20
7111.0
 10
13926.0
 20
7111.0
 10
13926.0
 20
7661.0
 10
13466.0
 20
7661.0
  0
LWPOLYLINE
  5
20A
330
17
100
AcDbEntity
  8
A-SANI
100
AcDbPolyline
 90
4
 70
1
 10
14166.0
 20
6061.0
 10
15320.5
 20
6061.0
 10
15320.5
 20
7561.0
 10
14166.0
 20
7561.0
  0
LWPOLYLINE
  5
20B
330
17
100
AcDbEntity
  8
A-SANI
100
AcDbPolyline
 90
4
 70
1
 10
14563.25
 20
6261.0
 10
14923.25
 20
6261.0
 10
14923.25
 20
6861.0
 10
14563.25
 20
6861.0
  0
LWPOLYLINE
  5
20C
330
17
100
AcDbEntity
  8
A-SANI
100
AcDbPolyline
 90
4
 70
1
 10
15975.0
 20
8422.0
 10
16435.0
 20
8422.0
 10
16435.0
 20
8972.0
 10
15975.0
 20
8972.0
  0
LWPOLYLINE
  5
20D
330
17
100
AcDbEntity
  8
A-SANI
100
AcDbPolyline
 90
4
 70
1
 10
15975.0
 20
9072.0
 10
16435.0
 20
9072.0
 10
16435.0
 20
9622.0
 10
15975.0
 20
9622.0
  0
LWPOLYLINE
  5
20E
330
17
100
AcDbEntity
  8
A-FURN
100
AcDbPolyline
 90
4
 70
1
 10
425.0
 20
5961.0
 10
2025.0
 20
5961.0
 10
2025.0
 20
6761.0
 10
425.0
 20
6761.0
  0
CIRCLE
  5
20F
330
17
100
AcDbEntity
  8
A-FURN
100
AcDbCircle
 10
1225.0
 20
7261.0
 30
0.0
 40
240.0
  0
LWPOLYLINE
  5
210
330
17
100
AcDbEntity
  8
A-FURN
100
AcDbPolyline
 90
4
 70
1
 10
425.0
 20
7761.0
 10
2025.0
 20
7761.0
 10
2025.0
 20
8561.0
 10
425.0
 20
8561.0
  0
CIRCLE
  5
211
330
17
100
AcDbEntity
  8
A-FURN
100
AcDbCircle
 10
1225.0
 20
9061.0
 30
0.0
 40
240.0
  0
LWPOLYLINE
  5
212
330
17
100
AcDbEntity
  8
A-FURN
100
AcDbPolyline
 90
4
 70
1
 10
425.0
 20
9561.0
 10
2025.0
 20
9561.0
 10
2025.0
 20
10361.0
 10
425.0
 20
10361.0
  0
CIRCLE
  5
213
330
17
100
AcDbEntity
  8
A-FURN
100
AcDbCircle
 10
1225.0
 20
10861.0
 30
0.0
 40
240.0
  0
LWPOLYLINE
  5
214
330
17
100
AcDbEntity
  8
A-FURN
100
AcDbPolyline
 90
4
 70
1
 10
18475.0
 20
9224.0
 10
20075.0
 20
9224.0
 10
20075.0
 20
10024.0
 10
18475.0
 20
10024.0
  0
CIRCLE
  5
215
330
17
100
AcDbEntity
  8
A-FURN
100
AcDbCircle
 10
19275.0
 20
10524.0
 30
0.0
 40
240.0
  0
LWPOLYLINE
  5
216
330
17
100
AcDbEntity
  8
A-FURN
100
AcDbPolyline
 90
4
 70
1
 10
21275.0
 20
9424.0
 10
22075.0
 20
9424.0
 10
22075.0
 20
11024.0
 10
21275.0
 20
11024.0
  0
CIRCLE
  5
217
330
17
100
AcDbEntity
  8
A-FURN
100
AcDbCircle
 10
20775.0
 20
10224.0
 30
0.0
 40
240.0
  0
LWPOLYLINE
  5
218
330
17
100
AcDbEntity
  8
A-FURN
100
AcDbPolyline
 90
4
 70
1
 10
18275.0
 20
10024.0
 10
18725.0
 20
10024.0
 10
18725.0
 20
11224.0
 10
18275.0
 20
11224.0
  0
LWPOLYLINE
  5
219
330
17
100
AcDbEntity
  8
A-FURN
100
AcDbPolyline
 90
4
 70
1
 10
125.0
 20
15476.0
 10
925.0
 20
15476.0
 10
925.0
 20
17076.0
 10
125.0
 20
17076.0
  0
CIRCLE
  5
21A
330
17
100
AcDbEntity
  8
A-FURN
100
AcDbCircle
 10
1425.0
 20
16276.0
 30
0.0
 40
240.0
  0
LWPOLYLINE
  5
21B
330
17
100
AcDbEntity
  8
A-FURN
100
AcDbPolyline
 90
4
 70
1
 10
2818.0
 20
14876.0
 10
3618.0
 20
14876.0
 10
3618.0
 20
16476.0
 10
2818.0
 20
16476.0
  0
CIRCLE
  5
21C
330
17
100
AcDbEntity
  8
A-FURN
100
AcDbCircle
 10
2318.0
 20
15676.0
 30
0.0
 40
240.0
  0
LWPOLYLINE
  5
21D
330
17
100
AcDbEntity
  8
A-FURN
100
AcDbPolyline
 90
4
 70
1
 10
325.0
 20
18625.0
 10
1525.0
 20
18625.0
 10
1525.0
 20
19075.0
 10
325.0
 20
19075.0
  0
LWPOLYLINE
  5
21E
330
17
100
AcDbEntity
  8
A-FURN
100
AcDbPolyline
 90
4
 70
1
 10
4518.0
 20
16025.5
 10
6611.0
 20
16025.5
 10
6611.0
 20
17125.5
 10
4518.0
 20
17125.5
  0
CIRCLE
  5
21F
330
17
100
AcDbEntity
  8
A-FURN
100
AcDbCircle
 10
5041.25
 20
15645.5
 30
0.0
 40
240.0
  0
CIRCLE
  5
220
330
17
100
AcDbEntity
  8
A-FURN
100
AcDbCircle
 10
5041.25
 20
17505.5
 30
0.0
 40
240.0
  0
CIRCLE
  5
221
330
17
100
AcDbEntity
  8
A-FURN
100
AcDbCircle
 10
6087.75
 20
15645.5
 30
0.0
 40
240.0
  0
CIRCLE
  5
222
330
17
100
AcDbEntity
  8
A-FURN
100
AcDbCircle
 10
6087.75
 20
17505.5
 30
0.0
 40
240.0
  0
LWPOLYLINE
  5
223
330
17
100
AcDbEntity
  8
A-FURN
100
AcDbPolyline
 90
4
 70
1
 10
7511.0
 20
15476.0
 10
8311.0
 20
15476.0
 10
8311.0
 20
17076.0
 10
7511.0
 20
17076.0
  0
CIRCLE
  5
224
330
17
100
AcDbEntity
  8
A-FURN
100
AcDbCircle
 10
8811.0
 20
16276.0
 30
0.0
 40
240.0
  0
LWPOLYLINE
  5
225
330
17
100
AcDbEntity
  8
A-FURN
100
AcDbPolyline
 90
4
 70
1
 10
10204.0
 20
14876.0
 10
11004.0
 20
14876.0
 10
11004.0
 20
16476.0
 10
10204.0
 20
16476.0
  0
CIRCLE
  5
226
330
17
100
AcDbEntity
  8
A-FURN
100
AcDbCircle
 10
9704.0
 20
15676.0
 30
0.0
 40
240.0
  0
LWPOLYLINE
  5
227
330
17
100
AcDbEntity
  8
A-FURN
100
AcDbPolyline
 90
4
 70
1
 10
7711.0
 20
18625.0
 10
8911.0
 20
18625.0
 10
8911.0
 20
19075.0
 10
7711.0
 20
19075.0
  0
LWPOLYLINE
  5
228
330
17
100
AcDbEntity
  8
A-FURN
100
AcDbPolyline
 90
4
 70
1
 10
11204.0
 20
14876.0
 10
12004.0
 20
14876.0
 10
12004.0
 20
16476.0
 10
11204.0
 20
16476.0
  0
CIRCLE
  5
229
330
17
100
AcDbEntity
  8
A-FURN
100
AcDbCircle
 10
12504.0
 20
15676.0
 30
0.0
 40
240.0
  0
LWPOLYLINE
  5
22A
330
17
100
AcDbEntity
  8
A-FURN
100
AcDbPolyline
 90
4
 70
1
 10
11204.0
 20
16876.0
 10
12004.0
 20
16876.0
 10
12004.0
 20
18476.0
 10
11204.0
 20
18476.0
  0
CIRCLE
  5
22B
330
17
100
AcDbEntity
  8
A-FURN
100
AcDbCircle
 10
12504.0
 20
17676.0
 30
0.0
 40
240.0
  0
LWPOLYLINE
  5
22C
330
17
100
AcDbEntity
  8
A-FURN
100
AcDbPolyline
 90
4
 70
1
 10
11404.0
 20
18625.0
 10
12604.0
 20
18625.0
 10
12604.0
 20
19075.0
 10
11404.0
 20
19075.0
  0
LWPOLYLINE
  5
22D
330
17
100
AcDbEntity
  8
A-STAIR
100
AcDbPolyline
 90
4
 70
1
 10
18882.5
 20
14076.0
 10
20232.5
 20
14076.0
 10
20232.5
 20
19075.0
 10
18882.5
 20
19075.0
  0
LINE
  5
22E
330
17
100
AcDbEntity
  8
A-STAIR
100
AcDbLine
 10
18882.5
 20
15564.777777777777
 30
0.0
 11
20232.5
 21
15564.777777777777
 31
0.0
  0
LINE
  5
22F
330
17
100
AcDbEntity
  8
A-STAIR
100
AcDbLine
 10
18882.5
 20
15853.555555555555
 30
0.0
 11
20232.5
 21
15853.555555555555
 31
0.0
  0
LINE
  5
230
330
17
100
AcDbEntity
  8
A-STAIR
100
AcDbLine
 10
18882.5
 20
16142.333333333334
 30
0.0
 11
20232.5
 21
16142.333333333334
 31
0.0
  0
LINE
  5
231
330
17
100
AcDbEntity
  8
A-STAIR
100
AcDbLine
 10
18882.5
 20
16431.11111111111
 30
0.0
 11
20232.5
 21
16431.11111111111
 31
0.0
  0
LINE
  5
232
330
17
100
AcDbEntity
  8
A-STAIR
100
AcDbLine
 10
18882.5
 20
16719.88888888889
 30
0.0
 11
20232.5
 21
16719.88888888889
 31
0.0
  0
LINE
  5
233
330
17
100
AcDbEntity
  8
A-STAIR
100
AcDbLine
 10
18882.5
 20
17008.666666666668
 30
0.0
 11
20232.5
 21
17008.666666666668
 31
0.0
  0
LINE
  5
234
330
17
100
AcDbEntity
  8
A-STAIR
100
AcDbLine
 10
18882.5
 20
17297.444444444445
 30
0.0
 11
20232.5
 21
17297.444444444445
 31
0.0
  0
LINE
  5
235
330
17
100
AcDbEntity
  8
A-STAIR
100
AcDbLine
 10
18882.5
 20
17586.222222222223
 30
0.0
 11
20232.5
 21
17586.222222222223
 31
0.0
  0
LINE
  5
236
330
17
100
AcDbEntity
  8
A-STAIR
100
AcDbLine
 10
18882.5
 20
17875.0
 30
0.0
 11
20232.5
 21
17875.0
 31
0.0
  0
LWPOLYLINE
  5
237
330
17
100
AcDbEntity
  8
A-STAIR
100
AcDbPolyline
 90
4
 70
1
 10
20432.5
 20
14076.0
 10
21782.5
 20
14076.0
 10
21782.5
 20
19075.0
 10
20432.5
 20
19075.0
  0
LINE
  5
238
330
17
100
AcDbEntity
  8
A-STAIR
100
AcDbLine
 10
20432.5
 20
15564.777777777777
 30
0.0
 11
21782.5
 21
15564.777777777777
 31
0.0
  0
LINE
  5
239
330
17
100
AcDbEntity
  8
A-STAIR
100
AcDbLine
 10
20432.5
 20
15853.555555555555
 30
0.0
 11
21782.5
 21
15853.555555555555
 31
0.0
  0
LINE
  5
23A
330
17
100
AcDbEntity
  8
A-STAIR
100
AcDbLine
 10
20432.5
 20
16142.333333333334
 30
0.0
 11
21782.5
 21
16142.333333333334
 31
0.0
  0
LINE
  5
23B
330
17
100
AcDbEntity
  8
A-STAIR
100
AcDbLine
 10
20432.5
 20
16431.11111111111
 30
0.0
 11
21782.5
 21
16431.11111111111
 31
0.0
  0
LINE
  5
23C
330
17
100
AcDbEntity
  8
A-STAIR
100
AcDbLine
 10
20432.5
 20
16719.88888888889
 30
0.0
 11
21782.5
 21
16719.88888888889
 31
0.0
  0
LINE
  5
23D
330
17
100
AcDbEntity
  8
A-STAIR
100
AcDbLine
 10
20432.5
 20
17008.666666666668
 30
0.0
 11
21782.5
 21
17008.666666666668
 31
0.0
  0
LINE
  5
23E
330
17
100
AcDbEntity
  8
A-STAIR
100
AcDbLine
 10
20432.5
 20
17297.444444444445
 30
0.0
 11
21782.5
 21
17297.444444444445
 31
0.0
  0
LINE
  5
23F
330
17
100
AcDbEntity
  8
A-STAIR
100
AcDbLine
 10
20432.5
 20
17586.222222222223
 30
0.0
 11
21782.5
 21
17586.222222222223
 31
0.0
  0
LINE
  5
240
330
17
100
AcDbEntity
  8
A-STAIR
100
AcDbLine
 10
20432.5
 20
17875.0
 30
0.0
 11
21782.5
 21
17875.0
 31
0.0
  0
LINE
  5
241
330
17
100
AcDbEntity
  8
A-STAIR
100
AcDbLine
 10
18882.5
 20
15276.0
 30
0.0
 11
21782.5
 21
15276.0
 31
0.0
  0
LINE
  5
242
330
17
100
AcDbEntity
  8
A-STAIR
100
AcDbLine
 10
18882.5
 20
17875.0
 30
0.0
 11
21782.5
 21
17875.0
 31
0.0
  0
LWPOLYLINE
  5
243
330
17
100
AcDbEntity
  8
A-STAIR
100
AcDbPolyline
 90
4
 70
1
 10
20232.5
 20
14076.0
 10
20432.5
 20
14076.0
 10
20432.5
 20
19075.0
 10
20232.5
 20
19075.0
  0
LINE
  5
244
330
17
100
AcDbEntity
  8
A-STAIR
100
AcDbLine
 10
18782.5
 20
16142.333333333334
 30
0.0
 11
20332.5
 21
16835.4
 31
0.0
  0
LINE
  5
245
330
17
100
AcDbEntity
  8
A-STAIR
100
AcDbLine
 10
18782.5
 20
16315.6
 30
0.0
 11
20332.5
 21
17008.666666666668
 31
0.0
  0
LINE
  5
246
330
17
100
AcDbEntity
  8
A-STAIR
100
AcDbLine
 10
21107.5
 20
15226.0
 30
0.0
 11
21107.5
 21
17675.0
 31
0.0
  0
LINE
  5
247
330
17
100
AcDbEntity
  8
A-STAIR
100
AcDbLine
 10
21107.5
 20
17675.0
 30
0.0
 11
20927.5
 21
17255.0
 31
0.0
  0
LINE
  5
248
330
17
100
AcDbEntity
  8
A-STAIR
100
AcDbLine
 10
21107.5
 20
17675.0
 30
0.0
 11
21287.5
 21
17255.0
 31
0.0
  0
LWPOLYLINE
  5
249
330
17
100
AcDbEntity
  8
A-STAIR
100
AcDbPolyline
 90
4
 70
1
 10
386.0
 20
125.0
 10
1736.0
 20
125.0
 10
1736.0
 20
4261.0
 10
386.0
 20
4261.0
  0
LINE
  5
24A
330
17
100
AcDbEntity
  8
A-STAIR
100
AcDbLine
 10
386.0
 20
1517.888888888889
 30
0.0
 11
1736.0
 21
1517.888888888889
 31
0.0
  0
LINE
  5
24B
330
17
100
AcDbEntity
  8
A-STAIR
100
AcDbLine
 10
386.0
 20
1710.7777777777778
 30
0.0
 11
1736.0
 21
1710.7777777777778
 31
0.0
  0
LINE
  5
24C
330
17
100
AcDbEntity
  8
A-STAIR
100
AcDbLine
 10
386.0
 20
1903.6666666666665
 30
0.0
 11
1736.0
 21
1903.6666666666665
 31
0.0
  0
LINE
  5
24D
330
17
100
AcDbEntity
  8
A-STAIR
100
AcDbLine
 10
386.0
 20
2096.5555555555557
 30
0.0
 11
1736.0
 21
2096.5555555555557
 31
0.0
  0
LINE
  5
24E
330
17
100
AcDbEntity
  8
A-STAIR
100
AcDbLine
 10
386.0
 20
2289.4444444444443
 30
0.0
 11
1736.0
 21
2289.4444444444443
 31
0.0
  0
LINE
  5
24F
330
17
100
AcDbEntity
  8
A-STAIR
100
AcDbLine
 10
386.0
 20
2482.333333333333
 30
0.0
 11
1736.0
 21
2482.333333333333
 31
0.0
  0
LINE
  5
250
330
17
100
AcDbEntity
  8
A-STAIR
100
AcDbLine
 10
386.0
 20
2675.222222222222
 30
0.0
 11
1736.0
 21
2675.222222222222
 31
0.0
  0
LINE
  5
251
330
17
100
AcDbEntity
  8
A-STAIR
100
AcDbLine
 10
386.0
 20
2868.1111111111113
 30
0.0
 11
1736.0
 21
2868.1111111111113
 31
0.0
  0
LINE
  5
252
330
17
100
AcDbEntity
  8
A-STAIR
100
AcDbLine
 10
386.0
 20
3061.0
 30
0.0
 11
1736.0
 21
3061.0
 31
0.0
  0
LWPOLYLINE
  5
253
330
17
100
AcDbEntity
  8
A-STAIR
100
AcDbPolyline
 90
4
 70
1
 10
1936.0
 20
125.0
 10
3286.0
 20
125.0
 10
3286.0
 20
4261.0
 10
1936.0
 20
4261.0
  0
LINE
  5
254
330
17
100
AcDbEntity
  8
A-STAIR
100
AcDbLine
 10
1936.0
 20
1517.888888888889
 30
0.0
 11
3286.0
 21
1517.888888888889
 31
0.0
  0
LINE
  5
255
330
17
100
AcDbEntity
  8
A-STAIR
100
AcDbLine
 10
1936.0
 20
1710.7777777777778
 30
0.0
 11
3286.0
 21
1710.7777777777778
 31
0.0
  0
LINE
  5
256
330
17
100
AcDbEntity
  8
A-STAIR
100
AcDbLine
 10
1936.0
 20
1903.6666666666665
 30
0.0
 11
3286.0
 21
1903.6666666666665
 31
0.0
  0
LINE
  5
257
330
17
100
AcDbEntity
  8
A-STAIR
100
AcDbLine
 10
1936.0
 20
2096.5555555555557
 30
0.0
 11
3286.0
 21
2096.5555555555557
 31
0.0
  0
LINE
  5
258
330
17
100
AcDbEntity
  8
A-STAIR
100
AcDbLine
 10
1936.0
 20
2289.4444444444443
 30
0.0
 11
3286.0
 21
2289.4444444444443
 31
0.0
  0
LINE
  5
259
330
17
100
AcDbEntity
  8
A-STAIR
100
AcDbLine
 10
1936.0
 20
2482.333333333333
 30
0.0
 11
3286.0
 21
2482.333333333333
 31
0.0
  0
LINE
  5
25A
330
17
100
AcDbEntity
  8
A-STAIR
100
AcDbLine
 10
1936.0
 20
2675.222222222222
 30
0.0
 11
3286.0
 21
2675.222222222222
 31
0.0
  0
LINE
  5
25B
330
17
100
AcDbEntity
  8
A-STAIR
100
AcDbLine
 10
1936.0
 20
2868.1111111111113
 30
0.0
 11
3286.0
 21
2868.1111111111113
 31
0.0
  0
LINE
  5
25C
330
17
100
AcDbEntity
  8
A-STAIR
100
AcDbLine
 10
1936.0
 20
3061.0
 30
0.0
 11
3286.0
 21
3061.0
 31
0.0
  0
LINE
  5
25D
330
17
100
AcDbEntity
  8
A-STAIR
100
AcDbLine
 10
386.0
 20
1325.0
 30
0.0
 11
3286.0
 21
1325.0
 31
0.0
  0
LINE
  5
25E
330
17
100
AcDbEntity
  8
A-STAIR
100
AcDbLine
 10
386.0
 20
3061.0
 30
0.0
 11
3286.0
 21
3061.0
 31
0.0
  0
LWPOLYLINE
  5
25F
330
17
100
AcDbEntity
  8
A-STAIR
100
AcDbPolyline
 90
4
 70
1
 10
1736.0
 20
125.0
 10
1936.0
 20
125.0
 10
1936.0
 20
4261.0
 10
1736.0
 20
4261.0
  0
LINE
  5
260
330
17
100
AcDbEntity
  8
A-STAIR
100
AcDbLine
 10
286.0
 20
1903.6666666666665
 30
0.0
 11
1836.0
 21
2366.6000000000004
 31
0.0
  0
LINE
  5
261
330
17
100
AcDbEntity
  8
A-STAIR
100
AcDbLine
 10
286.0
 20
2019.4
 30
0.0
 11
1836.0
 21
2482.333333333333
 31
0.0
  0
LINE
  5
262
330
17
100
AcDbEntity
  8
A-STAIR
100
AcDbLine
 10
2611.0
 20
1275.0
 30
0.0
 11
2611.0
 21
2861.0
 31
0.0
  0
LINE
  5
263
330
17
100
AcDbEntity
  8
A-STAIR
100
AcDbLine
 10
2611.0
 20
2861.0
 30
0.0
 11
2431.0
 21
2441.0
 31
0.0
  0
LINE
  5
264
330
17
100
AcDbEntity
  8
A-STAIR
100
AcDbLine
 10
2611.0
 20
2861.0
 30
0.0
 11
2791.0
 21
2441.0
 31
0.0
  0
LWPOLYLINE
  5
265
330
17
100
AcDbEntity
  8
A-FURN
100
AcDbPolyline
 90
4
 70
1
 10
3747.0
 20
325.0
 10
4547.0
 20
325.0
 10
4547.0
 20
1925.0
 10
3747.0
 20
1925.0
  0
CIRCLE
  5
266
330
17
100
AcDbEntity
  8
A-FURN
100
AcDbCircle
 10
5047.0
 20
1125.0
 30
0.0
 40
240.0
  0
LWPOLYLINE
  5
267
330
17
100
AcDbEntity
  8
A-FURN
100
AcDbPolyline
 90
4
 70
1
 10
3747.0
 20
2325.0
 10
4547.0
 20
2325.0
 10
4547.0
 20
3925.0
 10
3747.0
 20
3925.0
  0
CIRCLE
  5
268
330
17
100
AcDbEntity
  8
A-FURN
100
AcDbCircle
 10
5047.0
 20
3125.0
 30
0.0
 40
240.0
  0
LWPOLYLINE
  5
269
330
17
100
AcDbEntity
  8
A-FURN
100
AcDbPolyline
 90
4
 70
1
 10
4547.0
 20
125.0
 10
5747.0
 20
125.0
 10
5747.0
 20
575.0
 10
4547.0
 20
575.0
  0
LWPOLYLINE
  5
26A
330
17
100
AcDbEntity
  8
A-FURN
100
AcDbPolyline
 90
4
 70
1
 10
7970.0
 20
325.0
 10
8770.0
 20
325.0
 10
8770.0
 20
1925.0
 10
7970.0
 20
1925.0
  0
CIRCLE
  5
26B
330
17
100
AcDbEntity
  8
A-FURN
100
AcDbCircle
 10
9270.0
 20
1125.0
 30
0.0
 40
240.0
  0
LWPOLYLINE
  5
26C
330
17
100
AcDbEntity
  8
A-FURN
100
AcDbPolyline
 90
4
 70
1
 10
7970.0
 20
2325.0
 10
8770.0
 20
2325.0
 10
8770.0
 20
3925.0
 10
7970.0
 20
3925.0
  0
CIRCLE
  5
26D
330
17
100
AcDbEntity
  8
A-FURN
100
AcDbCircle
 10
9270.0
 20
3125.0
 30
0.0
 40
240.0
  0
LWPOLYLINE
  5
26E
330
17
100
AcDbEntity
  8
A-FURN
100
AcDbPolyline
 90
4
 70
1
 10
8770.0
 20
125.0
 10
9970.0
 20
125.0
 10
9970.0
 20
575.0
 10
8770.0
 20
575.0
  0
LWPOLYLINE
  5
26F
330
17
100
AcDbEntity
  8
A-FURN
100
AcDbPolyline
 90
4
 70
1
 10
12193.0
 20
325.0
 10
12993.0
 20
325.0
 10
12993.0
 20
1925.0
 10
12193.0
 20
1925.0
  0
CIRCLE
  5
270
330
17
100
AcDbEntity
  8
A-FURN
100
AcDbCircle
 10
13493.0
 20
1125.0
 30
0.0
 40
240.0
  0
LWPOLYLINE
  5
271
330
17
100
AcDbEntity
  8
A-FURN
100
AcDbPolyline
 90
4
 70
1
 10
12193.0
 20
2325.0
 10
12993.0
 20
2325.0
 10
12993.0
 20
3925.0
 10
12193.0
 20
3925.0
  0
CIRCLE
  5
272
330
17
100
AcDbEntity
  8
A-FURN
100
AcDbCircle
 10
13493.0
 20
3125.0
 30
0.0
 40
240.0
  0
LWPOLYLINE
  5
273
330
17
100
AcDbEntity
  8
A-FURN
100
AcDbPolyline
 90
4
 70
1
 10
12993.0
 20
125.0
 10
14193.0
 20
125.0
 10
14193.0
 20
575.0
 10
12993.0
 20
575.0
  0
LWPOLYLINE
  5
274
330
17
100
AcDbEntity
  8
A-FURN
100
AcDbPolyline
 90
4
 70
1
 10
16416.0
 20
325.0
 10
17216.0
 20
325.0
 10
17216.0
 20
1925.0
 10
16416.0
 20
1925.0
  0
CIRCLE
  5
275
330
17
100
AcDbEntity
  8
A-FURN
100
AcDbCircle
 10
17716.0
 20
1125.0
 30
0.0
 40
240.0
  0
LWPOLYLINE
  5
276
330
17
100
AcDbEntity
  8
A-FURN
100
AcDbPolyline
 90
4
 70
1
 10
19639.0
 20
925.0
 10
20439.0
 20
925.0
 10
20439.0
 20
2525.0
 10
19639.0
 20
2525.0
  0
CIRCLE
  5
277
330
17
100
AcDbEntity
  8
A-FURN
100
AcDbCircle
 10
19139.0
 20
1725.0
 30
0.0
 40
240.0
  0
LWPOLYLINE
  5
278
330
17
100
AcDbEntity
  8
A-FURN
100
AcDbPolyline
 90
4
 70
1
 10
19016.0
 20
3811.0
 10
20216.0
 20
3811.0
 10
20216.0
 20
4261.0
 10
19016.0
 20
4261.0
  0
CIRCLE
  5
279
330
17
100
AcDbEntity
  8
A-ANNO-ROOM
100
AcDbCircle
 10
9305.0
 20
10902.0
 30
0.0
 40
240.0
  0
TEXT
  5
27A
330
17
100
AcDbEntity
  8
A-ANNO-ROOM
100
AcDbText
 10
9305.0
 20
10902.0
 30
0.0
 40
250.0
  1
1
 72
1
 11
9305.0
 21
10902.0
 31
0.0
100
AcDbText
 73
2
  0
CIRCLE
  5
27B
330
17
100
AcDbEntity
  8
A-ANNO-ROOM
100
AcDbCircle
 10
13738.0
 20
10902.0
 30
0.0
 40
240.0
  0
TEXT
  5
27C
330
17
100
AcDbEntity
  8
A-ANNO-ROOM
100
AcDbText
 10
13738.0
 20
10902.0
 30
0.0
 40
250.0
  1
2
 72
1
 11
13738.0
 21
10902.0
 31
0.0
100
AcDbText
 73
2
  0
CIRCLE
  5
27D
330
17
100
AcDbEntity
  8
A-ANNO-ROOM
100
AcDbCircle
 10
8555.0
 20
7641.0
 30
0.0
 40
240.0
  0
TEXT
  5
27E
330
17
100
AcDbEntity
  8
A-ANNO-ROOM
100
AcDbText
 10
8555.0
 20
7641.0
 30
0.0
 40
250.0
  1
3
 72
1
 11
8555.0
 21
7641.0
 31
0.0
100
AcDbText
 73
2
  0
CIRCLE
  5
27F
330
17
100
AcDbEntity
  8
A-ANNO-ROOM
100
AcDbCircle
 10
12738.0
 20
7391.0
 30
0.0
 40
240.0
  0
TEXT
  5
280
330
17
100
AcDbEntity
  8
A-ANNO-ROOM
100
AcDbText
 10
12738.0
 20
7391.0
 30
0.0
 40
250.0
  1
4
 72
1
 11
12738.0
 21
7391.0
 31
0.0
100
AcDbText
 73
2
  0
CIRCLE
  5
281
330
17
100
AcDbEntity
  8
A-ANNO-ROOM
100
AcDbCircle
 10
15246.0
 20
8141.0
 30
0.0
 40
240.0
  0
TEXT
  5
282
330
17
100
AcDbEntity
  8
A-ANNO-ROOM
100
AcDbText
 10
15246.0
 20
8141.0
 30
0.0
 40
250.0
  1
5
 72
1
 11
15246.0
 21
8141.0
 31
0.0
100
AcDbText
 73
2
  0
CIRCLE
  5
283
330
17
100
AcDbEntity
  8
A-ANNO-ROOM
100
AcDbCircle
 10
11205.0
 20
13306.0
 30
0.0
 40
240.0
  0
TEXT
  5
284
330
17
100
AcDbEntity
  8
A-ANNO-ROOM
100
AcDbText
 10
11205.0
 20
13306.0
 30
0.0
 40
250.0
  1
6
 72
1
 11
11205.0
 21
13306.0
 31
0.0
100
AcDbText
 73
2
  0
CIRCLE
  5
285
330
17
100
AcDbEntity
  8
A-ANNO-ROOM
100
AcDbCircle
 10
11205.0
 20
5091.0
 30
0.0
 40
240.0
  0
TEXT
  5
286
330
17
100
AcDbEntity
  8
A-ANNO-ROOM
100
AcDbText
 10
11205.0
 20
5091.0
 30
0.0
 40
250.0
  1
7
 72
1
 11
11205.0
 21
5091.0
 31
0.0
100
AcDbText
 73
2
  0
CIRCLE
  5
287
330
17
100
AcDbEntity
  8
A-ANNO-ROOM
100
AcDbCircle
 10
4755.0
 20
9191.0
 30
0.0
 40
240.0
  0
TEXT
  5
288
330
17
100
AcDbEntity
  8
A-ANNO-ROOM
100
AcDbText
 10
4755.0
 20
9191.0
 30
0.0
 40
250.0
  1
8
 72
1
 11
4755.0
 21
9191.0
 31
0.0
100
AcDbText
 73
2
  0
CIRCLE
  5
289
330
17
100
AcDbEntity
  8
A-ANNO-ROOM
100
AcDbCircle
 10
17505.0
 20
9191.0
 30
0.0
 40
240.0
  0
TEXT
  5
28A
330
17
100
AcDbEntity
  8
A-ANNO-ROOM
100
AcDbText
 10
17505.0
 20
9191.0
 30
0.0
 40
250.0
  1
9
 72
1
 11
17505.0
 21
9191.0
 31
0.0
100
AcDbText
 73
2
  0
CIRCLE
  5
28B
330
17
100
AcDbEntity
  8
A-ANNO-ROOM
100
AcDbCircle
 10
2705.0
 20
9191.0
 30
0.0
 40
240.0
  0
TEXT
  5
28C
330
17
100
AcDbEntity
  8
A-ANNO-ROOM
100
AcDbText
 10
2705.0
 20
9191.0
 30
0.0
 40
250.0
  1
10
 72
1
 11
2705.0
 21
9191.0
 31
0.0
100
AcDbText
 73
2
  0
CIRCLE
  5
28D
330
17
100
AcDbEntity
  8
A-ANNO-ROOM
100
AcDbCircle
 10
19605.0
 20
7441.0
 30
0.0
 40
240.0
  0
TEXT
  5
28E
330
17
100
AcDbEntity
  8
A-ANNO-ROOM
100
AcDbText
 10
19605.0
 20
7441.0
 30
0.0
 40
250.0
  1
11
 72
1
 11
19605.0
 21
7441.0
 31
0.0
100
AcDbText
 73
2
  0
CIRCLE
  5
28F
330
17
100
AcDbEntity
  8
A-ANNO-ROOM
100
AcDbCircle
 10
20105.0
 20
11054.0
 30
0.0
 40
240.0
  0
TEXT
  5
290
330
17
100
AcDbEntity
  8
A-ANNO-ROOM
100
AcDbText
 10
20105.0
 20
11054.0
 30
0.0
 40
250.0
  1
12
 72
1
 11
20105.0
 21
11054.0
 31
0.0
100
AcDbText
 73
2
  0
CIRCLE
  5
291
330
17
100
AcDbEntity
  8
A-ANNO-ROOM
100
AcDbCircle
 10
2205.0
 20
16656.0
 30
0.0
 40
240.0
  0
TEXT
  5
292
330
17
100
AcDbEntity
  8
A-ANNO-ROOM
100
AcDbText
 10
2205.0
 20
16656.0
 30
0.0
 40
250.0
  1
13
 72
1
 11
2205.0
 21
16656.0
 31
0.0
100
AcDbText
 73
2
  0
CIRCLE
  5
293
330
17
100
AcDbEntity
  8
A-ANNO-ROOM
100
AcDbCircle
 10
5648.0
 20
14906.0
 30
0.0
 40
240.0
  0
TEXT
  5
294
330
17
100
AcDbEntity
  8
A-ANNO-ROOM
100
AcDbText
 10
5648.0
 20
14906.0
 30
0.0
 40
250.0
  1
14
 72
1
 11
5648.0
 21
14906.0
 31
0.0
100
AcDbText
 73
2
  0
CIRCLE
  5
295
330
17
100
AcDbEntity
  8
A-ANNO-ROOM
100
AcDbCircle
 10
9591.0
 20
16656.0
 30
0.0
 40
240.0
  0
TEXT
  5
296
330
17
100
AcDbEntity
  8
A-ANNO-ROOM
100
AcDbText
 10
9591.0
 20
16656.0
 30
0.0
 40
250.0
  1
15
 72
1
 11
9591.0
 21
16656.0
 31
0.0
100
AcDbText
 73
2
  0
CIRCLE
  5
297
330
17
100
AcDbEntity
  8
A-ANNO-ROOM
100
AcDbCircle
 10
13034.0
 20
16656.0
 30
0.0
 40
240.0
  0
TEXT
  5
298
330
17
100
AcDbEntity
  8
A-ANNO-ROOM
100
AcDbText
 10
13034.0
 20
16656.0
 30
0.0
 40
250.0
  1
16
 72
1
 11
13034.0
 21
16656.0
 31
0.0
100
AcDbText
 73
2
  0
CIRCLE
  5
299
330
17
100
AcDbEntity
  8
A-ANNO-ROOM
100
AcDbCircle
 10
16727.0
 20
16656.0
 30
0.0
 40
240.0
  0
TEXT
  5
29A
330
17
100
AcDbEntity
  8
A-ANNO-ROOM
100
AcDbText
 10
16727.0
 20
16656.0
 30
0.0
 40
250.0
  1
17
 72
1
 11
16727.0
 21
16656.0
 31
0.0
100
AcDbText
 73
2
  0
CIRCLE
  5
29B
330
17
100
AcDbEntity
  8
A-ANNO-ROOM
100
AcDbCircle
 10
20920.0
 20
18406.0
 30
0.0
 40
240.0
  0
TEXT
  5
29C
330
17
100
AcDbEntity
  8
A-ANNO-ROOM
100
AcDbText
 10
20920.0
 20
18406.0
 30
0.0
 40
250.0
  1
18
 72
1
 11
20920.0
 21
18406.0
 31
0.0
100
AcDbText
 73
2
  0
CIRCLE
  5
29D
330
17
100
AcDbEntity
  8
A-ANNO-ROOM
100
AcDbCircle
 10
2455.0
 20
705.0
 30
0.0
 40
240.0
  0
TEXT
  5
29E
330
17
100
AcDbEntity
  8
A-ANNO-ROOM
100
AcDbText
 10
2455.0
 20
705.0
 30
0.0
 40
250.0
  1
19
 72
1
 11
2455.0
 21
705.0
 31
0.0
100
AcDbText
 73
2
  0
CIRCLE
  5
29F
330
17
100
AcDbEntity
  8
A-ANNO-ROOM
100
AcDbCircle
 10
5827.0
 20
2205.0
 30
0.0
 40
240.0
  0
TEXT
  5
2A0
330
17
100
AcDbEntity
  8
A-ANNO-ROOM
100
AcDbText
 10
5827.0
 20
2205.0
 30
0.0
 40
250.0
  1
20
 72
1
 11
5827.0
 21
2205.0
 31
0.0
100
AcDbText
 73
2
  0
CIRCLE
  5
2A1
330
17
100
AcDbEntity
  8
A-ANNO-ROOM
100
AcDbCircle
 10
10050.0
 20
2205.0
 30
0.0
 40
240.0
  0
TEXT
  5
2A2
330
17
100
AcDbEntity
  8
A-ANNO-ROOM
100
AcDbText
 10
10050.0
 20
2205.0
 30
0.0
 40
250.0
  1
21
 72
1
 11
10050.0
 21
2205.0
 31
0.0
100
AcDbText
 73
2
  0
CIRCLE
  5
2A3
330
17
100
AcDbEntity
  8
A-ANNO-ROOM
100
AcDbCircle
 10
14273.0
 20
2205.0
 30
0.0
 40
240.0
  0
TEXT
  5
2A4
330
17
100
AcDbEntity
  8
A-ANNO-ROOM
100
AcDbText
 10
14273.0
 20
2205.0
 30
0.0
 40
250.0
  1
22
 72
1
 11
14273.0
 21
2205.0
 31
0.0
100
AcDbText
 73
2
  0
CIRCLE
  5
2A5
330
17
100
AcDbEntity
  8
A-ANNO-ROOM
100
AcDbCircle
 10
18246.0
 20
2205.0
 30
0.0
 40
240.0
  0
TEXT
  5
2A6
330
17
100
AcDbEntity
  8
A-ANNO-ROOM
100
AcDbText
 10
18246.0
 20
2205.0
 30
0.0
 40
250.0
  1
23
 72
1
 11
18246.0
 21
2205.0
 31
0.0
100
AcDbText
 73
2
  0
CIRCLE
  5
2A7
330
17
100
AcDbEntity
  8
A-ANNO-ROOM
100
AcDbCircle
 10
21469.0
 20
2205.0
 30
0.0
 40
240.0
  0
TEXT
  5
2A8
330
17
100
AcDbEntity
  8
A-ANNO-ROOM
100
AcDbText
 10
21469.0
 20
2205.0
 30
0.0
 40
250.0
  1
24
 72
1
 11
21469.0
 21
2205.0
 31
0.0
100
AcDbText
 73
2
  0
LINE
  5
2A9
330
17
100
AcDbEntity
  8
A-GRID
100
AcDbLine
 10
0.0
 20
-3525.0
 30
0.0
 11
0.0
 21
19925.0
 31
0.0
  0
CIRCLE
  5
2AA
330
17
100
AcDbEntity
  8
A-GRID
100
AcDbCircle
 10
0.0
 20
-3925.0
 30
0.0
 40
400.0
  0
TEXT
  5
2AB
330
17
100
AcDbEntity
  8
A-GRID
100
AcDbText
 10
0.0
 20
-3925.0
 30
0.0
 40
420.0
  1
1
 72
1
 11
0.0
 21
-3925.0
 31
0.0
100
AcDbText
 73
2
  0
LINE
  5
2AC
330
17
100
AcDbEntity
  8
A-GRID
100
AcDbLine
 10
6600.0
 20
-3525.0
 30
0.0
 11
6600.0
 21
19925.0
 31
0.0
  0
CIRCLE
  5
2AD
330
17
100
AcDbEntity
  8
A-GRID
100
AcDbCircle
 10
6600.0
 20
-3925.0
 30
0.0
 40
400.0
  0
TEXT
  5
2AE
330
17
100
AcDbEntity
  8
A-GRID
100
AcDbText
 10
6600.0
 20
-3925.0
 30
0.0
 40
420.0
  1
2
 72
1
 11
6600.0
 21
-3925.0
 31
0.0
100
AcDbText
 73
2
  0
LINE
  5
2AF
330
17
100
AcDbEntity
  8
A-GRID
100
AcDbLine
 10
13800.0
 20
-3525.0
 30
0.0
 11
13800.0
 21
19925.0
 31
0.0
  0
CIRCLE
  5
2B0
330
17
100
AcDbEntity
  8
A-GRID
100
AcDbCircle
 10
13800.0
 20
-3925.0
 30
0.0
 40
400.0
  0
TEXT
  5
2B1
330
17
100
AcDbEntity
  8
A-GRID
100
AcDbText
 10
13800.0
 20
-3925.0
 30
0.0
 40
420.0
  1
3
 72
1
 11
13800.0
 21
-3925.0
 31
0.0
100
AcDbText
 73
2
  0
LINE
  5
2B2
330
17
100
AcDbEntity
  8
A-GRID
100
AcDbLine
 10
22200.0
 20
-3525.0
 30
0.0
 11
22200.0
 21
19925.0
 31
0.0
  0
CIRCLE
  5
2B3
330
17
100
AcDbEntity
  8
A-GRID
100
AcDbCircle
 10
22200.0
 20
-3925.0
 30
0.0
 40
400.0
  0
TEXT
  5
2B4
330
17
100
AcDbEntity
  8
A-GRID
100
AcDbText
 10
22200.0
 20
-3925.0
 30
0.0
 40
420.0
  1
4
 72
1
 11
22200.0
 21
-3925.0
 31
0.0
100
AcDbText
 73
2
  0
LINE
  5
2B5
330
17
100
AcDbEntity
  8
A-GRID
100
AcDbLine
 10
-3525.0
 20
0.0
 30
0.0
 11
22925.0
 21
0.0
 31
0.0
  0
CIRCLE
  5
2B6
330
17
100
AcDbEntity
  8
A-GRID
100
AcDbCircle
 10
-3925.0
 20
0.0
 30
0.0
 40
400.0
  0
TEXT
  5
2B7
330
17
100
AcDbEntity
  8
A-GRID
100
AcDbText
 10
-3925.0
 20
0.0
 30
0.0
 40
420.0
  1
А
 72
1
 11
-3925.0
 21
0.0
 31
0.0
100
AcDbText
 73
2
  0
LINE
  5
2B8
330
17
100
AcDbEntity
  8
A-GRID
100
AcDbLine
 10
-3525.0
 20
7200.0
 30
0.0
 11
22925.0
 21
7200.0
 31
0.0
  0
CIRCLE
  5
2B9
330
17
100
AcDbEntity
  8
A-GRID
100
AcDbCircle
 10
-3925.0
 20
7200.0
 30
0.0
 40
400.0
  0
TEXT
  5
2BA
330
17
100
AcDbEntity
  8
A-GRID
100
AcDbText
 10
-3925.0
 20
7200.0
 30
0.0
 40
420.0
  1
Б
 72
1
 11
-3925.0
 21
7200.0
 31
0.0
100
AcDbText
 73
2
  0
LINE
  5
2BB
330
17
100
AcDbEntity
  8
A-GRID
100
AcDbLine
 10
-3525.0
 20
13200.0
 30
0.0
 11
22925.0
 21
13200.0
 31
0.0
  0
CIRCLE
  5
2BC
330
17
100
AcDbEntity
  8
A-GRID
100
AcDbCircle
 10
-3925.0
 20
13200.0
 30
0.0
 40
400.0
  0
TEXT
  5
2BD
330
17
100
AcDbEntity
  8
A-GRID
100
AcDbText
 10
-3925.0
 20
13200.0
 30
0.0
 40
420.0
  1
В
 72
1
 11
-3925.0
 21
13200.0
 31
0.0
100
AcDbText
 73
2
  0
LINE
  5
2BE
330
17
100
AcDbEntity
  8
A-GRID
100
AcDbLine
 10
-3525.0
 20
19200.0
 30
0.0
 11
22925.0
 21
19200.0
 31
0.0
  0
CIRCLE
  5
2BF
330
17
100
AcDbEntity
  8
A-GRID
100
AcDbCircle
 10
-3925.0
 20
19200.0
 30
0.0
 40
400.0
  0
TEXT
  5
2C0
330
17
100
AcDbEntity
  8
A-GRID
100
AcDbText
 10
-3925.0
 20
19200.0
 30
0.0
 40
420.0
  1
Г
 72
1
 11
-3925.0
 21
19200.0
 31
0.0
100
AcDbText
 73
2
  0
LINE
  5
2C1
330
17
100
AcDbEntity
  8
A-DIMS
100
AcDbLine
 10
0.0
 20
-1525.0
 30
0.0
 11
6600.0
 21
-1525.0
 31
0.0
  0
LINE
  5
2C2
330
17
100
AcDbEntity
  8
A-DIMS
100
AcDbLine
 10
-70.71
 20
-1595.71
 30
0.0
 11
70.71
 21
-1454.29
 31
0.0
  0
LINE
  5
2C3
330
17
100
AcDbEntity
  8
A-DIMS
100
AcDbLine
 10
6529.29
 20
-1595.71
 30
0.0
 11
6670.71
 21
-1454.29
 31
0.0
  0
TEXT
  5
2C4
330
17
100
AcDbEntity
  8
A-DIMS
100
AcDbText
 10
3300.0
 20
-1405.0
 30
0.0
 40
220.0
  1
6600
 72
1
 11
3300.0
 21
-1405.0
 31
0.0
100
AcDbText
 73
2
  0
LINE
  5
2C5
330
17
100
AcDbEntity
  8
A-DIMS
100
AcDbLine
 10
6600.0
 20
-1525.0
 30
0.0
 11
13800.0
 21
-1525.0
 31
0.0
  0
LINE
  5
2C6
330
17
100
AcDbEntity
  8
A-DIMS
100
AcDbLine
 10
6529.29
 20
-1595.71
 30
0.0
 11
6670.71
 21
-1454.29
 31
0.0
  0
LINE
  5
2C7
330
17
100
AcDbEntity
  8
A-DIMS
100
AcDbLine
 10
13729.29
 20
-1595.71
 30
0.0
 11
13870.71
 21
-1454.29
 31
0.0
  0
TEXT
  5
2C8
330
17
100
AcDbEntity
  8
A-DIMS
100
AcDbText
 10
10200.0
 20
-1405.0
 30
0.0
 40
220.0
  1
7200
 72
1
 11
10200.0
 21
-1405.0
 31
0.0
100
AcDbText
 73
2
  0
LINE
  5
2C9
330
17
100
AcDbEntity
  8
A-DIMS
100
AcDbLine
 10
13800.0
 20
-1525.0
 30
0.0
 11
22200.0
 21
-1525.0
 31
0.0
  0
LINE
  5
2CA
330
17
100
AcDbEntity
  8
A-DIMS
100
AcDbLine
 10
13729.29
 20
-1595.71
 30
0.0
 11
13870.71
 21
-1454.29
 31
0.0
  0
LINE
  5
2CB
330
17
100
AcDbEntity
  8
A-DIMS
100
AcDbLine
 10
22129.29
 20
-1595.71
 30
0.0
 11
22270.71
 21
-1454.29
 31
0.0
  0
TEXT
  5
2CC
330
17
100
AcDbEntity
  8
A-DIMS
100
AcDbText
 10
18000.0
 20
-1405.0
 30
0.0
 40
220.0
  1
8400
 72
1
 11
18000.0
 21
-1405.0
 31
0.0
100
AcDbText
 73
2
  0
LINE
  5
2CD
330
17
100
AcDbEntity
  8
A-DIMS
100
AcDbLine
 10
0.0
 20
-2525.0
 30
0.0
 11
22200.0
 21
-2525.0
 31
0.0
  0
LINE
  5
2CE
330
17
100
AcDbEntity
  8
A-DIMS
100
AcDbLine
 10
-70.71
 20
-2595.71
 30
0.0
 11
70.71
 21
-2454.29
 31
0.0
  0
LINE
  5
2CF
330
17
100
AcDbEntity
  8
A-DIMS
100
AcDbLine
 10
22129.29
 20
-2595.71
 30
0.0
 11
22270.71
 21
-2454.29
 31
0.0
  0
TEXT
  5
2D0
330
17
100
AcDbEntity
  8
A-DIMS
100
AcDbText
 10
11100.0
 20
-2405.0
 30
0.0
 40
220.0
  1
22200
 72
1
 11
11100.0
 21
-2405.0
 31
0.0
100
AcDbText
 73
2
  0
LINE
  5
2D1
330
17
100
AcDbEntity
  8
A-DIMS
100
AcDbLine
 10
-1525.0
 20
0.0
 30
0.0
 11
-1525.0
 21
7200.0
 31
0.0
  0
LINE
  5
2D2
330
17
100
AcDbEntity
  8
A-DIMS
100
AcDbLine
 10
-1595.71
 20
-70.71
 30
0.0
 11
-1454.29
 21
70.71
 31
0.0
  0
LINE
  5
2D3
330
17
100
AcDbEntity
  8
A-DIMS
100
AcDbLine
 10
-1595.71
 20
7129.29
 30
0.0
 11
-1454.29
 21
7270.71
 31
0.0
  0
TEXT
  5
2D4
330
17
100
AcDbEntity
  8
A-DIMS
100
AcDbText
 10
-1645.0
 20
3600.0
 30
0.0
 40
220.0
  1
7200
 50
90.0
 72
1
 11
-1645.0
 21
3600.0
 31
0.0
100
AcDbText
 73
2
  0
LINE
  5
2D5
330
17
100
AcDbEntity
  8
A-DIMS
100
AcDbLine
 10
-1525.0
 20
7200.0
 30
0.0
 11
-1525.0
 21
13200.0
 31
0.0
  0
LINE
  5
2D6
330
17
100
AcDbEntity
  8
A-DIMS
100
AcDbLine
 10
-1595.71
 20
7129.29
 30
0.0
 11
-1454.29
 21
7270.71
 31
0.0
  0
LINE
  5
2D7
330
17
100
AcDbEntity
  8
A-DIMS
100
AcDbLine
 10
-1595.71
 20
13129.29
 30
0.0
 11
-1454.29
 21
13270.71
 31
0.0
  0
TEXT
  5
2D8
330
17
100
AcDbEntity
  8
A-DIMS
100
AcDbText
 10
-1645.0
 20
10200.0
 30
0.0
 40
220.0
  1
6000
 50
90.0
 72
1
 11
-1645.0
 21
10200.0
 31
0.0
100
AcDbText
 73
2
  0
LINE
  5
2D9
330
17
100
AcDbEntity
  8
A-DIMS
100
AcDbLine
 10
-1525.0
 20
13200.0
 30
0.0
 11
-1525.0
 21
19200.0
 31
0.0
  0
LINE
  5
2DA
330
17
100
AcDbEntity
  8
A-DIMS
100
AcDbLine
 10
-1595.71
 20
13129.29
 30
0.0
 11
-1454.29
 21
13270.71
 31
0.0
  0
LINE
  5
2DB
330
17
100
AcDbEntity
  8
A-DIMS
100
AcDbLine
 10
-1595.71
 20
19129.29
 30
0.0
 11
-1454.29
 21
19270.71
 31
0.0
  0
TEXT
  5
2DC
330
17
100
AcDbEntity
  8
A-DIMS
100
AcDbText
 10
-1645.0
 20
16200.0
 30
0.0
 40
220.0
  1
6000
 50
90.0
 72
1
 11
-1645.0
 21
16200.0
 31
0.0
100
AcDbText
 73
2
  0
LINE
  5
2DD
330
17
100
AcDbEntity
  8
A-DIMS
100
AcDbLine
 10
-2525.0
 20
0.0
 30
0.0
 11
-2525.0
 21
19200.0
 31
0.0
  0
LINE
  5
2DE
330
17
100
AcDbEntity
  8
A-DIMS
100
AcDbLine
 10
-2595.71
 20
-70.71
 30
0.0
 11
-2454.29
 21
70.71
 31
0.0
  0
LINE
  5
2DF
330
17
100
AcDbEntity
  8
A-DIMS
100
AcDbLine
 10
-2595.71
 20
19129.29
 30
0.0
 11
-2454.29
 21
19270.71
 31
0.0
  0
TEXT
  5
2E0
330
17
100
AcDbEntity
  8
A-DIMS
100
AcDbText
 10
-2645.0
 20
9600.0
 30
0.0
 40
220.0
  1
19200
 50
90.0
 72
1
 11
-2645.0
 21
9600.0
 31
0.0
100
AcDbText
 73
2
  0
VIEWPORT
  5
2E5
330
2E1
100
AcDbEntity
 67
1
  8
VIEWPORTS
100
AcDbViewport
 10
297.0
 20
210.0
 30
0.0
 40
653.4000000000001
 41
462.00000000000006
 68
1
 69
1
 12
297.0
 22
210.0
 13
0.0
 23
0.0
 14
10.0
 24
10.0
 15
10.0
 25
10.0
 16
0.0
 26
0.0
 36
1.0
 17
0.0
 27
0.0
 37
0.0
 42
50.0
 43
0.0
 44
0.0
 45
462.00000000000006
 50
0.0
 51
0.0
 72
100
 90
557088
  1

281
0
 71
0
 74
0
110
0.0
120
0.0
130
0.0
111
1.0
121
0.0
131
0.0
112
0.0
122
1.0
132
0.0
 79
0
146
0.0
282
0
  0
VIEWPORT
  5
2E6
330
2E1
100
AcDbEntity
 67
1
  8
A-VIEWPORT
100
AcDbViewport
 10
201.0
 20
223.0
 30
0.0
 40
286.0
 41
310.0
 68
2
 69
3
 12
9250.0
 22
7750.0
 13
0.0
 23
0.0
 14
10.0
 24
10.0
 15
10.0
 25
10.0
 16
0.0
 26
0.0
 36
1.0
 17
0.0
 27
0.0
 37
0.0
 42
50.0
 43
0.0
 44
0.0
 45
31000.0
 50
0.0
 51
0.0
 72
100
 90
0
  1

281
0
 71
0
 74
0
110
0.0
120
0.0
130
0.0
111
1.0
121
0.0
131
0.0
112
0.0
122
1.0
132
0.0
 79
0
146
0.0
282
0
  0
TEXT
  5
2E7
330
2E1
100
AcDbEntity
 67
1
  8
A-ANNO-TABLE
100
AcDbText
 10
352.0
 20
340.0
 30
0.0
 40
2.9
  1
ЭКСПЛИКАЦИЯ ПОМЕЩЕНИЙ
  7
Arial-Bold
 11
352.0
 21
340.0
 31
0.0
100
AcDbText
  0
LINE
  5
2E8
330
2E1
100
AcDbEntity
 67
1
  8
A-ANNO-TABLE
100
AcDbLine
 10
352.0
 20
337.6
 30
0.0
 11
462.0
 21
337.6
 31
0.0
  0
TEXT
  5
2E9
330
2E1
100
AcDbEntity
 67
1
  8
A-ANNO-TABLE
100
AcDbText
 10
352.0
 20
332.6
 30
0.0
 40
2.3
  1
№
  7
Arial-Bold
 11
352.0
 21
332.6
 31
0.0
100
AcDbText
  0
TEXT
  5
2EA
330
2E1
100
AcDbEntity
 67
1
  8
A-ANNO-TABLE
100
AcDbText
 10
361.0
 20
332.6
 30
0.0
 40
2.3
  1
НАИМЕНОВАНИЕ
  7
Arial-Bold
 11
361.0
 21
332.6
 31
0.0
100
AcDbText
  0
TEXT
  5
2EB
330
2E1
100
AcDbEntity
 67
1
  8
A-ANNO-TABLE
100
AcDbText
 10
437.0
 20
332.6
 30
0.0
 40
2.3
  1
РМ
  7
Arial-Bold
 72
2
 11
437.0
 21
332.6
 31
0.0
100
AcDbText
  0
TEXT
  5
2EC
330
2E1
100
AcDbEntity
 67
1
  8
A-ANNO-TABLE
100
AcDbText
 10
462.0
 20
332.6
 30
0.0
 40
2.3
  1
ПЛОЩАДЬ, М2
  7
Arial-Bold
 72
2
 11
462.0
 21
332.6
 31
0.0
100
AcDbText
  0
LINE
  5
2ED
330
2E1
100
AcDbEntity
 67
1
  8
A-ANNO-TABLE
100
AcDbLine
 10
352.0
 20
330.8
 30
0.0
 11
462.0
 21
330.8
 31
0.0
  0
TEXT
  5
2EE
330
2E1
100
AcDbEntity
 67
1
  8
A-ANNO-TABLE
100
AcDbText
 10
352.0
 20
326.6
 30
0.0
 40
2.5
  1
1
  7
Arial
 11
352.0
 21
326.6
 31
0.0
100
AcDbText
  0
TEXT
  5
2EF
330
2E1
100
AcDbEntity
 67
1
  8
A-ANNO-TABLE
100
AcDbText
 10
361.0
 20
326.6
 30
0.0
 40
2.5
  1
Шахта на 2 лифта
  7
Arial
 11
361.0
 21
326.6
 31
0.0
100
AcDbText
  0
TEXT
  5
2F0
330
2E1
100
AcDbEntity
 67
1
  8
A-ANNO-TABLE
100
AcDbText
 10
437.0
 20
326.6
 30
0.0
 40
2.5
  1
-
  7
Arial
 72
2
 11
437.0
 21
326.6
 31
0.0
100
AcDbText
  0
TEXT
  5
2F1
330
2E1
100
AcDbEntity
 67
1
  8
A-ANNO-TABLE
100
AcDbText
 10
462.0
 20
326.6
 30
0.0
 40
2.5
  1
15,50
  7
Arial
 72
2
 11
462.0
 21
326.6
 31
0.0
100
AcDbText
  0
LINE
  5
2F2
330
2E1
100
AcDbEntity
 67
1
  8
A-ANNO-NOTES
100
AcDbLine
 10
352.0
 20
324.7
 30
0.0
 11
462.0
 21
324.7
 31
0.0
  0
TEXT
  5
2F3
330
2E1
100
AcDbEntity
 67
1
  8
A-ANNO-TABLE
100
AcDbText
 10
352.0
 20
321.4
 30
0.0
 40
2.5
  1
2
  7
Arial
 11
352.0
 21
321.4
 31
0.0
100
AcDbText
  0
TEXT
  5
2F4
330
2E1
100
AcDbEntity
 67
1
  8
A-ANNO-TABLE
100
AcDbText
 10
361.0
 20
321.4
 30
0.0
 40
2.5
  1
Кабинет 8
  7
Arial
 11
361.0
 21
321.4
 31
0.0
100
AcDbText
  0
TEXT
  5
2F5
330
2E1
100
AcDbEntity
 67
1
  8
A-ANNO-TABLE
100
AcDbText
 10
437.0
 20
321.4
 30
0.0
 40
2.5
  1
2
  7
Arial
 72
2
 11
437.0
 21
321.4
 31
0.0
100
AcDbText
  0
TEXT
  5
2F6
330
2E1
100
AcDbEntity
 67
1
  8
A-ANNO-TABLE
100
AcDbText
 10
462.0
 20
321.4
 30
0.0
 40
2.5
  1
13,03
  7
Arial
 72
2
 11
462.0
 21
321.4
 31
0.0
100
AcDbText
  0
LINE
  5
2F7
330
2E1
100
AcDbEntity
 67
1
  8
A-ANNO-NOTES
100
AcDbLine
 10
352.0
 20
319.5
 30
0.0
 11
462.0
 21
319.5
 31
0.0
  0
TEXT
  5
2F8
330
2E1
100
AcDbEntity
 67
1
  8
A-ANNO-TABLE
100
AcDbText
 10
352.0
 20
316.2
 30
0.0
 40
2.5
  1
3
  7
Arial
 11
352.0
 21
316.2
 31
0.0
100
AcDbText
  0
TEXT
  5
2F9
330
2E1
100
AcDbEntity
 67
1
  8
A-ANNO-TABLE
100
AcDbText
 10
361.0
 20
316.2
 30
0.0
 40
2.5
  1
Тамбур-шлюз лифтового холла
  7
Arial
 11
361.0
 21
316.2
 31
0.0
100
AcDbText
  0
TEXT
  5
2FA
330
2E1
100
AcDbEntity
 67
1
  8
A-ANNO-TABLE
100
AcDbText
 10
437.0
 20
316.2
 30
0.0
 40
2.5
  1
-
  7
Arial
 72
2
 11
437.0
 21
316.2
 31
0.0
100
AcDbText
  0
TEXT
  5
2FB
330
2E1
100
AcDbEntity
 67
1
  8
A-ANNO-TABLE
100
AcDbText
 10
462.0
 20
316.2
 30
0.0
 40
2.5
  1
18,98
  7
Arial
 72
2
 11
462.0
 21
316.2
 31
0.0
100
AcDbText
  0
LINE
  5
2FC
330
2E1
100
AcDbEntity
 67
1
  8
A-ANNO-NOTES
100
AcDbLine
 10
352.0
 20
314.29999999999995
 30
0.0
 11
462.0
 21
314.29999999999995
 31
0.0
  0
TEXT
  5
2FD
330
2E1
100
AcDbEntity
 67
1
  8
A-ANNO-TABLE
100
AcDbText
 10
352.0
 20
311.0
 30
0.0
 40
2.5
  1
4
  7
Arial
 11
352.0
 21
311.0
 31
0.0
100
AcDbText
  0
TEXT
  5
2FE
330
2E1
100
AcDbEntity
 67
1
  8
A-ANNO-TABLE
100
AcDbText
 10
361.0
 20
311.0
 30
0.0
 40
2.5
  1
Санузел женский
  7
Arial
 11
361.0
 21
311.0
 31
0.0
100
AcDbText
  0
TEXT
  5
2FF
330
2E1
100
AcDbEntity
 67
1
  8
A-ANNO-TABLE
100
AcDbText
 10
437.0
 20
311.0
 30
0.0
 40
2.5
  1
-
  7
Arial
 72
2
 11
437.0
 21
311.0
 31
0.0
100
AcDbText
  0
TEXT
  5
300
330
2E1
100
AcDbEntity
 67
1
  8
A-ANNO-TABLE
100
AcDbText
 10
462.0
 20
311.0
 30
0.0
 40
2.5
  1
7,64
  7
Arial
 72
2
 11
462.0
 21
311.0
 31
0.0
100
AcDbText
  0
LINE
  5
301
330
2E1
100
AcDbEntity
 67
1
  8
A-ANNO-NOTES
100
AcDbLine
 10
352.0
 20
309.09999999999997
 30
0.0
 11
462.0
 21
309.09999999999997
 31
0.0
  0
TEXT
  5
302
330
2E1
100
AcDbEntity
 67
1
  8
A-ANNO-TABLE
100
AcDbText
 10
352.0
 20
305.79999999999995
 30
0.0
 40
2.5
  1
5
  7
Arial
 11
352.0
 21
305.79999999999995
 31
0.0
100
AcDbText
  0
TEXT
  5
303
330
2E1
100
AcDbEntity
 67
1
  8
A-ANNO-TABLE
100
AcDbText
 10
361.0
 20
305.79999999999995
 30
0.0
 40
2.5
  1
Санузел мужской
  7
Arial
 11
361.0
 21
305.79999999999995
 31
0.0
100
AcDbText
  0
TEXT
  5
304
330
2E1
100
AcDbEntity
 67
1
  8
A-ANNO-TABLE
100
AcDbText
 10
437.0
 20
305.79999999999995
 30
0.0
 40
2.5
  1
-
  7
Arial
 72
2
 11
437.0
 21
305.79999999999995
 31
0.0
100
AcDbText
  0
TEXT
  5
305
330
2E1
100
AcDbEntity
 67
1
  8
A-ANNO-TABLE
100
AcDbText
 10
462.0
 20
305.79999999999995
 30
0.0
 40
2.5
  1
7,65
  7
Arial
 72
2
 11
462.0
 21
305.79999999999995
 31
0.0
100
AcDbText
  0
LINE
  5
306
330
2E1
100
AcDbEntity
 67
1
  8
A-ANNO-NOTES
100
AcDbLine
 10
352.0
 20
303.9
 30
0.0
 11
462.0
 21
303.9
 31
0.0
  0
TEXT
  5
307
330
2E1
100
AcDbEntity
 67
1
  8
A-ANNO-TABLE
100
AcDbText
 10
352.0
 20
300.59999999999997
 30
0.0
 40
2.5
  1
6
  7
Arial
 11
352.0
 21
300.59999999999997
 31
0.0
100
AcDbText
  0
TEXT
  5
308
330
2E1
100
AcDbEntity
 67
1
  8
A-ANNO-TABLE
100
AcDbText
 10
361.0
 20
300.59999999999997
 30
0.0
 40
2.5
  1
Коридор северный
  7
Arial
 11
361.0
 21
300.59999999999997
 31
0.0
100
AcDbText
  0
TEXT
  5
309
330
2E1
100
AcDbEntity
 67
1
  8
A-ANNO-TABLE
100
AcDbText
 10
437.0
 20
300.59999999999997
 30
0.0
 40
2.5
  1
-
  7
Arial
 72
2
 11
437.0
 21
300.59999999999997
 31
0.0
100
AcDbText
  0
TEXT
  5
30A
330
2E1
100
AcDbEntity
 67
1
  8
A-ANNO-TABLE
100
AcDbText
 10
462.0
 20
300.59999999999997
 30
0.0
 40
2.5
  1
35,12
  7
Arial
 72
2
 11
462.0
 21
300.59999999999997
 31
0.0
100
AcDbText
  0
LINE
  5
30B
330
2E1
100
AcDbEntity
 67
1
  8
A-ANNO-NOTES
100
AcDbLine
 10
352.0
 20
298.7
 30
0.0
 11
462.0
 21
298.7
 31
0.0
  0
TEXT
  5
30C
330
2E1
100
AcDbEntity
 67
1
  8
A-ANNO-TABLE
100
AcDbText
 10
352.0
 20
295.4
 30
0.0
 40
2.5
  1
7
  7
Arial
 11
352.0
 21
295.4
 31
0.0
100
AcDbText
  0
TEXT
  5
30D
330
2E1
100
AcDbEntity
 67
1
  8
A-ANNO-TABLE
100
AcDbText
 10
361.0
 20
295.4
 30
0.0
 40
2.5
  1
Коридор южный
  7
Arial
 11
361.0
 21
295.4
 31
0.0
100
AcDbText
  0
TEXT
  5
30E
330
2E1
100
AcDbEntity
 67
1
  8
A-ANNO-TABLE
100
AcDbText
 10
437.0
 20
295.4
 30
0.0
 40
2.5
  1
-
  7
Arial
 72
2
 11
437.0
 21
295.4
 31
0.0
100
AcDbText
  0
TEXT
  5
30F
330
2E1
100
AcDbEntity
 67
1
  8
A-ANNO-TABLE
100
AcDbText
 10
462.0
 20
295.4
 30
0.0
 40
2.5
  1
35,12
  7
Arial
 72
2
 11
462.0
 21
295.4
 31
0.0
100
AcDbText
  0
LINE
  5
310
330
2E1
100
AcDbEntity
 67
1
  8
A-ANNO-NOTES
100
AcDbLine
 10
352.0
 20
293.5
 30
0.0
 11
462.0
 21
293.5
 31
0.0
  0
TEXT
  5
311
330
2E1
100
AcDbEntity
 67
1
  8
A-ANNO-TABLE
100
AcDbText
 10
352.0
 20
290.2
 30
0.0
 40
2.5
  1
8
  7
Arial
 11
352.0
 21
290.2
 31
0.0
100
AcDbText
  0
TEXT
  5
312
330
2E1
100
AcDbEntity
 67
1
  8
A-ANNO-TABLE
100
AcDbText
 10
361.0
 20
290.2
 30
0.0
 40
2.5
  1
Коридор западный
  7
Arial
 11
361.0
 21
290.2
 31
0.0
100
AcDbText
  0
TEXT
  5
313
330
2E1
100
AcDbEntity
 67
1
  8
A-ANNO-TABLE
100
AcDbText
 10
437.0
 20
290.2
 30
0.0
 40
2.5
  1
-
  7
Arial
 72
2
 11
437.0
 21
290.2
 31
0.0
100
AcDbText
  0
TEXT
  5
314
330
2E1
100
AcDbEntity
 67
1
  8
A-ANNO-TABLE
100
AcDbText
 10
462.0
 20
290.2
 30
0.0
 40
2.5
  1
10,58
  7
Arial
 72
2
 11
462.0
 21
290.2
 31
0.0
100
AcDbText
  0
LINE
  5
315
330
2E1
100
AcDbEntity
 67
1
  8
A-ANNO-NOTES
100
AcDbLine
 10
352.0
 20
288.29999999999995
 30
0.0
 11
462.0
 21
288.29999999999995
 31
0.0
  0
TEXT
  5
316
330
2E1
100
AcDbEntity
 67
1
  8
A-ANNO-TABLE
100
AcDbText
 10
352.0
 20
285.0
 30
0.0
 40
2.5
  1
9
  7
Arial
 11
352.0
 21
285.0
 31
0.0
100
AcDbText
  0
TEXT
  5
317
330
2E1
100
AcDbEntity
 67
1
  8
A-ANNO-TABLE
100
AcDbText
 10
361.0
 20
285.0
 30
0.0
 40
2.5
  1
Коридор восточный
  7
Arial
 11
361.0
 21
285.0
 31
0.0
100
AcDbText
  0
TEXT
  5
318
330
2E1
100
AcDbEntity
 67
1
  8
A-ANNO-TABLE
100
AcDbText
 10
437.0
 20
285.0
 30
0.0
 40
2.5
  1
-
  7
Arial
 72
2
 11
437.0
 21
285.0
 31
0.0
100
AcDbText
  0
TEXT
  5
319
330
2E1
100
AcDbEntity
 67
1
  8
A-ANNO-TABLE
100
AcDbText
 10
462.0
 20
285.0
 30
0.0
 40
2.5
  1
10,58
  7
Arial
 72
2
 11
462.0
 21
285.0
 31
0.0
100
AcDbText
  0
LINE
  5
31A
330
2E1
100
AcDbEntity
 67
1
  8
A-ANNO-NOTES
100
AcDbLine
 10
352.0
 20
283.1
 30
0.0
 11
462.0
 21
283.1
 31
0.0
  0
TEXT
  5
31B
330
2E1
100
AcDbEntity
 67
1
  8
A-ANNO-TABLE
100
AcDbText
 10
352.0
 20
279.8
 30
0.0
 40
2.5
  1
10
  7
Arial
 11
352.0
 21
279.8
 31
0.0
100
AcDbText
  0
TEXT
  5
31C
330
2E1
100
AcDbEntity
 67
1
  8
A-ANNO-TABLE
100
AcDbText
 10
361.0
 20
279.8
 30
0.0
 40
2.5
  1
Опенспейс
  7
Arial
 11
361.0
 21
279.8
 31
0.0
100
AcDbText
  0
TEXT
  5
31D
330
2E1
100
AcDbEntity
 67
1
  8
A-ANNO-TABLE
100
AcDbText
 10
437.0
 20
279.8
 30
0.0
 40
2.5
  1
6
  7
Arial
 72
2
 11
437.0
 21
279.8
 31
0.0
100
AcDbText
  0
TEXT
  5
31E
330
2E1
100
AcDbEntity
 67
1
  8
A-ANNO-TABLE
100
AcDbText
 10
462.0
 20
279.8
 30
0.0
 40
2.5
  1
25,14
  7
Arial
 72
2
 11
462.0
 21
279.8
 31
0.0
100
AcDbText
  0
LINE
  5
31F
330
2E1
100
AcDbEntity
 67
1
  8
A-ANNO-NOTES
100
AcDbLine
 10
352.0
 20
277.9
 30
0.0
 11
462.0
 21
277.9
 31
0.0
  0
TEXT
  5
320
330
2E1
100
AcDbEntity
 67
1
  8
A-ANNO-TABLE
100
AcDbText
 10
352.0
 20
274.6
 30
0.0
 40
2.5
  1
11
  7
Arial
 11
352.0
 21
274.6
 31
0.0
100
AcDbText
  0
TEXT
  5
321
330
2E1
100
AcDbEntity
 67
1
  8
A-ANNO-TABLE
100
AcDbText
 10
361.0
 20
274.6
 30
0.0
 40
2.5
  1
Кроссовая СКС
  7
Arial
 11
361.0
 21
274.6
 31
0.0
100
AcDbText
  0
TEXT
  5
322
330
2E1
100
AcDbEntity
 67
1
  8
A-ANNO-TABLE
100
AcDbText
 10
437.0
 20
274.6
 30
0.0
 40
2.5
  1
-
  7
Arial
 72
2
 11
437.0
 21
274.6
 31
0.0
100
AcDbText
  0
TEXT
  5
323
330
2E1
100
AcDbEntity
 67
1
  8
A-ANNO-TABLE
100
AcDbText
 10
462.0
 20
274.6
 30
0.0
 40
2.5
  1
11,21
  7
Arial
 72
2
 11
462.0
 21
274.6
 31
0.0
100
AcDbText
  0
LINE
  5
324
330
2E1
100
AcDbEntity
 67
1
  8
A-ANNO-NOTES
100
AcDbLine
 10
352.0
 20
272.70000000000005
 30
0.0
 11
462.0
 21
272.70000000000005
 31
0.0
  0
TEXT
  5
325
330
2E1
100
AcDbEntity
 67
1
  8
A-ANNO-TABLE
100
AcDbText
 10
352.0
 20
269.40000000000003
 30
0.0
 40
2.5
  1
12
  7
Arial
 11
352.0
 21
269.40000000000003
 31
0.0
100
AcDbText
  0
TEXT
  5
326
330
2E1
100
AcDbEntity
 67
1
  8
A-ANNO-TABLE
100
AcDbText
 10
361.0
 20
269.40000000000003
 30
0.0
 40
2.5
  1
Кабинет 9
  7
Arial
 11
361.0
 21
269.40000000000003
 31
0.0
100
AcDbText
  0
TEXT
  5
327
330
2E1
100
AcDbEntity
 67
1
  8
A-ANNO-TABLE
100
AcDbText
 10
437.0
 20
269.40000000000003
 30
0.0
 40
2.5
  1
2
  7
Arial
 72
2
 11
437.0
 21
269.40000000000003
 31
0.0
100
AcDbText
  0
TEXT
  5
328
330
2E1
100
AcDbEntity
 67
1
  8
A-ANNO-TABLE
100
AcDbText
 10
462.0
 20
269.40000000000003
 30
0.0
 40
2.5
  1
12,36
  7
Arial
 72
2
 11
462.0
 21
269.40000000000003
 31
0.0
100
AcDbText
  0
LINE
  5
329
330
2E1
100
AcDbEntity
 67
1
  8
A-ANNO-NOTES
100
AcDbLine
 10
352.0
 20
267.5
 30
0.0
 11
462.0
 21
267.5
 31
0.0
  0
TEXT
  5
32A
330
2E1
100
AcDbEntity
 67
1
  8
A-ANNO-TABLE
100
AcDbText
 10
352.0
 20
264.20000000000005
 30
0.0
 40
2.5
  1
13
  7
Arial
 11
352.0
 21
264.20000000000005
 31
0.0
100
AcDbText
  0
TEXT
  5
32B
330
2E1
100
AcDbEntity
 67
1
  8
A-ANNO-TABLE
100
AcDbText
 10
361.0
 20
264.20000000000005
 30
0.0
 40
2.5
  1
Кабинет 1
  7
Arial
 11
361.0
 21
264.20000000000005
 31
0.0
100
AcDbText
  0
TEXT
  5
32C
330
2E1
100
AcDbEntity
 67
1
  8
A-ANNO-TABLE
100
AcDbText
 10
437.0
 20
264.20000000000005
 30
0.0
 40
2.5
  1
2
  7
Arial
 72
2
 11
437.0
 21
264.20000000000005
 31
0.0
100
AcDbText
  0
TEXT
  5
32D
330
2E1
100
AcDbEntity
 67
1
  8
A-ANNO-TABLE
100
AcDbText
 10
462.0
 20
264.20000000000005
 30
0.0
 40
2.5
  1
17,46
  7
Arial
 72
2
 11
462.0
 21
264.20000000000005
 31
0.0
100
AcDbText
  0
LINE
  5
32E
330
2E1
100
AcDbEntity
 67
1
  8
A-ANNO-NOTES
100
AcDbLine
 10
352.0
 20
262.30000000000007
 30
0.0
 11
462.0
 21
262.30000000000007
 31
0.0
  0
TEXT
  5
32F
330
2E1
100
AcDbEntity
 67
1
  8
A-ANNO-TABLE
100
AcDbText
 10
352.0
 20
259.00000000000006
 30
0.0
 40
2.5
  1
14
  7
Arial
 11
352.0
 21
259.00000000000006
 31
0.0
100
AcDbText
  0
TEXT
  5
330
330
2E1
100
AcDbEntity
 67
1
  8
A-ANNO-TABLE
100
AcDbText
 10
361.0
 20
259.00000000000006
 30
0.0
 40
2.5
  1
Переговорная
  7
Arial
 11
361.0
 21
259.00000000000006
 31
0.0
100
AcDbText
  0
TEXT
  5
331
330
2E1
100
AcDbEntity
 67
1
  8
A-ANNO-TABLE
100
AcDbText
 10
437.0
 20
259.00000000000006
 30
0.0
 40
2.5
  1
-
  7
Arial
 72
2
 11
437.0
 21
259.00000000000006
 31
0.0
100
AcDbText
  0
TEXT
  5
332
330
2E1
100
AcDbEntity
 67
1
  8
A-ANNO-TABLE
100
AcDbText
 10
462.0
 20
259.00000000000006
 30
0.0
 40
2.5
  1
17,46
  7
Arial
 72
2
 11
462.0
 21
259.00000000000006
 31
0.0
100
AcDbText
  0
LINE
  5
333
330
2E1
100
AcDbEntity
 67
1
  8
A-ANNO-NOTES
100
AcDbLine
 10
352.0
 20
257.1
 30
0.0
 11
462.0
 21
257.1
 31
0.0
  0
TEXT
  5
334
330
2E1
100
AcDbEntity
 67
1
  8
A-ANNO-TABLE
100
AcDbText
 10
352.0
 20
253.80000000000007
 30
0.0
 40
2.5
  1
15
  7
Arial
 11
352.0
 21
253.80000000000007
 31
0.0
100
AcDbText
  0
TEXT
  5
335
330
2E1
100
AcDbEntity
 67
1
  8
A-ANNO-TABLE
100
AcDbText
 10
361.0
 20
253.80000000000007
 30
0.0
 40
2.5
  1
Кабинет 2
  7
Arial
 11
361.0
 21
253.80000000000007
 31
0.0
100
AcDbText
  0
TEXT
  5
336
330
2E1
100
AcDbEntity
 67
1
  8
A-ANNO-TABLE
100
AcDbText
 10
437.0
 20
253.80000000000007
 30
0.0
 40
2.5
  1
2
  7
Arial
 72
2
 11
437.0
 21
253.80000000000007
 31
0.0
100
AcDbText
  0
TEXT
  5
337
330
2E1
100
AcDbEntity
 67
1
  8
A-ANNO-TABLE
100
AcDbText
 10
462.0
 20
253.80000000000007
 30
0.0
 40
2.5
  1
17,46
  7
Arial
 72
2
 11
462.0
 21
253.80000000000007
 31
0.0
100
AcDbText
  0
LINE
  5
338
330
2E1
100
AcDbEntity
 67
1
  8
A-ANNO-NOTES
100
AcDbLine
 10
352.0
 20
251.90000000000006
 30
0.0
 11
462.0
 21
251.90000000000006
 31
0.0
  0
TEXT
  5
339
330
2E1
100
AcDbEntity
 67
1
  8
A-ANNO-TABLE
100
AcDbText
 10
352.0
 20
248.60000000000008
 30
0.0
 40
2.5
  1
16
  7
Arial
 11
352.0
 21
248.60000000000008
 31
0.0
100
AcDbText
  0
TEXT
  5
33A
330
2E1
100
AcDbEntity
 67
1
  8
A-ANNO-TABLE
100
AcDbText
 10
361.0
 20
248.60000000000008
 30
0.0
 40
2.5
  1
Кабинет 3
  7
Arial
 11
361.0
 21
248.60000000000008
 31
0.0
100
AcDbText
  0
TEXT
  5
33B
330
2E1
100
AcDbEntity
 67
1
  8
A-ANNO-TABLE
100
AcDbText
 10
437.0
 20
248.60000000000008
 30
0.0
 40
2.5
  1
2
  7
Arial
 72
2
 11
437.0
 21
248.60000000000008
 31
0.0
100
AcDbText
  0
TEXT
  5
33C
330
2E1
100
AcDbEntity
 67
1
  8
A-ANNO-TABLE
100
AcDbText
 10
462.0
 20
248.60000000000008
 30
0.0
 40
2.5
  1
17,46
  7
Arial
 72
2
 11
462.0
 21
248.60000000000008
 31
0.0
100
AcDbText
  0
LINE
  5
33D
330
2E1
100
AcDbEntity
 67
1
  8
A-ANNO-NOTES
100
AcDbLine
 10
352.0
 20
246.70000000000007
 30
0.0
 11
462.0
 21
246.70000000000007
 31
0.0
  0
TEXT
  5
33E
330
2E1
100
AcDbEntity
 67
1
  8
A-ANNO-TABLE
100
AcDbText
 10
352.0
 20
243.4000000000001
 30
0.0
 40
2.5
  1
17
  7
Arial
 11
352.0
 21
243.4000000000001
 31
0.0
100
AcDbText
  0
TEXT
  5
33F
330
2E1
100
AcDbEntity
 67
1
  8
A-ANNO-TABLE
100
AcDbText
 10
361.0
 20
243.4000000000001
 30
0.0
 40
2.5
  1
Серверная
  7
Arial
 11
361.0
 21
243.4000000000001
 31
0.0
100
AcDbText
  0
TEXT
  5
340
330
2E1
100
AcDbEntity
 67
1
  8
A-ANNO-TABLE
100
AcDbText
 10
437.0
 20
243.4000000000001
 30
0.0
 40
2.5
  1
-
  7
Arial
 72
2
 11
437.0
 21
243.4000000000001
 31
0.0
100
AcDbText
  0
TEXT
  5
341
330
2E1
100
AcDbEntity
 67
1
  8
A-ANNO-TABLE
100
AcDbText
 10
462.0
 20
243.4000000000001
 30
0.0
 40
2.5
  1
16,65
  7
Arial
 72
2
 11
462.0
 21
243.4000000000001
 31
0.0
100
AcDbText
  0
LINE
  5
342
330
2E1
100
AcDbEntity
 67
1
  8
A-ANNO-NOTES
100
AcDbLine
 10
352.0
 20
241.50000000000009
 30
0.0
 11
462.0
 21
241.50000000000009
 31
0.0
  0
TEXT
  5
343
330
2E1
100
AcDbEntity
 67
1
  8
A-ANNO-TABLE
100
AcDbText
 10
352.0
 20
238.2000000000001
 30
0.0
 40
2.5
  1
18
  7
Arial
 11
352.0
 21
238.2000000000001
 31
0.0
100
AcDbText
  0
TEXT
  5
344
330
2E1
100
AcDbEntity
 67
1
  8
A-ANNO-TABLE
100
AcDbText
 10
361.0
 20
238.2000000000001
 30
0.0
 40
2.5
  1
Лестничная клетка
  7
Arial
 11
361.0
 21
238.2000000000001
 31
0.0
100
AcDbText
  0
TEXT
  5
345
330
2E1
100
AcDbEntity
 67
1
  8
A-ANNO-TABLE
100
AcDbText
 10
437.0
 20
238.2000000000001
 30
0.0
 40
2.5
  1
-
  7
Arial
 72
2
 11
437.0
 21
238.2000000000001
 31
0.0
100
AcDbText
  0
TEXT
  5
346
330
2E1
100
AcDbEntity
 67
1
  8
A-ANNO-TABLE
100
AcDbText
 10
462.0
 20
238.2000000000001
 30
0.0
 40
2.5
  1
17,42
  7
Arial
 72
2
 11
462.0
 21
238.2000000000001
 31
0.0
100
AcDbText
  0
LINE
  5
347
330
2E1
100
AcDbEntity
 67
1
  8
A-ANNO-NOTES
100
AcDbLine
 10
352.0
 20
236.3000000000001
 30
0.0
 11
462.0
 21
236.3000000000001
 31
0.0
  0
TEXT
  5
348
330
2E1
100
AcDbEntity
 67
1
  8
A-ANNO-TABLE
100
AcDbText
 10
352.0
 20
233.0000000000001
 30
0.0
 40
2.5
  1
19
  7
Arial
 11
352.0
 21
233.0000000000001
 31
0.0
100
AcDbText
  0
TEXT
  5
349
330
2E1
100
AcDbEntity
 67
1
  8
A-ANNO-TABLE
100
AcDbText
 10
361.0
 20
233.0000000000001
 30
0.0
 40
2.5
  1
Лестничная клетка
  7
Arial
 11
361.0
 21
233.0000000000001
 31
0.0
100
AcDbText
  0
TEXT
  5
34A
330
2E1
100
AcDbEntity
 67
1
  8
A-ANNO-TABLE
100
AcDbText
 10
437.0
 20
233.0000000000001
 30
0.0
 40
2.5
  1
-
  7
Arial
 72
2
 11
437.0
 21
233.0000000000001
 31
0.0
100
AcDbText
  0
TEXT
  5
34B
330
2E1
100
AcDbEntity
 67
1
  8
A-ANNO-TABLE
100
AcDbText
 10
462.0
 20
233.0000000000001
 30
0.0
 40
2.5
  1
14,15
  7
Arial
 72
2
 11
462.0
 21
233.0000000000001
 31
0.0
100
AcDbText
  0
LINE
  5
34C
330
2E1
100
AcDbEntity
 67
1
  8
A-ANNO-NOTES
100
AcDbLine
 10
352.0
 20
231.1000000000001
 30
0.0
 11
462.0
 21
231.1000000000001
 31
0.0
  0
TEXT
  5
34D
330
2E1
100
AcDbEntity
 67
1
  8
A-ANNO-TABLE
100
AcDbText
 10
352.0
 20
227.80000000000013
 30
0.0
 40
2.5
  1
20
  7
Arial
 11
352.0
 21
227.80000000000013
 31
0.0
100
AcDbText
  0
TEXT
  5
34E
330
2E1
100
AcDbEntity
 67
1
  8
A-ANNO-TABLE
100
AcDbText
 10
361.0
 20
227.80000000000013
 30
0.0
 40
2.5
  1
Кабинет 4
  7
Arial
 11
361.0
 21
227.80000000000013
 31
0.0
100
AcDbText
  0
TEXT
  5
34F
330
2E1
100
AcDbEntity
 67
1
  8
A-ANNO-TABLE
100
AcDbText
 10
437.0
 20
227.80000000000013
 30
0.0
 40
2.5
  1
2
  7
Arial
 72
2
 11
437.0
 21
227.80000000000013
 31
0.0
100
AcDbText
  0
TEXT
  5
350
330
2E1
100
AcDbEntity
 67
1
  8
A-ANNO-TABLE
100
AcDbText
 10
462.0
 20
227.80000000000013
 30
0.0
 40
2.5
  1
16,64
  7
Arial
 72
2
 11
462.0
 21
227.80000000000013
 31
0.0
100
AcDbText
  0
LINE
  5
351
330
2E1
100
AcDbEntity
 67
1
  8
A-ANNO-NOTES
100
AcDbLine
 10
352.0
 20
225.90000000000012
 30
0.0
 11
462.0
 21
225.90000000000012
 31
0.0
  0
TEXT
  5
352
330
2E1
100
AcDbEntity
 67
1
  8
A-ANNO-TABLE
100
AcDbText
 10
352.0
 20
222.60000000000014
 30
0.0
 40
2.5
  1
21
  7
Arial
 11
352.0
 21
222.60000000000014
 31
0.0
100
AcDbText
  0
TEXT
  5
353
330
2E1
100
AcDbEntity
 67
1
  8
A-ANNO-TABLE
100
AcDbText
 10
361.0
 20
222.60000000000014
 30
0.0
 40
2.5
  1
Кабинет 5
  7
Arial
 11
361.0
 21
222.60000000000014
 31
0.0
100
AcDbText
  0
TEXT
  5
354
330
2E1
100
AcDbEntity
 67
1
  8
A-ANNO-TABLE
100
AcDbText
 10
437.0
 20
222.60000000000014
 30
0.0
 40
2.5
  1
2
  7
Arial
 72
2
 11
437.0
 21
222.60000000000014
 31
0.0
100
AcDbText
  0
TEXT
  5
355
330
2E1
100
AcDbEntity
 67
1
  8
A-ANNO-TABLE
100
AcDbText
 10
462.0
 20
222.60000000000014
 30
0.0
 40
2.5
  1
16,64
  7
Arial
 72
2
 11
462.0
 21
222.60000000000014
 31
0.0
100
AcDbText
  0
LINE
  5
356
330
2E1
100
AcDbEntity
 67
1
  8
A-ANNO-NOTES
100
AcDbLine
 10
352.0
 20
220.70000000000013
 30
0.0
 11
462.0
 21
220.70000000000013
 31
0.0
  0
TEXT
  5
357
330
2E1
100
AcDbEntity
 67
1
  8
A-ANNO-TABLE
100
AcDbText
 10
352.0
 20
217.40000000000015
 30
0.0
 40
2.5
  1
22
  7
Arial
 11
352.0
 21
217.40000000000015
 31
0.0
100
AcDbText
  0
TEXT
  5
358
330
2E1
100
AcDbEntity
 67
1
  8
A-ANNO-TABLE
100
AcDbText
 10
361.0
 20
217.40000000000015
 30
0.0
 40
2.5
  1
Кабинет 6
  7
Arial
 11
361.0
 21
217.40000000000015
 31
0.0
100
AcDbText
  0
TEXT
  5
359
330
2E1
100
AcDbEntity
 67
1
  8
A-ANNO-TABLE
100
AcDbText
 10
437.0
 20
217.40000000000015
 30
0.0
 40
2.5
  1
2
  7
Arial
 72
2
 11
437.0
 21
217.40000000000015
 31
0.0
100
AcDbText
  0
TEXT
  5
35A
330
2E1
100
AcDbEntity
 67
1
  8
A-ANNO-TABLE
100
AcDbText
 10
462.0
 20
217.40000000000015
 30
0.0
 40
2.5
  1
16,64
  7
Arial
 72
2
 11
462.0
 21
217.40000000000015
 31
0.0
100
AcDbText
  0
LINE
  5
35B
330
2E1
100
AcDbEntity
 67
1
  8
A-ANNO-NOTES
100
AcDbLine
 10
352.0
 20
215.50000000000014
 30
0.0
 11
462.0
 21
215.50000000000014
 31
0.0
  0
TEXT
  5
35C
330
2E1
100
AcDbEntity
 67
1
  8
A-ANNO-TABLE
100
AcDbText
 10
352.0
 20
212.20000000000016
 30
0.0
 40
2.5
  1
23
  7
Arial
 11
352.0
 21
212.20000000000016
 31
0.0
100
AcDbText
  0
TEXT
  5
35D
330
2E1
100
AcDbEntity
 67
1
  8
A-ANNO-TABLE
100
AcDbText
 10
361.0
 20
212.20000000000016
 30
0.0
 40
2.5
  1
Кабинет 7
  7
Arial
 11
361.0
 21
212.20000000000016
 31
0.0
100
AcDbText
  0
TEXT
  5
35E
330
2E1
100
AcDbEntity
 67
1
  8
A-ANNO-TABLE
100
AcDbText
 10
437.0
 20
212.20000000000016
 30
0.0
 40
2.5
  1
2
  7
Arial
 72
2
 11
437.0
 21
212.20000000000016
 31
0.0
100
AcDbText
  0
TEXT
  5
35F
330
2E1
100
AcDbEntity
 67
1
  8
A-ANNO-TABLE
100
AcDbText
 10
462.0
 20
212.20000000000016
 30
0.0
 40
2.5
  1
16,40
  7
Arial
 72
2
 11
462.0
 21
212.20000000000016
 31
0.0
100
AcDbText
  0
LINE
  5
360
330
2E1
100
AcDbEntity
 67
1
  8
A-ANNO-NOTES
100
AcDbLine
 10
352.0
 20
210.30000000000015
 30
0.0
 11
462.0
 21
210.30000000000015
 31
0.0
  0
TEXT
  5
361
330
2E1
100
AcDbEntity
 67
1
  8
A-ANNO-TABLE
100
AcDbText
 10
352.0
 20
207.00000000000017
 30
0.0
 40
2.5
  1
24
  7
Arial
 11
352.0
 21
207.00000000000017
 31
0.0
100
AcDbText
  0
TEXT
  5
362
330
2E1
100
AcDbEntity
 67
1
  8
A-ANNO-TABLE
100
AcDbText
 10
361.0
 20
207.00000000000017
 30
0.0
 40
2.5
  1
Копировальная
  7
Arial
 11
361.0
 21
207.00000000000017
 31
0.0
100
AcDbText
  0
TEXT
  5
363
330
2E1
100
AcDbEntity
 67
1
  8
A-ANNO-TABLE
100
AcDbText
 10
437.0
 20
207.00000000000017
 30
0.0
 40
2.5
  1
-
  7
Arial
 72
2
 11
437.0
 21
207.00000000000017
 31
0.0
100
AcDbText
  0
TEXT
  5
364
330
2E1
100
AcDbEntity
 67
1
  8
A-ANNO-TABLE
100
AcDbText
 10
462.0
 20
207.00000000000017
 30
0.0
 40
2.5
  1
3,63
  7
Arial
 72
2
 11
462.0
 21
207.00000000000017
 31
0.0
100
AcDbText
  0
LINE
  5
365
330
2E1
100
AcDbEntity
 67
1
  8
A-ANNO-NOTES
100
AcDbLine
 10
352.0
 20
205.10000000000016
 30
0.0
 11
462.0
 21
205.10000000000016
 31
0.0
  0
LINE
  5
366
330
2E1
100
AcDbEntity
 67
1
  8
A-ANNO-TABLE
100
AcDbLine
 10
352.0
 20
205.10000000000016
 30
0.0
 11
462.0
 21
205.10000000000016
 31
0.0
  0
TEXT
  5
367
330
2E1
100
AcDbEntity
 67
1
  8
A-ANNO-TABLE
100
AcDbText
 10
352.0
 20
201.80000000000018
 30
0.0
 40
2.5
  1
ИТОГО ПОЛЕЗНАЯ
  7
Arial-Bold
 11
352.0
 21
201.80000000000018
 31
0.0
100
AcDbText
  0
TEXT
  5
368
330
2E1
100
AcDbEntity
 67
1
  8
A-ANNO-TABLE
100
AcDbText
 10
437.0
 20
201.80000000000018
 30
0.0
 40
2.5
  1
24
  7
Arial-Bold
 72
2
 11
437.0
 21
201.80000000000018
 31
0.0
100
AcDbText
  0
TEXT
  5
369
330
2E1
100
AcDbEntity
 67
1
  8
A-ANNO-TABLE
100
AcDbText
 10
462.0
 20
201.80000000000018
 30
0.0
 40
2.5
  1
375,42
  7
Arial-Bold
 72
2
 11
462.0
 21
201.80000000000018
 31
0.0
100
AcDbText
  0
TEXT
  5
36A
330
2E1
100
AcDbEntity
 67
1
  8
A-ANNO-TABLE
100
AcDbText
 10
352.0
 20
196.2000000000002
 30
0.0
 40
2.5
  1
ПЛОЩАДЬ ЭТАЖА В ОСЯХ
  7
Arial-Bold
 11
352.0
 21
196.2000000000002
 31
0.0
100
AcDbText
  0
TEXT
  5
36B
330
2E1
100
AcDbEntity
 67
1
  8
A-ANNO-TABLE
100
AcDbText
 10
462.0
 20
196.2000000000002
 30
0.0
 40
2.5
  1
423,36
  7
Arial-Bold
 72
2
 11
462.0
 21
196.2000000000002
 31
0.0
100
AcDbText
  0
TEXT
  5
36C
330
2E1
100
AcDbEntity
 67
1
  8
A-ANNO-LEGEND
100
AcDbText
 10
352.0
 20
184.2000000000002
 30
0.0
 40
2.9
  1
УСЛОВНЫЕ ОБОЗНАЧЕНИЯ
  7
Arial-Bold
 11
352.0
 21
184.2000000000002
 31
0.0
100
AcDbText
  0
LINE
  5
36D
330
2E1
100
AcDbEntity
 67
1
  8
A-ANNO-LEGEND
100
AcDbLine
 10
352.0
 20
181.80000000000018
 30
0.0
 11
462.0
 21
181.80000000000018
 31
0.0
  0
LWPOLYLINE
  5
36E
330
2E1
100
AcDbEntity
 67
1
  8
A-WALL-RC
100
AcDbPolyline
 90
4
 70
1
 10
352.0
 20
173.30000000000018
 10
359.0
 20
173.30000000000018
 10
359.0
 20
176.7000000000002
 10
352.0
 20
176.7000000000002
  0
HATCH
  5
36F
330
2E1
100
AcDbEntity
 67
1
  8
A-WALL-RC
 62
7
100
AcDbHatch
 10
0.0
 20
0.0
 30
0.0
210
0.0
220
0.0
230
1.0
  2
SOLID
 70
1
 71
0
 91
1
 92
3
 72
0
 73
1
 93
4
 10
352.0
 20
173.30000000000018
 10
359.0
 20
173.30000000000018
 10
359.0
 20
176.7000000000002
 10
352.0
 20
176.7000000000002
 97
0
 75
1
 76
1
 98
0
  0
TEXT
  5
370
330
2E1
100
AcDbEntity
 67
1
  8
A-ANNO-LEGEND
100
AcDbText
 10
363.0
 20
175.80000000000018
 30
0.0
 40
2.4
  1
Пилоны, стены ядра, стояки — монолитный ж/б
  7
Arial
 11
363.0
 21
175.80000000000018
 31
0.0
100
AcDbText
  0
LWPOLYLINE
  5
371
330
2E1
100
AcDbEntity
 67
1
  8
A-WALL-BLOCK
100
AcDbPolyline
 90
4
 70
1
 10
352.0
 20
167.50000000000017
 10
359.0
 20
167.50000000000017
 10
359.0
 20
170.90000000000018
 10
352.0
 20
170.90000000000018
  0
HATCH
  5
372
330
2E1
100
AcDbEntity
 67
1
  8
A-WALL-BLOCK
 62
7
100
AcDbHatch
 10
0.0
 20
0.0
 30
0.0
210
0.0
220
0.0
230
1.0
  2
ANSI31
 70
0
 71
0
 91
1
 92
3
 72
0
 73
1
 93
4
 10
352.0
 20
167.50000000000017
 10
359.0
 20
167.50000000000017
 10
359.0
 20
170.90000000000018
 10
352.0
 20
170.90000000000018
 97
0
 75
1
 76
1
 52
0.0
 41
1.2
 77
0
 78
1
 53
45.0
 43
0.0
 44
0.0
 45
-2.6940768364
 46
2.6940768364
 79
0
 98
0
  0
TEXT
  5
373
330
2E1
100
AcDbEntity
 67
1
  8
A-ANNO-LEGEND
100
AcDbText
 10
363.0
 20
170.00000000000017
 30
0.0
 40
2.4
  1
Заполнение и внутренние стены — блоки
  7
Arial
 11
363.0
 21
170.00000000000017
 31
0.0
100
AcDbText
  0
LWPOLYLINE
  5
374
330
2E1
100
AcDbEntity
 67
1
  8
A-WALL-GLASS
100
AcDbPolyline
 90
4
 70
1
 10
352.0
 20
161.70000000000016
 10
359.0
 20
161.70000000000016
 10
359.0
 20
165.10000000000016
 10
352.0
 20
165.10000000000016
  0
LINE
  5
375
330
2E1
100
AcDbEntity
 67
1
  8
A-WALL-GLASS
100
AcDbLine
 10
352.0
 20
162.50000000000017
 30
0.0
 11
359.0
 21
162.50000000000017
 31
0.0
  0
LINE
  5
376
330
2E1
100
AcDbEntity
 67
1
  8
A-WALL-GLASS
100
AcDbLine
 10
352.0
 20
164.30000000000015
 30
0.0
 11
359.0
 21
164.30000000000015
 31
0.0
  0
TEXT
  5
377
330
2E1
100
AcDbEntity
 67
1
  8
A-ANNO-LEGEND
100
AcDbText
 10
363.0
 20
164.20000000000016
 30
0.0
 40
2.4
  1
Перегородки светопрозрачные
  7
Arial
 11
363.0
 21
164.20000000000016
 31
0.0
100
AcDbText
  0
LWPOLYLINE
  5
378
330
2E1
100
AcDbEntity
 67
1
  8
A-GLAZ-RIBBON
100
AcDbPolyline
 90
4
 70
1
 10
352.0
 20
155.90000000000015
 10
359.0
 20
155.90000000000015
 10
359.0
 20
159.30000000000013
 10
352.0
 20
159.30000000000013
  0
LINE
  5
379
330
2E1
100
AcDbEntity
 67
1
  8
A-GLAZ-RIBBON
100
AcDbLine
 10
352.0
 20
156.70000000000016
 30
0.0
 11
359.0
 21
156.70000000000016
 31
0.0
  0
LINE
  5
37A
330
2E1
100
AcDbEntity
 67
1
  8
A-GLAZ-RIBBON
100
AcDbLine
 10
352.0
 20
158.50000000000017
 30
0.0
 11
359.0
 21
158.50000000000017
 31
0.0
  0
TEXT
  5
37B
330
2E1
100
AcDbEntity
 67
1
  8
A-ANNO-LEGEND
100
AcDbText
 10
363.0
 20
158.40000000000015
 30
0.0
 40
2.4
  1
Ленточное остекление, навесной фасад
  7
Arial
 11
363.0
 21
158.40000000000015
 31
0.0
100
AcDbText
  0
LWPOLYLINE
  5
37C
330
2E1
100
AcDbEntity
 67
1
  8
E-SERVER-ROOM
100
AcDbPolyline
 90
4
 70
1
 10
352.0
 20
150.10000000000014
 10
359.0
 20
150.10000000000014
 10
359.0
 20
153.5000000000001
 10
352.0
 20
153.5000000000001
  0
HATCH
  5
37D
330
2E1
100
AcDbEntity
 67
1
  8
E-SERVER-ROOM
 62
7
100
AcDbHatch
 10
0.0
 20
0.0
 30
0.0
210
0.0
220
0.0
230
1.0
  2
ANSI31
 70
0
 71
0
 91
1
 92
3
 72
0
 73
1
 93
4
 10
352.0
 20
150.10000000000014
 10
359.0
 20
150.10000000000014
 10
359.0
 20
153.5000000000001
 10
352.0
 20
153.5000000000001
 97
0
 75
1
 76
1
 52
0.0
 41
1.2
 77
0
 78
1
 53
45.0
 43
0.0
 44
0.0
 45
-2.6940768364
 46
2.6940768364
 79
0
 98
0
  0
TEXT
  5
37E
330
2E1
100
AcDbEntity
 67
1
  8
A-ANNO-LEGEND
100
AcDbText
 10
363.0
 20
152.60000000000014
 30
0.0
 40
2.4
  1
Серверная — предмет решения листа
  7
Arial
 11
363.0
 21
152.60000000000014
 31
0.0
100
AcDbText
  0
TEXT
  5
37F
330
2E1
100
AcDbEntity
 67
1
  8
A-ANNO-NOTES
100
AcDbText
 10
352.0
 20
143.80000000000013
 30
0.0
 40
2.3
  1
Красная заливка на листе несёт один смысл — серверная.
  7
Arial
 11
352.0
 21
143.80000000000013
 31
0.0
100
AcDbText
  0
TEXT
  5
380
330
2E1
100
AcDbEntity
 67
1
  8
A-ANNO-NOTES
100
AcDbText
 10
352.0
 20
139.40000000000015
 30
0.0
 40
2.3
  1
«СКС» — вертикальные стояки слаботочных сетей: связь этажа
  7
Arial
 11
352.0
 21
139.40000000000015
 31
0.0
100
AcDbText
  0
TEXT
  5
381
330
2E1
100
AcDbEntity
 67
1
  8
A-ANNO-NOTES
100
AcDbText
 10
352.0
 20
135.00000000000017
 30
0.0
 40
2.3
  1
с основной и резервной серверными на других этажах.
  7
Arial
 11
352.0
 21
135.00000000000017
 31
0.0
100
AcDbText
  0
TEXT
  5
382
330
2E1
100
AcDbEntity
 67
1
  8
A-ANNO-NOTES
100
AcDbText
 10
352.0
 20
130.6000000000002
 30
0.0
 40
2.3
  1
Оборудование, шкафы и кабельные трассы не показаны —
  7
Arial
 11
352.0
 21
130.6000000000002
 31
0.0
100
AcDbText
  0
TEXT
  5
383
330
2E1
100
AcDbEntity
 67
1
  8
A-ANNO-NOTES
100
AcDbText
 10
352.0
 20
126.20000000000022
 30
0.0
 40
2.3
  1
они являются предметом разработки.
  7
Arial
 11
352.0
 21
126.20000000000022
 31
0.0
100
AcDbText
  0
TEXT
  5
384
330
2E1
100
AcDbEntity
 67
1
  8
A-ANNO-NOTES
100
AcDbText
 10
352.0
 20
121.80000000000024
 30
0.0
 40
2.3
  1
«РМ» — число рабочих мест в помещении.
  7
Arial
 11
352.0
 21
121.80000000000024
 31
0.0
100
AcDbText
  0
TEXT
  5
385
330
2E1
100
AcDbEntity
 67
1
  8
A-ANNO-NOTES
100
AcDbText
 10
352.0
 20
117.40000000000026
 30
0.0
 40
2.3
  1
Шахта лифтов в полезную площадь не входит.
  7
Arial
 11
352.0
 21
117.40000000000026
 31
0.0
100
AcDbText
  0
TEXT
  5
386
330
2E1
100
AcDbEntity
 67
1
  8
A-ANNO-NOTES
100
AcDbText
 10
352.0
 20
113.00000000000028
 30
0.0
 40
2.3
  1
Размеры в миллиметрах. Чертёж в модели 1:1, лист 1:100.
  7
Arial
 11
352.0
 21
113.00000000000028
 31
0.0
100
AcDbText
  0
LINE
  5
387
330
2E1
100
AcDbEntity
 67
1
  8
A-TITLE
100
AcDbLine
 10
66.0
 20
56.0
 30
0.0
 11
344.0
 21
56.0
 31
0.0
  0
TEXT
  5
388
330
2E1
100
AcDbEntity
 67
1
  8
A-TITLE
100
AcDbText
 10
66.0
 20
50.0
 30
0.0
 40
4.2
  1
ПЛАН ЭТАЖА НА ОТМ. +0,000
  7
Arial-Bold
 11
66.0
 21
50.0
 31
0.0
100
AcDbText
  0
TEXT
  5
389
330
2E1
100
AcDbEntity
 67
1
  8
A-TITLE
100
AcDbText
 10
66.0
 20
44.0
 30
0.0
 40
3.0
  1
М 1:100
  7
Arial
 11
66.0
 21
44.0
 31
0.0
100
AcDbText
  0
TEXT
  5
38A
330
2E1
100
AcDbEntity
 67
1
  8
A-TITLE
100
AcDbText
 10
352.0
 20
360.0
 30
0.0
 40
14.3
  1
V67
  7
Arial-Bold
 11
352.0
 21
360.0
 31
0.0
100
AcDbText
  0
TEXT
  5
38B
330
2E1
100
AcDbEntity
 67
1
  8
A-TITLE
100
AcDbText
 10
392.0
 20
364.0
 30
0.0
 40
4.2
  1
ВАРИАНТ
  7
Arial
 11
392.0
 21
364.0
 31
0.0
100
AcDbText
  0
TEXT
  5
38C
330
2E1
100
AcDbEntity
 67
1
  8
A-TITLE
100
AcDbText
 10
392.0
 20
358.0
 30
0.0
 40
4.2
  1
423 М2
  7
Arial
 11
392.0
 21
358.0
 31
0.0
100
AcDbText
  0
LINE
  5
38D
330
2E1
100
AcDbEntity
 67
1
  8
A-TITLE
100
AcDbLine
 10
66.0
 20
26.0
 30
0.0
 11
561.0
 21
26.0
 31
0.0
  0
TEXT
  5
38E
330
2E1
100
AcDbEntity
 67
1
  8
A-TITLE
100
AcDbText
 10
66.0
 20
20.5
 30
0.0
 40
3.2
  1
АБЭР
  7
Arial-Bold
 11
66.0
 21
20.5
 31
0.0
100
AcDbText
  0
TEXT
  5
38F
330
2E1
100
AcDbEntity
 67
1
  8
A-TITLE
100
AcDbText
 10
92.0
 20
20.5
 30
0.0
 40
3.2
  1
ПЛАН ЭТАЖА · ПОДОСНОВА ДЛЯ ПРОЕКТИРОВАНИЯ СЛАБОТОЧНЫХ СЕТЕЙ · V67
  7
Arial
 11
92.0
 21
20.5
 31
0.0
100
AcDbText
  0
TEXT
  5
390
330
2E1
100
AcDbEntity
 67
1
  8
A-TITLE
100
AcDbText
 10
561.0
 20
20.5
 30
0.0
 40
3.2
  1
A2 · М 1:100
  7
Arial
 72
2
 11
561.0
 21
20.5
 31
0.0
100
AcDbText
  0
LWPOLYLINE
  5
391
330
2E1
100
AcDbEntity
 67
1
  8
A-TITLE
100
AcDbPolyline
 90
4
 70
1
 10
0.0
 20
0.0
 10
594.0
 20
0.0
 10
594.0
 20
420.0
 10
0.0
 20
420.0
  0
ENDSEC
  0
SECTION
  2
OBJECTS
  0
DICTIONARY
  5
A
330
0
100
AcDbDictionary
281
1
  3
ACAD_COLOR
350
B
  3
ACAD_GROUP
350
C
  3
ACAD_LAYOUT
350
D
  3
ACAD_MATERIAL
350
E
  3
ACAD_MLEADERSTYLE
350
F
  3
ACAD_MLINESTYLE
350
10
  3
ACAD_PLOTSETTINGS
350
11
  3
ACAD_PLOTSTYLENAME
350
12
  3
ACAD_SCALELIST
350
14
  3
ACAD_TABLESTYLE
350
15
  3
ACAD_VISUALSTYLE
350
16
  3
EZDXF_META
350
2D
  0
DICTIONARY
  5
B
330
A
100
AcDbDictionary
281
1
  0
DICTIONARY
  5
C
330
A
100
AcDbDictionary
281
1
  0
DICTIONARY
  5
D
330
A
100
AcDbDictionary
281
1
  3
Model
350
1A
  3
A2-1-100
350
2E4
  0
DICTIONARY
  5
E
330
A
100
AcDbDictionary
281
1
  3
ByBlock
350
1F
  3
ByLayer
350
20
  3
Global
350
21
  0
DICTIONARY
  5
F
330
A
100
AcDbDictionary
281
1
  3
Standard
350
2C
  0
DICTIONARY
  5
10
330
A
100
AcDbDictionary
281
1
  3
Standard
350
22
  0
DICTIONARY
  5
11
330
A
100
AcDbDictionary
281
1
  0
ACDBDICTIONARYWDFLT
  5
12
330
A
100
AcDbDictionary
281
1
  3
Normal
350
13
100
AcDbDictionaryWithDefault
340
13
  0
ACDBPLACEHOLDER
  5
13
330
12
  0
DICTIONARY
  5
14
330
A
100
AcDbDictionary
281
1
  0
DICTIONARY
  5
15
330
A
100
AcDbDictionary
281
1
  0
DICTIONARY
  5
16
330
A
100
AcDbDictionary
281
1
  3
2dWireframe
350
5A
  3
Basic
350
5B
  3
Brighten
350
5C
  3
ColorChange
350
5D
  3
Conceptual
350
5E
  3
Dim
350
5F
  3
EdgeColorOff
350
60
  3
Facepattern
350
61
  3
Flat
350
62
  3
FlatWithEdges
350
63
  3
Gouraud
350
64
  3
GouraudWithEdges
350
65
  3
Hidden
350
66
  3
JitterOff
350
67
  3
Linepattern
350
68
  3
Modeling
350
69
  3
OverhangOff
350
6A
  3
Realistic
350
6B
  3
Shaded
350
6C
  3
Shaded with edges
350
6D
  3
Shades of Gray
350
6E
  3
Sketchy
350
6F
  3
Thicken
350
70
  3
Wireframe
350
71
  3
X-Ray
350
72
  0
LAYOUT
  5
1A
330
D
100
AcDbPlotSettings
  1

  4
A3
  6

 40
7.5
 41
20.0
 42
7.5
 43
20.0
 44
420.0
 45
297.0
 46
0.0
 47
0.0
 48
0.0
 49
0.0
140
0.0
141
0.0
142
1.0
143
1.0
 70
1024
 72
1
 73
0
 74
5
  7

 75
16
 76
0
 77
2
 78
300
147
1.0
148
0.0
149
0.0
100
AcDbLayout
  1
Model
 70
1
 71
0
 10
0.0
 20
0.0
 11
420.0
 21
297.0
 12
0.0
 22
0.0
 32
0.0
 14
1e+20
 24
1e+20
 34
1e+20
 15
-1e+20
 25
-1e+20
 35
-1e+20
146
0.0
 13
0.0
 23
0.0
 33
0.0
 16
1.0
 26
0.0
 36
0.0
 17
0.0
 27
1.0
 37
0.0
 76
1
330
17
  0
MATERIAL
  5
1F
102
{ACAD_REACTORS
330
E
102
}
330
E
100
AcDbMaterial
  1
ByBlock
  2

 70
0
 40
1.0
 71
1
 41
1.0
 91
-1023410177
 42
1.0
 72
1
  3

 73
1
 74
1
 75
1
 44
0.5
 73
0
 45
1.0
 46
1.0
 77
1
  4

 78
1
 79
1
170
1
 48
1.0
171
1
  6

172
1
173
1
174
1
140
1.0
141
1.0
175
1
  7

176
1
177
1
178
1
143
1.0
179
1
  8

270
1
271
1
272
1
145
1.0
146
1.0
273
1
  9

274
1
275
1
276
1
 42
1.0
 72
1
  3

 73
1
 74
1
 75
1
 94
63
  0
MATERIAL
  5
20
102
{ACAD_REACTORS
330
E
102
}
330
E
100
AcDbMaterial
  1
ByLayer
  2

 70
0
 40
1.0
 71
1
 41
1.0
 91
-1023410177
 42
1.0
 72
1
  3

 73
1
 74
1
 75
1
 44
0.5
 73
0
 45
1.0
 46
1.0
 77
1
  4

 78
1
 79
1
170
1
 48
1.0
171
1
  6

172
1
173
1
174
1
140
1.0
141
1.0
175
1
  7

176
1
177
1
178
1
143
1.0
179
1
  8

270
1
271
1
272
1
145
1.0
146
1.0
273
1
  9

274
1
275
1
276
1
 42
1.0
 72
1
  3

 73
1
 74
1
 75
1
 94
63
  0
MATERIAL
  5
21
102
{ACAD_REACTORS
330
E
102
}
330
E
100
AcDbMaterial
  1
Global
  2

 70
0
 40
1.0
 71
1
 41
1.0
 91
-1023410177
 42
1.0
 72
1
  3

 73
1
 74
1
 75
1
 44
0.5
 73
0
 45
1.0
 46
1.0
 77
1
  4

 78
1
 79
1
170
1
 48
1.0
171
1
  6

172
1
173
1
174
1
140
1.0
141
1.0
175
1
  7

176
1
177
1
178
1
143
1.0
179
1
  8

270
1
271
1
272
1
145
1.0
146
1.0
273
1
  9

274
1
275
1
276
1
 42
1.0
 72
1
  3

 73
1
 74
1
 75
1
 94
63
  0
MLINESTYLE
  5
22
102
{ACAD_REACTORS
330
10
102
}
330
10
100
AcDbMlineStyle
  2
Standard
 70
0
  3

 62
256
 51
90.0
 52
90.0
 71
2
 49
0.5
 62
256
  6
BYLAYER
 49
-0.5
 62
256
  6
BYLAYER
  0
MLEADERSTYLE
  5
2C
102
{ACAD_REACTORS
330
F
102
}
330
F
100
AcDbMLeaderStyle
179
2
170
2
171
1
172
0
 90
2
 40
0.0
 41
0.0
173
1
 91
-1056964608
 92
-2
290
1
 42
2.0
291
1
 43
8.0
  3
Standard
 44
4.0
300

342
29
174
1
175
1
176
0
178
1
 93
-1056964608
 45
4.0
292
0
297
0
 46
4.0
 94
-1056964608
 47
1.0
 49
1.0
140
1.0
294
1
141
0.0
177
0
142
1.0
295
0
296
0
143
3.75
271
0
272
9
273
9
  0
DICTIONARY
  5
2D
330
A
100
AcDbDictionary
280
1
281
1
  3
CREATED_BY_EZDXF
350
2E
  3
WRITTEN_BY_EZDXF
350
395
  0
DICTIONARYVAR
  5
2E
330
2D
100
DictionaryVariables
280
0
  1
1.4.4 @ 2026-08-28T14:59:36.756478+00:00
  0
VISUALSTYLE
  5
5A
102
{ACAD_REACTORS
330
16
102
}
330
16
100
AcDbVisualStyle
  2
2dWireframe
 70
4
177
3
291
0
 70
58
 90
2
176
1
 90
2
176
1
 90
0
176
1
 90
0
176
1
 40
0.6
176
1
 40
30.0
176
1
 62
7
420
16777215
176
1
 90
1
176
1
 90
4
176
1
 62
7
176
1
 62
257
176
1
 90
1
176
1
 90
1
176
1
 40
1.0
176
1
 90
8
176
1
 62
7
176
1
 40
1.0
176
1
 90
1
176
1
 90
6
176
1
 90
2
176
1
 62
7
176
1
 90
5
176
1
 90
0
176
1
 90
0
176
1
290
0
176
1
 90
1
176
1
 40
0.0
176
1
 90
0
176
1
290
1
176
1
290
1
176
1
290
0
176
1
290
0
176
1
290
0
176
1
290
0
176
1
290
0
176
1
290
0
176
1
290
0
176
1
 90
50
176
1
 40
0.0
176
1
 40
1.0
176
1
 90
0
176
1
 62
18
420
0
176
1
 90
50
176
1
 90
3
176
1
 62
5
420
255
176
1
290
0
176
1
 90
50
176
1
 90
50
176
1
 90
50
176
1
290
0
176
1
 90
50
176
1
 62
256
176
0
 40
1.0
176
0
 90
2
176
1
  1
strokes_ogs.tif
176
1
290
0
176
1
 40
1.0
176
1
 40
1.0
176
1
  0
VISUALSTYLE
  5
5B
102
{ACAD_REACTORS
330
16
102
}
330
16
100
AcDbVisualStyle
  2
Basic
 70
7
177
3
291
1
 70
58
 90
2
176
1
 90
2
176
1
 90
0
176
1
 90
1
176
1
 40
0.6
176
1
 40
30.0
176
1
 62
7
420
16777215
176
1
 90
1
176
1
 90
4
176
1
 62
7
176
1
 62
257
176
1
 90
1
176
1
 90
1
176
1
 40
1.0
176
1
 90
8
176
1
 62
7
176
1
 40
1.0
176
1
 90
1
176
1
 90
6
176
1
 90
2
176
1
 62
7
176
1
 90
5
176
1
 90
0
176
1
 90
0
176
1
290
0
176
1
 90
1
176
1
 40
0.0
176
1
 90
0
176
1
290
0
176
1
290
1
176
1
290
1
176
1
290
0
176
1
290
0
176
1
290
0
176
1
290
0
176
1
290
0
176
1
290
0
176
1
 90
50
176
1
 40
0.0
176
1
 40
1.0
176
1
 90
0
176
1
 62
18
420
0
176
1
 90
50
176
1
 90
3
176
1
 62
5
420
255
176
1
290
0
176
1
 90
50
176
1
 90
50
176
1
 90
50
176
1
290
0
176
1
 90
50
176
1
 62
256
176
0
 40
1.0
176
0
 90
2
176
1
  1
strokes_ogs.tif
176
1
290
0
176
1
 40
1.0
176
1
 40
1.0
176
1
  0
VISUALSTYLE
  5
5C
102
{ACAD_REACTORS
330
16
102
}
330
16
100
AcDbVisualStyle
  2
Brighten
 70
12
177
3
291
1
 70
58
 90
2
176
1
 90
2
176
1
 90
0
176
1
 90
2
176
1
 40
0.6
176
1
 40
30.0
176
1
 62
7
420
16777215
176
1
 90
1
176
1
 90
4
176
1
 62
7
176
1
 62
257
176
1
 90
1
176
1
 90
1
176
1
 40
1.0
176
1
 90
8
176
1
 62
7
176
1
 40
1.0
176
1
 90
1
176
1
 90
6
176
1
 90
2
176
1
 62
7
176
1
 90
5
176
1
 90
0
176
1
 90
0
176
1
290
0
176
1
 90
1
176
1
 40
0.0
176
1
 90
0
176
1
290
0
176
1
290
1
176
1
290
1
176
1
290
0
176
1
290
0
176
1
290
0
176
1
290
0
176
1
290
0
176
1
290
0
176
1
 90
50
176
1
 40
0.0
176
1
 40
1.0
176
1
 90
0
176
1
 62
18
420
0
176
1
 90
50
176
1
 90
3
176
1
 62
5
420
255
176
1
290
0
176
1
 90
50
176
1
 90
50
176
1
 90
50
176
1
290
0
176
1
 90
50
176
1
 62
256
176
0
 40
1.0
176
0
 90
2
176
1
  1
strokes_ogs.tif
176
1
290
0
176
1
 40
1.0
176
1
 40
1.0
176
1
  0
VISUALSTYLE
  5
5D
102
{ACAD_REACTORS
330
16
102
}
330
16
100
AcDbVisualStyle
  2
ColorChange
 70
16
177
3
291
1
 70
58
 90
2
176
1
 90
2
176
1
 90
0
176
1
 90
2
176
1
 40
0.6
176
1
 40
30.0
176
1
 62
7
420
16777215
176
1
 90
1
176
1
 90
4
176
1
 62
7
176
1
 62
257
176
1
 90
1
176
1
 90
1
176
1
 40
1.0
176
1
 90
8
176
1
 62
7
176
1
 40
1.0
176
1
 90
1
176
1
 90
6
176
1
 90
2
176
1
 62
7
176
1
 90
5
176
1
 90
0
176
1
 90
0
176
1
290
0
176
1
 90
1
176
1
 40
0.0
176
1
 90
0
176
1
290
0
176
1
290
1
176
1
290
1
176
1
290
0
176
1
290
0
176
1
290
0
176
1
290
0
176
1
290
0
176
1
290
0
176
1
 90
50
176
1
 40
0.0
176
1
 40
1.0
176
1
 90
0
176
1
 62
18
420
0
176
1
 90
50
176
1
 90
3
176
1
 62
5
420
255
176
1
290
0
176
1
 90
50
176
1
 90
50
176
1
 90
50
176
1
290
0
176
1
 90
50
176
1
 62
256
176
0
 40
1.0
176
0
 90
2
176
1
  1
strokes_ogs.tif
176
1
290
0
176
1
 40
1.0
176
1
 40
1.0
176
1
  0
VISUALSTYLE
  5
5E
102
{ACAD_REACTORS
330
16
102
}
330
16
100
AcDbVisualStyle
  2
Conceptual
 70
9
177
3
291
0
 70
58
 90
2
176
1
 90
2
176
1
 90
0
176
1
 90
3
176
1
 40
0.6
176
1
 40
30.0
176
1
 62
7
420
16777215
176
1
 90
1
176
1
 90
4
176
1
 62
7
176
1
 62
257
176
1
 90
1
176
1
 90
1
176
1
 40
1.0
176
1
 90
8
176
1
 62
7
176
1
 40
1.0
176
1
 90
1
176
1
 90
6
176
1
 90
2
176
1
 62
7
176
1
 90
5
176
1
 90
0
176
1
 90
0
176
1
290
0
176
1
 90
1
176
1
 40
0.0
176
1
 90
0
176
1
290
0
176
1
290
1
176
1
290
1
176
1
290
0
176
1
290
0
176
1
290
0
176
1
290
0
176
1
290
0
176
1
290
0
176
1
 90
50
176
1
 40
0.0
176
1
 40
1.0
176
1
 90
0
176
1
 62
18
420
0
176
1
 90
50
176
1
 90
3
176
1
 62
5
420
255
176
1
290
0
176
1
 90
50
176
1
 90
50
176
1
 90
50
176
1
290
0
176
1
 90
50
176
1
 62
256
176
0
 40
1.0
176
0
 90
2
176
1
  1
strokes_ogs.tif
176
1
290
0
176
1
 40
1.0
176
1
 40
1.0
176
1
  0
VISUALSTYLE
  5
5F
102
{ACAD_REACTORS
330
16
102
}
330
16
100
AcDbVisualStyle
  2
Dim
 70
11
177
3
291
1
 70
58
 90
2
176
1
 90
2
176
1
 90
0
176
1
 90
2
176
1
 40
0.6
176
1
 40
30.0
176
1
 62
7
420
16777215
176
1
 90
1
176
1
 90
4
176
1
 62
7
176
1
 62
257
176
1
 90
1
176
1
 90
1
176
1
 40
1.0
176
1
 90
8
176
1
 62
7
176
1
 40
1.0
176
1
 90
1
176
1
 90
6
176
1
 90
2
176
1
 62
7
176
1
 90
5
176
1
 90
0
176
1
 90
0
176
1
290
0
176
1
 90
1
176
1
 40
0.0
176
1
 90
0
176
1
290
0
176
1
290
1
176
1
290
1
176
1
290
0
176
1
290
0
176
1
290
0
176
1
290
0
176
1
290
0
176
1
290
0
176
1
 90
50
176
1
 40
0.0
176
1
 40
1.0
176
1
 90
0
176
1
 62
18
420
0
176
1
 90
50
176
1
 90
3
176
1
 62
5
420
255
176
1
290
0
176
1
 90
50
176
1
 90
50
176
1
 90
50
176
1
290
0
176
1
 90
50
176
1
 62
256
176
0
 40
1.0
176
0
 90
2
176
1
  1
strokes_ogs.tif
176
1
290
0
176
1
 40
1.0
176
1
 40
1.0
176
1
  0
VISUALSTYLE
  5
60
102
{ACAD_REACTORS
330
16
102
}
330
16
100
AcDbVisualStyle
  2
EdgeColorOff
 70
22
177
3
291
1
 70
58
 90
2
176
1
 90
2
176
1
 90
0
176
1
 90
2
176
1
 40
0.6
176
1
 40
30.0
176
1
 62
7
420
16777215
176
1
 90
1
176
1
 90
4
176
1
 62
7
176
1
 62
257
176
1
 90
1
176
1
 90
1
176
1
 40
1.0
176
1
 90
8
176
1
 62
7
176
1
 40
1.0
176
1
 90
1
176
1
 90
6
176
1
 90
2
176
1
 62
7
176
1
 90
5
176
1
 90
0
176
1
 90
0
176
1
290
0
176
1
 90
1
176
1
 40
0.0
176
1
 90
0
176
1
290
0
176
1
290
1
176
1
290
1
176
1
290
0
176
1
290
0
176
1
290
0
176
1
290
0
176
1
290
0
176
1
290
0
176
1
 90
50
176
1
 40
0.0
176
1
 40
1.0
176
1
 90
0
176
1
 62
18
420
0
176
1
 90
50
176
1
 90
3
176
1
 62
5
420
255
176
1
290
0
176
1
 90
50
176
1
 90
50
176
1
 90
50
176
1
290
0
176
1
 90
50
176
1
 62
256
176
0
 40
1.0
176
0
 90
2
176
1
  1
strokes_ogs.tif
176
1
290
0
176
1
 40
1.0
176
1
 40
1.0
176
1
  0
VISUALSTYLE
  5
61
102
{ACAD_REACTORS
330
16
102
}
330
16
100
AcDbVisualStyle
  2
Facepattern
 70
15
177
3
291
1
 70
58
 90
2
176
1
 90
2
176
1
 90
0
176
1
 90
2
176
1
 40
0.6
176
1
 40
30.0
176
1
 62
7
420
16777215
176
1
 90
1
176
1
 90
4
176
1
 62
7
176
1
 62
257
176
1
 90
1
176
1
 90
1
176
1
 40
1.0
176
1
 90
8
176
1
 62
7
176
1
 40
1.0
176
1
 90
1
176
1
 90
6
176
1
 90
2
176
1
 62
7
176
1
 90
5
176
1
 90
0
176
1
 90
0
176
1
290
0
176
1
 90
1
176
1
 40
0.0
176
1
 90
0
176
1
290
0
176
1
290
1
176
1
290
1
176
1
290
0
176
1
290
0
176
1
290
0
176
1
290
0
176
1
290
0
176
1
290
0
176
1
 90
50
176
1
 40
0.0
176
1
 40
1.0
176
1
 90
0
176
1
 62
18
420
0
176
1
 90
50
176
1
 90
3
176
1
 62
5
420
255
176
1
290
0
176
1
 90
50
176
1
 90
50
176
1
 90
50
176
1
290
0
176
1
 90
50
176
1
 62
256
176
0
 40
1.0
176
0
 90
2
176
1
  1
strokes_ogs.tif
176
1
290
0
176
1
 40
1.0
176
1
 40
1.0
176
1
  0
VISUALSTYLE
  5
62
102
{ACAD_REACTORS
330
16
102
}
330
16
100
AcDbVisualStyle
  2
Flat
 70
0
177
3
291
1
 70
58
 90
2
176
1
 90
2
176
1
 90
0
176
1
 90
2
176
1
 40
0.6
176
1
 40
30.0
176
1
 62
7
420
16777215
176
1
 90
1
176
1
 90
4
176
1
 62
7
176
1
 62
257
176
1
 90
1
176
1
 90
1
176
1
 40
1.0
176
1
 90
8
176
1
 62
7
176
1
 40
1.0
176
1
 90
1
176
1
 90
6
176
1
 90
2
176
1
 62
7
176
1
 90
5
176
1
 90
0
176
1
 90
0
176
1
290
0
176
1
 90
1
176
1
 40
0.0
176
1
 90
0
176
1
290
0
176
1
290
1
176
1
290
1
176
1
290
0
176
1
290
0
176
1
290
0
176
1
290
0
176
1
290
0
176
1
290
0
176
1
 90
50
176
1
 40
0.0
176
1
 40
1.0
176
1
 90
0
176
1
 62
18
420
0
176
1
 90
50
176
1
 90
3
176
1
 62
5
420
255
176
1
290
0
176
1
 90
50
176
1
 90
50
176
1
 90
50
176
1
290
0
176
1
 90
50
176
1
 62
256
176
0
 40
1.0
176
0
 90
2
176
1
  1
strokes_ogs.tif
176
1
290
0
176
1
 40
1.0
176
1
 40
1.0
176
1
  0
VISUALSTYLE
  5
63
102
{ACAD_REACTORS
330
16
102
}
330
16
100
AcDbVisualStyle
  2
FlatWithEdges
 70
1
177
3
291
1
 70
58
 90
2
176
1
 90
2
176
1
 90
0
176
1
 90
2
176
1
 40
0.6
176
1
 40
30.0
176
1
 62
7
420
16777215
176
1
 90
1
176
1
 90
4
176
1
 62
7
176
1
 62
257
176
1
 90
1
176
1
 90
1
176
1
 40
1.0
176
1
 90
8
176
1
 62
7
176
1
 40
1.0
176
1
 90
1
176
1
 90
6
176
1
 90
2
176
1
 62
7
176
1
 90
5
176
1
 90
0
176
1
 90
0
176
1
290
0
176
1
 90
1
176
1
 40
0.0
176
1
 90
0
176
1
290
0
176
1
290
1
176
1
290
1
176
1
290
0
176
1
290
0
176
1
290
0
176
1
290
0
176
1
290
0
176
1
290
0
176
1
 90
50
176
1
 40
0.0
176
1
 40
1.0
176
1
 90
0
176
1
 62
18
420
0
176
1
 90
50
176
1
 90
3
176
1
 62
5
420
255
176
1
290
0
176
1
 90
50
176
1
 90
50
176
1
 90
50
176
1
290
0
176
1
 90
50
176
1
 62
256
176
0
 40
1.0
176
0
 90
2
176
1
  1
strokes_ogs.tif
176
1
290
0
176
1
 40
1.0
176
1
 40
1.0
176
1
  0
VISUALSTYLE
  5
64
102
{ACAD_REACTORS
330
16
102
}
330
16
100
AcDbVisualStyle
  2
Gouraud
 70
2
177
3
291
1
 70
58
 90
2
176
1
 90
2
176
1
 90
0
176
1
 90
2
176
1
 40
0.6
176
1
 40
30.0
176
1
 62
7
420
16777215
176
1
 90
1
176
1
 90
4
176
1
 62
7
176
1
 62
257
176
1
 90
1
176
1
 90
1
176
1
 40
1.0
176
1
 90
8
176
1
 62
7
176
1
 40
1.0
176
1
 90
1
176
1
 90
6
176
1
 90
2
176
1
 62
7
176
1
 90
5
176
1
 90
0
176
1
 90
0
176
1
290
0
176
1
 90
1
176
1
 40
0.0
176
1
 90
0
176
1
290
0
176
1
290
1
176
1
290
1
176
1
290
0
176
1
290
0
176
1
290
0
176
1
290
0
176
1
290
0
176
1
290
0
176
1
 90
50
176
1
 40
0.0
176
1
 40
1.0
176
1
 90
0
176
1
 62
18
420
0
176
1
 90
50
176
1
 90
3
176
1
 62
5
420
255
176
1
290
0
176
1
 90
50
176
1
 90
50
176
1
 90
50
176
1
290
0
176
1
 90
50
176
1
 62
256
176
0
 40
1.0
176
0
 90
2
176
1
  1
strokes_ogs.tif
176
1
290
0
176
1
 40
1.0
176
1
 40
1.0
176
1
  0
VISUALSTYLE
  5
65
102
{ACAD_REACTORS
330
16
102
}
330
16
100
AcDbVisualStyle
  2
GouraudWithEdges
 70
3
177
3
291
1
 70
58
 90
2
176
1
 90
2
176
1
 90
0
176
1
 90
2
176
1
 40
0.6
176
1
 40
30.0
176
1
 62
7
420
16777215
176
1
 90
1
176
1
 90
4
176
1
 62
7
176
1
 62
257
176
1
 90
1
176
1
 90
1
176
1
 40
1.0
176
1
 90
8
176
1
 62
7
176
1
 40
1.0
176
1
 90
1
176
1
 90
6
176
1
 90
2
176
1
 62
7
176
1
 90
5
176
1
 90
0
176
1
 90
0
176
1
290
0
176
1
 90
1
176
1
 40
0.0
176
1
 90
0
176
1
290
0
176
1
290
1
176
1
290
1
176
1
290
0
176
1
290
0
176
1
290
0
176
1
290
0
176
1
290
0
176
1
290
0
176
1
 90
50
176
1
 40
0.0
176
1
 40
1.0
176
1
 90
0
176
1
 62
18
420
0
176
1
 90
50
176
1
 90
3
176
1
 62
5
420
255
176
1
290
0
176
1
 90
50
176
1
 90
50
176
1
 90
50
176
1
290
0
176
1
 90
50
176
1
 62
256
176
0
 40
1.0
176
0
 90
2
176
1
  1
strokes_ogs.tif
176
1
290
0
176
1
 40
1.0
176
1
 40
1.0
176
1
  0
VISUALSTYLE
  5
66
102
{ACAD_REACTORS
330
16
102
}
330
16
100
AcDbVisualStyle
  2
Hidden
 70
6
177
3
291
0
 70
58
 90
2
176
1
 90
2
176
1
 90
0
176
1
 90
1
176
1
 40
0.6
176
1
 40
30.0
176
1
 62
7
420
16777215
176
1
 90
1
176
1
 90
4
176
1
 62
7
176
1
 62
257
176
1
 90
1
176
1
 90
1
176
1
 40
1.0
176
1
 90
8
176
1
 62
7
176
1
 40
1.0
176
1
 90
1
176
1
 90
6
176
1
 90
2
176
1
 62
7
176
1
 90
5
176
1
 90
0
176
1
 90
0
176
1
290
0
176
1
 90
1
176
1
 40
0.0
176
1
 90
0
176
1
290
0
176
1
290
1
176
1
290
1
176
1
290
0
176
1
290
0
176
1
290
0
176
1
290
0
176
1
290
0
176
1
290
0
176
1
 90
50
176
1
 40
0.0
176
1
 40
1.0
176
1
 90
0
176
1
 62
18
420
0
176
1
 90
50
176
1
 90
3
176
1
 62
5
420
255
176
1
290
0
176
1
 90
50
176
1
 90
50
176
1
 90
50
176
1
290
0
176
1
 90
50
176
1
 62
256
176
0
 40
1.0
176
0
 90
2
176
1
  1
strokes_ogs.tif
176
1
290
0
176
1
 40
1.0
176
1
 40
1.0
176
1
  0
VISUALSTYLE
  5
67
102
{ACAD_REACTORS
330
16
102
}
330
16
100
AcDbVisualStyle
  2
JitterOff
 70
20
177
3
291
1
 70
58
 90
2
176
1
 90
2
176
1
 90
0
176
1
 90
2
176
1
 40
0.6
176
1
 40
30.0
176
1
 62
7
420
16777215
176
1
 90
1
176
1
 90
4
176
1
 62
7
176
1
 62
257
176
1
 90
1
176
1
 90
1
176
1
 40
1.0
176
1
 90
8
176
1
 62
7
176
1
 40
1.0
176
1
 90
1
176
1
 90
6
176
1
 90
2
176
1
 62
7
176
1
 90
5
176
1
 90
0
176
1
 90
0
176
1
290
0
176
1
 90
1
176
1
 40
0.0
176
1
 90
0
176
1
290
0
176
1
290
1
176
1
290
1
176
1
290
0
176
1
290
0
176
1
290
0
176
1
290
0
176
1
290
0
176
1
290
0
176
1
 90
50
176
1
 40
0.0
176
1
 40
1.0
176
1
 90
0
176
1
 62
18
420
0
176
1
 90
50
176
1
 90
3
176
1
 62
5
420
255
176
1
290
0
176
1
 90
50
176
1
 90
50
176
1
 90
50
176
1
290
0
176
1
 90
50
176
1
 62
256
176
0
 40
1.0
176
0
 90
2
176
1
  1
strokes_ogs.tif
176
1
290
0
176
1
 40
1.0
176
1
 40
1.0
176
1
  0
VISUALSTYLE
  5
68
102
{ACAD_REACTORS
330
16
102
}
330
16
100
AcDbVisualStyle
  2
Linepattern
 70
14
177
3
291
1
 70
58
 90
2
176
1
 90
2
176
1
 90
0
176
1
 90
2
176
1
 40
0.6
176
1
 40
30.0
176
1
 62
7
420
16777215
176
1
 90
1
176
1
 90
4
176
1
 62
7
176
1
 62
257
176
1
 90
1
176
1
 90
1
176
1
 40
1.0
176
1
 90
8
176
1
 62
7
176
1
 40
1.0
176
1
 90
1
176
1
 90
6
176
1
 90
2
176
1
 62
7
176
1
 90
5
176
1
 90
0
176
1
 90
0
176
1
290
0
176
1
 90
1
176
1
 40
0.0
176
1
 90
0
176
1
290
0
176
1
290
1
176
1
290
1
176
1
290
0
176
1
290
0
176
1
290
0
176
1
290
0
176
1
290
0
176
1
290
0
176
1
 90
50
176
1
 40
0.0
176
1
 40
1.0
176
1
 90
0
176
1
 62
18
420
0
176
1
 90
50
176
1
 90
3
176
1
 62
5
420
255
176
1
290
0
176
1
 90
50
176
1
 90
50
176
1
 90
50
176
1
290
0
176
1
 90
50
176
1
 62
256
176
0
 40
1.0
176
0
 90
2
176
1
  1
strokes_ogs.tif
176
1
290
0
176
1
 40
1.0
176
1
 40
1.0
176
1
  0
VISUALSTYLE
  5
69
102
{ACAD_REACTORS
330
16
102
}
330
16
100
AcDbVisualStyle
  2
Modeling
 70
10
177
3
291
0
 70
58
 90
2
176
1
 90
2
176
1
 90
0
176
1
 90
2
176
1
 40
0.6
176
1
 40
30.0
176
1
 62
7
420
16777215
176
1
 90
1
176
1
 90
4
176
1
 62
7
176
1
 62
257
176
1
 90
1
176
1
 90
1
176
1
 40
1.0
176
1
 90
8
176
1
 62
7
176
1
 40
1.0
176
1
 90
1
176
1
 90
6
176
1
 90
2
176
1
 62
7
176
1
 90
5
176
1
 90
0
176
1
 90
0
176
1
290
0
176
1
 90
1
176
1
 40
0.0
176
1
 90
0
176
1
290
0
176
1
290
1
176
1
290
1
176
1
290
0
176
1
290
0
176
1
290
0
176
1
290
0
176
1
290
0
176
1
290
0
176
1
 90
50
176
1
 40
0.0
176
1
 40
1.0
176
1
 90
0
176
1
 62
18
420
0
176
1
 90
50
176
1
 90
3
176
1
 62
5
420
255
176
1
290
0
176
1
 90
50
176
1
 90
50
176
1
 90
50
176
1
290
0
176
1
 90
50
176
1
 62
256
176
0
 40
1.0
176
0
 90
2
176
1
  1
strokes_ogs.tif
176
1
290
0
176
1
 40
1.0
176
1
 40
1.0
176
1
  0
VISUALSTYLE
  5
6A
102
{ACAD_REACTORS
330
16
102
}
330
16
100
AcDbVisualStyle
  2
OverhangOff
 70
21
177
3
291
1
 70
58
 90
2
176
1
 90
2
176
1
 90
0
176
1
 90
2
176
1
 40
0.6
176
1
 40
30.0
176
1
 62
7
420
16777215
176
1
 90
1
176
1
 90
4
176
1
 62
7
176
1
 62
257
176
1
 90
1
176
1
 90
1
176
1
 40
1.0
176
1
 90
8
176
1
 62
7
176
1
 40
1.0
176
1
 90
1
176
1
 90
6
176
1
 90
2
176
1
 62
7
176
1
 90
5
176
1
 90
0
176
1
 90
0
176
1
290
0
176
1
 90
1
176
1
 40
0.0
176
1
 90
0
176
1
290
0
176
1
290
1
176
1
290
1
176
1
290
0
176
1
290
0
176
1
290
0
176
1
290
0
176
1
290
0
176
1
290
0
176
1
 90
50
176
1
 40
0.0
176
1
 40
1.0
176
1
 90
0
176
1
 62
18
420
0
176
1
 90
50
176
1
 90
3
176
1
 62
5
420
255
176
1
290
0
176
1
 90
50
176
1
 90
50
176
1
 90
50
176
1
290
0
176
1
 90
50
176
1
 62
256
176
0
 40
1.0
176
0
 90
2
176
1
  1
strokes_ogs.tif
176
1
290
0
176
1
 40
1.0
176
1
 40
1.0
176
1
  0
VISUALSTYLE
  5
6B
102
{ACAD_REACTORS
330
16
102
}
330
16
100
AcDbVisualStyle
  2
Realistic
 70
8
177
3
291
0
 70
58
 90
2
176
1
 90
2
176
1
 90
0
176
1
 90
2
176
1
 40
0.6
176
1
 40
30.0
176
1
 62
7
420
16777215
176
1
 90
1
176
1
 90
4
176
1
 62
7
176
1
 62
257
176
1
 90
1
176
1
 90
1
176
1
 40
1.0
176
1
 90
8
176
1
 62
7
176
1
 40
1.0
176
1
 90
1
176
1
 90
6
176
1
 90
2
176
1
 62
7
176
1
 90
5
176
1
 90
0
176
1
 90
0
176
1
290
0
176
1
 90
1
176
1
 40
0.0
176
1
 90
0
176
1
290
0
176
1
290
1
176
1
290
1
176
1
290
0
176
1
290
0
176
1
290
0
176
1
290
0
176
1
290
0
176
1
290
0
176
1
 90
50
176
1
 40
0.0
176
1
 40
1.0
176
1
 90
0
176
1
 62
18
420
0
176
1
 90
50
176
1
 90
3
176
1
 62
5
420
255
176
1
290
0
176
1
 90
50
176
1
 90
50
176
1
 90
50
176
1
290
0
176
1
 90
50
176
1
 62
256
176
0
 40
1.0
176
0
 90
2
176
1
  1
strokes_ogs.tif
176
1
290
0
176
1
 40
1.0
176
1
 40
1.0
176
1
  0
VISUALSTYLE
  5
6C
102
{ACAD_REACTORS
330
16
102
}
330
16
100
AcDbVisualStyle
  2
Shaded
 70
27
177
3
291
0
 70
58
 90
2
176
1
 90
2
176
1
 90
0
176
1
 90
2
176
1
 40
0.6
176
1
 40
30.0
176
1
 62
7
420
16777215
176
1
 90
1
176
1
 90
4
176
1
 62
7
176
1
 62
257
176
1
 90
1
176
1
 90
1
176
1
 40
1.0
176
1
 90
8
176
1
 62
7
176
1
 40
1.0
176
1
 90
1
176
1
 90
6
176
1
 90
2
176
1
 62
7
176
1
 90
5
176
1
 90
0
176
1
 90
0
176
1
290
0
176
1
 90
1
176
1
 40
0.0
176
1
 90
0
176
1
290
0
176
1
290
1
176
1
290
1
176
1
290
0
176
1
290
0
176
1
290
0
176
1
290
0
176
1
290
0
176
1
290
0
176
1
 90
50
176
1
 40
0.0
176
1
 40
1.0
176
1
 90
0
176
1
 62
18
420
0
176
1
 90
50
176
1
 90
3
176
1
 62
5
420
255
176
1
290
0
176
1
 90
50
176
1
 90
50
176
1
 90
50
176
1
290
0
176
1
 90
50
176
1
 62
256
176
0
 40
1.0
176
0
 90
2
176
1
  1
strokes_ogs.tif
176
1
290
0
176
1
 40
1.0
176
1
 40
1.0
176
1
  0
VISUALSTYLE
  5
6D
102
{ACAD_REACTORS
330
16
102
}
330
16
100
AcDbVisualStyle
  2
Shaded with edges
 70
26
177
3
291
0
 70
58
 90
2
176
1
 90
2
176
1
 90
0
176
1
 90
2
176
1
 40
0.6
176
1
 40
30.0
176
1
 62
7
420
16777215
176
1
 90
1
176
1
 90
4
176
1
 62
7
176
1
 62
257
176
1
 90
1
176
1
 90
1
176
1
 40
1.0
176
1
 90
8
176
1
 62
7
176
1
 40
1.0
176
1
 90
1
176
1
 90
6
176
1
 90
2
176
1
 62
7
176
1
 90
5
176
1
 90
0
176
1
 90
0
176
1
290
0
176
1
 90
1
176
1
 40
0.0
176
1
 90
0
176
1
290
0
176
1
290
1
176
1
290
1
176
1
290
0
176
1
290
0
176
1
290
0
176
1
290
0
176
1
290
0
176
1
290
0
176
1
 90
50
176
1
 40
0.0
176
1
 40
1.0
176
1
 90
0
176
1
 62
18
420
0
176
1
 90
50
176
1
 90
3
176
1
 62
5
420
255
176
1
290
0
176
1
 90
50
176
1
 90
50
176
1
 90
50
176
1
290
0
176
1
 90
50
176
1
 62
256
176
0
 40
1.0
176
0
 90
2
176
1
  1
strokes_ogs.tif
176
1
290
0
176
1
 40
1.0
176
1
 40
1.0
176
1
  0
VISUALSTYLE
  5
6E
102
{ACAD_REACTORS
330
16
102
}
330
16
100
AcDbVisualStyle
  2
Shades of Gray
 70
23
177
3
291
0
 70
58
 90
2
176
1
 90
2
176
1
 90
0
176
1
 90
2
176
1
 40
0.6
176
1
 40
30.0
176
1
 62
7
420
16777215
176
1
 90
1
176
1
 90
4
176
1
 62
7
176
1
 62
257
176
1
 90
1
176
1
 90
1
176
1
 40
1.0
176
1
 90
8
176
1
 62
7
176
1
 40
1.0
176
1
 90
1
176
1
 90
6
176
1
 90
2
176
1
 62
7
176
1
 90
5
176
1
 90
0
176
1
 90
0
176
1
290
0
176
1
 90
1
176
1
 40
0.0
176
1
 90
0
176
1
290
0
176
1
290
1
176
1
290
1
176
1
290
0
176
1
290
0
176
1
290
0
176
1
290
0
176
1
290
0
176
1
290
0
176
1
 90
50
176
1
 40
0.0
176
1
 40
1.0
176
1
 90
0
176
1
 62
18
420
0
176
1
 90
50
176
1
 90
3
176
1
 62
5
420
255
176
1
290
0
176
1
 90
50
176
1
 90
50
176
1
 90
50
176
1
290
0
176
1
 90
50
176
1
 62
256
176
0
 40
1.0
176
0
 90
2
176
1
  1
strokes_ogs.tif
176
1
290
0
176
1
 40
1.0
176
1
 40
1.0
176
1
  0
VISUALSTYLE
  5
6F
102
{ACAD_REACTORS
330
16
102
}
330
16
100
AcDbVisualStyle
  2
Sketchy
 70
24
177
3
291
0
 70
58
 90
2
176
1
 90
2
176
1
 90
0
176
1
 90
1
176
1
 40
0.6
176
1
 40
30.0
176
1
 62
7
420
16777215
176
1
 90
1
176
1
 90
4
176
1
 62
7
176
1
 62
257
176
1
 90
1
176
1
 90
1
176
1
 40
1.0
176
1
 90
8
176
1
 62
7
176
1
 40
1.0
176
1
 90
1
176
1
 90
6
176
1
 90
2
176
1
 62
7
176
1
 90
5
176
1
 90
0
176
1
 90
0
176
1
290
0
176
1
 90
1
176
1
 40
0.0
176
1
 90
0
176
1
290
0
176
1
290
1
176
1
290
1
176
1
290
0
176
1
290
0
176
1
290
0
176
1
290
0
176
1
290
0
176
1
290
0
176
1
 90
50
176
1
 40
0.0
176
1
 40
1.0
176
1
 90
0
176
1
 62
18
420
0
176
1
 90
50
176
1
 90
3
176
1
 62
5
420
255
176
1
290
0
176
1
 90
50
176
1
 90
50
176
1
 90
50
176
1
290
0
176
1
 90
50
176
1
 62
256
176
0
 40
1.0
176
0
 90
2
176
1
  1
strokes_ogs.tif
176
1
290
0
176
1
 40
1.0
176
1
 40
1.0
176
1
  0
VISUALSTYLE
  5
70
102
{ACAD_REACTORS
330
16
102
}
330
16
100
AcDbVisualStyle
  2
Thicken
 70
13
177
3
291
1
 70
58
 90
2
176
1
 90
2
176
1
 90
0
176
1
 90
2
176
1
 40
0.6
176
1
 40
30.0
176
1
 62
7
420
16777215
176
1
 90
1
176
1
 90
4
176
1
 62
7
176
1
 62
257
176
1
 90
1
176
1
 90
1
176
1
 40
1.0
176
1
 90
8
176
1
 62
7
176
1
 40
1.0
176
1
 90
1
176
1
 90
6
176
1
 90
2
176
1
 62
7
176
1
 90
5
176
1
 90
0
176
1
 90
0
176
1
290
0
176
1
 90
1
176
1
 40
0.0
176
1
 90
0
176
1
290
0
176
1
290
1
176
1
290
1
176
1
290
0
176
1
290
0
176
1
290
0
176
1
290
0
176
1
290
0
176
1
290
0
176
1
 90
50
176
1
 40
0.0
176
1
 40
1.0
176
1
 90
0
176
1
 62
18
420
0
176
1
 90
50
176
1
 90
3
176
1
 62
5
420
255
176
1
290
0
176
1
 90
50
176
1
 90
50
176
1
 90
50
176
1
290
0
176
1
 90
50
176
1
 62
256
176
0
 40
1.0
176
0
 90
2
176
1
  1
strokes_ogs.tif
176
1
290
0
176
1
 40
1.0
176
1
 40
1.0
176
1
  0
VISUALSTYLE
  5
71
102
{ACAD_REACTORS
330
16
102
}
330
16
100
AcDbVisualStyle
  2
Wireframe
 70
5
177
3
291
0
 70
58
 90
2
176
1
 90
2
176
1
 90
0
176
1
 90
0
176
1
 40
0.6
176
1
 40
30.0
176
1
 62
7
420
16777215
176
1
 90
1
176
1
 90
4
176
1
 62
7
176
1
 62
257
176
1
 90
1
176
1
 90
1
176
1
 40
1.0
176
1
 90
8
176
1
 62
7
176
1
 40
1.0
176
1
 90
1
176
1
 90
6
176
1
 90
2
176
1
 62
7
176
1
 90
5
176
1
 90
0
176
1
 90
0
176
1
290
0
176
1
 90
1
176
1
 40
0.0
176
1
 90
0
176
1
290
0
176
1
290
1
176
1
290
1
176
1
290
0
176
1
290
0
176
1
290
0
176
1
290
0
176
1
290
0
176
1
290
0
176
1
 90
50
176
1
 40
0.0
176
1
 40
1.0
176
1
 90
0
176
1
 62
18
420
0
176
1
 90
50
176
1
 90
3
176
1
 62
5
420
255
176
1
290
0
176
1
 90
50
176
1
 90
50
176
1
 90
50
176
1
290
0
176
1
 90
50
176
1
 62
256
176
0
 40
1.0
176
0
 90
2
176
1
  1
strokes_ogs.tif
176
1
290
0
176
1
 40
1.0
176
1
 40
1.0
176
1
  0
VISUALSTYLE
  5
72
102
{ACAD_REACTORS
330
16
102
}
330
16
100
AcDbVisualStyle
  2
X-Ray
 70
25
177
3
291
0
 70
58
 90
2
176
1
 90
2
176
1
 90
0
176
1
 90
2
176
1
 40
0.5
176
1
 40
30.0
176
1
 62
7
420
16777215
176
1
 90
1
176
1
 90
4
176
1
 62
7
176
1
 62
257
176
1
 90
1
176
1
 90
1
176
1
 40
1.0
176
1
 90
8
176
1
 62
7
176
1
 40
1.0
176
1
 90
1
176
1
 90
6
176
1
 90
2
176
1
 62
7
176
1
 90
5
176
1
 90
0
176
1
 90
0
176
1
290
0
176
1
 90
1
176
1
 40
0.0
176
1
 90
0
176
1
290
0
176
1
290
1
176
1
290
1
176
1
290
0
176
1
290
0
176
1
290
0
176
1
290
0
176
1
290
0
176
1
290
0
176
1
 90
50
176
1
 40
0.0
176
1
 40
1.0
176
1
 90
0
176
1
 62
18
420
0
176
1
 90
50
176
1
 90
3
176
1
 62
5
420
255
176
1
290
0
176
1
 90
50
176
1
 90
50
176
1
 90
50
176
1
290
0
176
1
 90
50
176
1
 62
256
176
0
 40
1.0
176
0
 90
2
176
1
  1
strokes_ogs.tif
176
1
290
0
176
1
 40
1.0
176
1
 40
1.0
176
1
  0
LAYOUT
  5
2E4
330
D
100
AcDbPlotSettings
  1

  2
DWG to PDF.pc3
  4
ezdxf_(594.00_x_420.00_MM)
  6

 40
0.0
 41
0.0
 42
0.0
 43
0.0
 44
594.0
 45
420.0
 46
0.0
 47
0.0
 48
0.0
 49
0.0
140
0.0
141
0.0
142
1.0
143
1.0
 70
672
 72
1
 73
0
 74
5
  7

 75
16
 76
0
 77
2
 78
300
147
1.0
148
0.0
149
0.0
100
AcDbLayout
  1
A2-1-100
 70
1
 71
3
 10
-0.0
 20
-0.0
 11
594.0
 21
420.0
 12
0.0
 22
0.0
 32
0.0
 14
1e+20
 24
1e+20
 34
1e+20
 15
-1e+20
 25
-1e+20
 35
-1e+20
146
0.0
 13
0.0
 23
0.0
 33
0.0
 16
1.0
 26
0.0
 36
0.0
 17
0.0
 27
1.0
 37
0.0
 76
1
330
2E1
331
2E5
  0
DICTIONARYVAR
  5
395
330
2D
100
DictionaryVariables
280
0
  1
1.4.4 @ 2026-08-28T14:59:36.841670+00:00
  0
ENDSEC
  0
EOF
